<svg xmlns="http://www.w3.org/2000/svg" viewBox="0 0 1152 517.14"><defs><style>.cls-1{fill:#a0acb7;}.cls-2{fill:#222221;}.cls-3{fill:#f5e8d6;}.cls-4{fill:#db961e;}.cls-5{fill:#9eabb6;}.cls-6{fill:#9f4035;}.cls-7{fill:#4f4337;}.cls-8{fill:#62796b;}.cls-9{fill:#a04035;}</style></defs><g id="Warstwa_2" data-name="Warstwa 2"><g id="Warstwa_2-2" data-name="Warstwa 2"><polygon class="cls-1" points="1056.52 52.11 1056.52 513.78 1148.64 513.78 1148.64 52.31 1148.64 52.09 1148.64 5.47 1056.52 52.11"/><polygon class="cls-2" points="1056.52 52.11 1053.16 52.11 1053.16 517.14 1152 517.14 1152 52.31 1152 52.09 1152 0 1053.16 50.04 1053.16 52.11 1056.52 52.11 1058.04 55.11 1145.28 10.94 1145.28 52.09 1145.28 52.31 1145.28 510.42 1059.88 510.42 1059.88 52.11 1056.52 52.11 1058.04 55.11 1056.52 52.11"/><polyline class="cls-2" points="1056.52 66.51 1148.64 66.51 1148.64 59.79 1056.52 59.79"/><polyline class="cls-2" points="1059.27 299.26 1151.39 299.26 1151.39 292.54 1059.27 292.54"/><polygon class="cls-3" points="364.91 277.97 364.91 270.2 356.83 270.2 356.83 248.9 356.83 245.59 350.98 245.59 350.98 237.51 336.39 237.51 336.39 232.08 312.02 232.08 312.02 216.75 257.84 208.45 257.84 512.18 356.83 512.18 356.83 483.29 356.83 464.84 364.91 464.84 364.91 457.07 356.83 457.07 356.83 451.14 356.83 446.16 364.91 446.16 364.91 438.39 356.83 438.39 356.83 427.47 364.91 427.47 364.91 419.7 356.83 419.7 356.83 408.78 364.91 408.78 364.91 401.01 356.83 401.01 356.83 390.1 364.91 390.1 364.91 382.32 356.83 382.32 356.83 371.41 364.91 371.41 364.91 363.64 356.83 363.64 356.83 352.72 364.91 352.72 364.91 344.95 356.83 344.95 356.83 334.03 364.91 334.03 364.91 326.26 356.83 326.26 356.83 315.35 364.91 315.35 364.91 307.58 356.83 307.58 356.83 296.66 364.91 296.66 364.91 288.89 356.83 288.89 356.83 277.97 364.91 277.97"/><polygon class="cls-2" points="364.91 277.97 368.27 277.97 368.27 266.84 360.19 266.84 360.19 248.9 360.19 242.24 354.34 242.24 354.34 234.15 339.75 234.15 339.75 228.72 315.38 228.72 315.38 213.86 254.48 204.53 254.48 515.54 360.19 515.54 360.19 483.29 360.19 468.2 368.27 468.2 368.27 453.71 360.19 453.71 360.19 451.14 360.19 449.52 368.27 449.52 368.27 435.02 360.19 435.02 360.19 430.83 368.27 430.83 368.27 416.34 360.19 416.34 360.19 412.14 368.27 412.14 368.27 397.65 360.19 397.65 360.19 393.45 368.27 393.46 368.27 378.96 360.19 378.96 360.19 374.77 368.27 374.77 368.27 360.28 360.19 360.28 360.19 356.08 368.27 356.08 368.27 341.59 360.19 341.59 360.19 337.39 368.27 337.39 368.27 322.9 360.19 322.9 360.19 318.71 368.27 318.71 368.27 304.21 360.19 304.21 360.19 300.02 368.27 300.02 368.27 285.53 360.19 285.53 360.19 281.33 368.27 281.33 368.27 277.97 364.91 277.97 364.91 274.61 353.47 274.61 353.47 292.25 361.55 292.25 361.55 293.3 353.47 293.3 353.47 310.94 361.55 310.94 361.55 311.99 353.47 311.99 353.47 329.62 361.55 329.62 361.55 330.67 353.47 330.67 353.47 348.31 361.55 348.31 361.55 349.36 353.47 349.36 353.47 367 361.55 367 361.55 368.05 353.47 368.05 353.47 385.69 361.55 385.69 361.55 386.73 353.47 386.73 353.47 404.37 361.55 404.37 361.55 405.42 353.47 405.42 353.47 423.06 361.55 423.06 361.55 424.11 353.47 424.11 353.47 441.75 361.55 441.75 361.55 442.8 353.47 442.8 353.47 451.14 353.47 460.43 361.55 460.43 361.55 461.48 353.47 461.48 353.47 483.29 353.47 508.82 261.2 508.82 261.2 212.36 308.66 219.63 308.66 235.44 333.03 235.44 333.03 240.87 347.62 240.87 347.62 248.96 356.83 248.96 356.83 245.59 353.47 245.59 353.47 248.9 353.47 273.56 361.55 273.56 361.55 277.97 364.91 277.97 364.91 274.61 364.91 277.97"/><polygon class="cls-3" points="184.28 204.1 184.28 214.83 159.91 214.83 159.91 220.26 145.32 220.26 145.32 231.68 131.38 231.65 131.38 259.11 139.47 259.11 139.47 270.18 131.38 270.18 131.38 277.95 139.47 277.95 139.47 288.87 131.38 288.87 131.38 296.64 139.47 296.64 139.47 307.56 131.38 307.56 131.38 315.33 139.47 315.33 139.47 326.25 131.38 326.25 131.38 334.02 139.47 334.02 139.47 344.93 131.38 344.93 131.38 352.7 139.47 352.7 139.47 363.62 131.38 363.62 131.38 371.39 139.47 371.39 139.47 382.31 131.38 382.31 131.38 390.08 139.47 390.08 139.47 400.99 131.38 400.99 131.38 408.76 139.47 408.76 139.47 419.68 131.38 419.68 131.38 427.45 139.47 427.45 139.47 438.37 131.38 438.37 131.38 446.14 139.47 446.14 139.47 457.06 131.38 457.06 131.38 464.83 139.47 464.83 139.47 483.29 139.47 512.18 238.46 512.18 238.46 204.1 184.28 204.1"/><polygon class="cls-2" points="184.28 204.1 180.92 204.1 180.92 211.47 156.55 211.47 156.55 216.9 141.96 216.9 141.96 228.31 128.02 228.28 128.02 262.48 136.11 262.48 136.11 266.82 128.02 266.82 128.02 281.31 136.11 281.31 136.11 285.51 128.02 285.51 128.02 300 136.11 300 136.11 304.2 128.02 304.2 128.02 318.69 136.11 318.69 136.11 322.88 128.02 322.88 128.02 337.38 136.11 337.38 136.11 341.57 128.02 341.57 128.02 356.06 136.11 356.06 136.11 360.26 128.02 360.26 128.02 374.75 136.11 374.75 136.11 378.95 128.02 378.95 128.02 393.44 136.11 393.44 136.11 397.63 128.02 397.63 128.02 412.13 136.11 412.13 136.11 416.32 128.02 416.32 128.02 430.81 136.11 430.81 136.11 435.01 128.02 435.01 128.02 449.5 136.11 449.5 136.11 453.69 128.02 453.69 128.02 468.19 136.11 468.19 136.11 483.29 136.11 515.54 241.82 515.54 241.82 200.74 180.92 200.74 180.92 204.1 184.28 204.1 184.28 207.46 235.1 207.46 235.1 508.82 142.83 508.82 142.83 483.29 142.83 461.46 134.74 461.46 134.74 460.42 142.83 460.42 142.83 442.78 134.74 442.78 134.74 441.73 142.83 441.73 142.83 424.09 134.74 424.09 134.74 423.04 142.83 423.04 142.83 405.4 134.74 405.4 134.74 404.35 142.83 404.35 142.83 386.72 134.74 386.72 134.74 385.67 142.83 385.67 142.83 368.03 134.74 368.03 134.74 366.98 142.83 366.98 142.83 349.34 134.74 349.34 134.74 348.29 142.83 348.29 142.83 330.65 134.74 330.65 134.74 329.61 142.83 329.61 142.83 311.97 134.74 311.97 134.74 310.92 142.83 310.92 142.83 293.28 134.74 293.28 134.74 292.23 142.83 292.23 142.83 274.59 134.74 274.59 134.74 273.55 142.83 273.55 142.83 255.75 134.74 255.75 134.74 235.02 148.69 235.05 148.69 223.62 163.27 223.62 163.27 218.19 187.64 218.19 187.64 204.1 184.28 204.1 184.28 207.46 184.28 204.1"/><rect class="cls-4" x="271.25" y="251.24" width="65.14" height="260.95"/><polygon class="cls-2" points="336.39 512.18 336.39 508.82 274.61 508.82 274.61 254.6 333.03 254.6 333.03 512.18 336.39 512.18 336.39 508.82 336.39 512.18 339.75 512.18 339.75 247.88 267.89 247.88 267.89 515.54 339.75 515.54 339.75 512.18 336.39 512.18"/><rect class="cls-5" x="298.07" y="261.17" width="27.25" height="9.93"/><polygon class="cls-2" points="325.32 271.11 325.32 267.75 301.43 267.75 301.43 264.53 321.96 264.53 321.96 271.11 325.32 271.11 325.32 267.75 325.32 271.11 328.68 271.11 328.68 257.81 294.71 257.81 294.71 274.47 328.68 274.47 328.68 271.11 325.32 271.11"/><rect class="cls-5" x="298.07" y="281.18" width="27.25" height="9.93"/><polygon class="cls-2" points="325.32 291.12 325.32 287.76 301.43 287.76 301.43 284.54 321.96 284.54 321.96 291.12 325.32 291.12 325.32 287.76 325.32 291.12 328.68 291.12 328.68 277.82 294.71 277.82 294.71 294.48 328.68 294.48 328.68 291.12 325.32 291.12"/><rect class="cls-5" x="298.07" y="301.2" width="27.25" height="9.94"/><polygon class="cls-2" points="325.32 311.13 325.32 307.77 301.43 307.77 301.43 304.56 321.96 304.56 321.96 311.13 325.32 311.13 325.32 307.77 325.32 311.13 328.68 311.13 328.68 297.83 294.71 297.83 294.71 314.49 328.68 314.49 328.68 311.13 325.32 311.13"/><rect class="cls-5" x="298.07" y="321.21" width="27.25" height="9.94"/><polygon class="cls-2" points="325.32 331.14 325.32 327.78 301.43 327.78 301.43 324.57 321.96 324.57 321.96 331.14 325.32 331.14 325.32 327.78 325.32 331.14 328.68 331.14 328.68 317.85 294.71 317.85 294.71 334.5 328.68 334.5 328.68 331.14 325.32 331.14"/><rect class="cls-5" x="298.07" y="341.22" width="27.25" height="9.93"/><polygon class="cls-2" points="325.32 351.15 325.32 347.79 301.43 347.79 301.43 344.58 321.96 344.58 321.96 351.15 325.32 351.15 325.32 347.79 325.32 351.15 328.68 351.15 328.68 337.86 294.71 337.86 294.71 354.51 328.68 354.51 328.68 351.15 325.32 351.15"/><rect class="cls-5" x="298.07" y="361.23" width="27.25" height="9.93"/><polygon class="cls-2" points="325.32 371.17 325.32 367.8 301.43 367.8 301.43 364.59 321.96 364.59 321.96 371.17 325.32 371.17 325.32 367.8 325.32 371.17 328.68 371.17 328.68 357.87 294.71 357.87 294.71 374.53 328.68 374.53 328.68 371.17 325.32 371.17"/><rect class="cls-5" x="298.07" y="381.24" width="27.25" height="9.93"/><polygon class="cls-2" points="325.32 391.18 325.32 387.82 301.43 387.82 301.43 384.6 321.96 384.6 321.96 391.18 325.32 391.18 325.32 387.82 325.32 391.18 328.68 391.18 328.68 377.88 294.71 377.88 294.71 394.54 328.68 394.54 328.68 391.18 325.32 391.18"/><rect class="cls-5" x="298.07" y="401.25" width="27.25" height="9.93"/><polygon class="cls-2" points="325.32 411.19 325.32 407.83 301.43 407.83 301.43 404.61 321.96 404.61 321.96 411.19 325.32 411.19 325.32 407.83 325.32 411.19 328.68 411.19 328.68 397.89 294.71 397.89 294.71 414.55 328.68 414.55 328.68 411.19 325.32 411.19"/><rect class="cls-5" x="298.07" y="421.27" width="27.25" height="9.93"/><polygon class="cls-2" points="325.32 431.2 325.32 427.84 301.43 427.84 301.43 424.63 321.96 424.63 321.96 431.2 325.32 431.2 325.32 427.84 325.32 431.2 328.68 431.2 328.68 417.9 294.71 417.9 294.71 434.56 328.68 434.56 328.68 431.2 325.32 431.2"/><rect class="cls-5" x="298.07" y="441.28" width="27.25" height="9.93"/><polygon class="cls-2" points="325.32 451.21 325.32 447.85 301.43 447.85 301.43 444.64 321.96 444.64 321.96 451.21 325.32 451.21 325.32 447.85 325.32 451.21 328.68 451.21 328.68 437.92 294.71 437.92 294.71 454.57 328.68 454.57 328.68 451.21 325.32 451.21"/><rect class="cls-5" x="298.07" y="461.29" width="27.25" height="9.93"/><polygon class="cls-2" points="325.32 471.22 325.32 467.86 301.43 467.86 301.43 464.65 321.96 464.65 321.96 471.22 325.32 471.22 325.32 467.86 325.32 471.22 328.68 471.22 328.68 457.93 294.71 457.93 294.71 474.58 328.68 474.58 328.68 471.22 325.32 471.22"/><rect class="cls-5" x="298.07" y="481.3" width="27.25" height="9.93"/><polygon class="cls-2" points="325.32 491.24 325.32 487.88 301.43 487.88 301.43 484.66 321.96 484.66 321.96 491.24 325.32 491.24 325.32 487.88 325.32 491.24 328.68 491.24 328.68 477.94 294.71 477.94 294.71 494.6 328.68 494.6 328.68 491.24 325.32 491.24"/><polyline class="cls-2" points="283.43 259.16 283.43 273.12 290.15 273.12 290.15 259.16"/><polyline class="cls-2" points="283.43 279.18 283.43 293.13 290.15 293.13 290.15 279.18"/><polyline class="cls-2" points="283.43 299.19 283.43 313.14 290.15 313.14 290.15 299.19"/><polyline class="cls-2" points="283.43 319.2 283.43 333.15 290.15 333.15 290.15 319.2"/><polyline class="cls-2" points="283.43 339.21 283.43 353.16 290.15 353.16 290.15 339.21"/><polyline class="cls-2" points="283.43 359.22 283.43 373.18 290.15 373.18 290.15 359.22"/><polyline class="cls-2" points="283.43 419.26 283.43 433.21 290.15 433.21 290.15 419.26"/><polyline class="cls-2" points="283.43 439.27 283.43 453.22 290.15 453.22 290.15 439.27"/><polyline class="cls-2" points="283.43 459.28 283.43 473.23 290.15 473.23 290.15 459.28"/><polyline class="cls-2" points="283.43 479.29 283.43 493.25 290.15 493.25 290.15 479.29"/><polyline class="cls-2" points="283.43 379.23 283.43 393.19 290.15 393.19 290.15 379.23"/><polyline class="cls-2" points="283.43 399.25 283.43 413.2 290.15 413.2 290.15 399.25"/><rect class="cls-4" x="159.91" y="251.24" width="65.14" height="260.95"/><polygon class="cls-2" points="159.91 512.18 159.91 515.54 228.41 515.54 228.41 247.88 156.55 247.88 156.55 515.54 159.91 515.54 159.91 512.18 163.27 512.18 163.27 254.6 221.69 254.6 221.69 508.82 159.91 508.82 159.91 512.18 163.27 512.18 159.91 512.18"/><rect class="cls-5" x="170.98" y="261.17" width="27.25" height="9.93"/><polygon class="cls-2" points="170.98 271.11 170.98 274.47 201.59 274.47 201.59 257.81 167.62 257.81 167.62 274.47 170.98 274.47 170.98 271.11 174.34 271.11 174.34 264.53 194.87 264.53 194.87 267.75 170.98 267.75 170.98 271.11 174.34 271.11 170.98 271.11"/><rect class="cls-5" x="170.98" y="281.18" width="27.25" height="9.93"/><polygon class="cls-2" points="170.98 291.12 170.98 294.48 201.59 294.48 201.59 277.82 167.62 277.82 167.62 294.48 170.98 294.48 170.98 291.12 174.34 291.12 174.34 284.54 194.87 284.54 194.87 287.76 170.98 287.76 170.98 291.12 174.34 291.12 170.98 291.12"/><rect class="cls-5" x="170.98" y="301.2" width="27.25" height="9.94"/><polygon class="cls-2" points="170.98 311.13 170.98 314.49 201.59 314.49 201.59 297.83 167.62 297.83 167.62 314.49 170.98 314.49 170.98 311.13 174.34 311.13 174.34 304.56 194.87 304.56 194.87 307.77 170.98 307.77 170.98 311.13 174.34 311.13 170.98 311.13"/><rect class="cls-5" x="170.98" y="321.21" width="27.25" height="9.94"/><polygon class="cls-2" points="170.98 331.14 170.98 334.5 201.59 334.5 201.59 317.85 167.62 317.85 167.62 334.5 170.98 334.5 170.98 331.14 174.34 331.14 174.34 324.57 194.87 324.57 194.87 327.78 170.98 327.78 170.98 331.14 174.34 331.14 170.98 331.14"/><rect class="cls-5" x="170.98" y="341.22" width="27.25" height="9.93"/><polygon class="cls-2" points="170.98 351.15 170.98 354.51 201.59 354.51 201.59 337.86 167.62 337.86 167.62 354.51 170.98 354.51 170.98 351.15 174.34 351.15 174.34 344.58 194.87 344.58 194.87 347.79 170.98 347.79 170.98 351.15 174.34 351.15 170.98 351.15"/><rect class="cls-5" x="170.98" y="361.23" width="27.25" height="9.93"/><polygon class="cls-2" points="170.98 371.17 170.98 374.53 201.59 374.53 201.59 357.87 167.62 357.87 167.62 374.53 170.98 374.53 170.98 371.17 174.34 371.17 174.34 364.59 194.87 364.59 194.87 367.8 170.98 367.8 170.98 371.17 174.34 371.17 170.98 371.17"/><rect class="cls-5" x="170.98" y="381.24" width="27.25" height="9.93"/><polygon class="cls-2" points="170.98 391.18 170.98 394.54 201.59 394.54 201.59 377.88 167.62 377.88 167.62 394.54 170.98 394.54 170.98 391.18 174.34 391.18 174.34 384.6 194.87 384.6 194.87 387.82 170.98 387.82 170.98 391.18 174.34 391.18 170.98 391.18"/><rect class="cls-5" x="170.98" y="401.25" width="27.25" height="9.93"/><polygon class="cls-2" points="170.98 411.19 170.98 414.55 201.59 414.55 201.59 397.89 167.62 397.89 167.62 414.55 170.98 414.55 170.98 411.19 174.34 411.19 174.34 404.62 194.87 404.62 194.87 407.83 170.98 407.83 170.98 411.19 174.34 411.19 170.98 411.19"/><rect class="cls-5" x="170.98" y="421.27" width="27.25" height="9.93"/><polygon class="cls-2" points="170.98 431.2 170.98 434.56 201.59 434.56 201.59 417.9 167.62 417.9 167.62 434.56 170.98 434.56 170.98 431.2 174.34 431.2 174.34 424.63 194.87 424.63 194.87 427.84 170.98 427.84 170.98 431.2 174.34 431.2 170.98 431.2"/><rect class="cls-5" x="170.98" y="441.28" width="27.25" height="9.93"/><polygon class="cls-2" points="170.98 451.21 170.98 454.57 201.59 454.57 201.59 437.92 167.62 437.92 167.62 454.57 170.98 454.57 170.98 451.21 174.34 451.21 174.34 444.64 194.87 444.64 194.87 447.85 170.98 447.85 170.98 451.21 174.34 451.21 170.98 451.21"/><rect class="cls-5" x="170.98" y="461.29" width="27.25" height="9.93"/><polygon class="cls-2" points="170.98 471.22 170.98 474.58 201.59 474.58 201.59 457.93 167.62 457.93 167.62 474.58 170.98 474.58 170.98 471.22 174.34 471.22 174.34 464.65 194.87 464.65 194.87 467.86 170.98 467.86 170.98 471.22 174.34 471.22 170.98 471.22"/><rect class="cls-5" x="170.98" y="481.3" width="27.25" height="9.93"/><polygon class="cls-2" points="170.98 491.24 170.98 494.6 201.59 494.6 201.59 477.94 167.62 477.94 167.62 494.6 170.98 494.6 170.98 491.24 174.34 491.24 174.34 484.66 194.87 484.66 194.87 487.88 170.98 487.88 170.98 491.24 174.34 491.24 170.98 491.24"/><polyline class="cls-2" points="206.15 259.16 206.15 273.12 212.87 273.12 212.87 259.16"/><polyline class="cls-2" points="206.15 220.86 206.15 234.81 212.87 234.81 212.87 220.86"/><polyline class="cls-2" points="206.15 279.18 206.15 293.13 212.87 293.13 212.87 279.18"/><polyline class="cls-2" points="206.15 299.19 206.15 313.14 212.87 313.14 212.87 299.19"/><polyline class="cls-2" points="206.15 319.2 206.15 333.15 212.87 333.15 212.87 319.2"/><polyline class="cls-2" points="206.15 339.21 206.15 353.16 212.87 353.16 212.87 339.21"/><polyline class="cls-2" points="206.15 359.22 206.15 373.18 212.87 373.18 212.87 359.22"/><polyline class="cls-2" points="206.15 419.26 206.15 433.21 212.87 433.21 212.87 419.26"/><polyline class="cls-2" points="206.15 439.27 206.15 453.22 212.87 453.22 212.87 439.27"/><polyline class="cls-2" points="206.15 459.28 206.15 473.23 212.87 473.23 212.87 459.28"/><polyline class="cls-2" points="206.15 479.29 206.15 493.25 212.87 493.25 212.87 479.29"/><polyline class="cls-2" points="206.15 379.23 206.15 393.19 212.87 393.19 212.87 379.23"/><polyline class="cls-2" points="206.15 399.25 206.15 413.2 212.87 413.2 212.87 399.25"/><rect class="cls-3" x="238.46" y="247.53" width="19.37" height="19.37"/><polygon class="cls-2" points="257.84 266.9 257.84 263.54 241.82 263.54 241.82 250.89 254.48 250.89 254.48 266.9 257.84 266.9 257.84 263.54 257.84 266.9 261.2 266.9 261.2 244.16 235.1 244.16 235.1 270.26 261.2 270.26 261.2 266.9 257.84 266.9"/><rect class="cls-3" x="238.46" y="308.19" width="19.37" height="19.37"/><polygon class="cls-2" points="257.84 327.56 257.84 324.2 241.82 324.2 241.82 311.55 254.47 311.55 254.48 327.56 257.84 327.56 257.84 324.2 257.84 327.56 261.2 327.56 261.2 304.83 235.1 304.83 235.1 330.92 261.2 330.92 261.2 327.56 257.84 327.56"/><rect class="cls-3" x="238.46" y="359.06" width="19.37" height="19.37"/><polygon class="cls-2" points="257.84 378.44 257.84 375.07 241.82 375.07 241.82 362.42 254.47 362.42 254.48 378.44 257.84 378.44 257.84 375.07 257.84 378.44 261.2 378.44 261.2 355.7 235.1 355.7 235.1 381.8 261.2 381.8 261.2 378.44 257.84 378.44"/><rect class="cls-3" x="238.46" y="406.22" width="19.37" height="19.37"/><polygon class="cls-2" points="257.84 425.59 257.84 422.23 241.82 422.23 241.82 409.58 254.47 409.58 254.48 425.59 257.84 425.59 257.84 422.23 257.84 425.59 261.2 425.59 261.2 402.86 235.1 402.86 235.1 428.95 261.2 428.95 261.2 425.59 257.84 425.59"/><polygon class="cls-6" points="105.17 213.64 91.88 213.64 78.58 213.64 73.02 512.68 91.88 512.68 110.74 512.68 105.17 213.64"/><polygon class="cls-2" points="105.17 213.64 105.17 210.28 91.88 210.28 75.29 210.28 69.59 516.04 91.88 516.04 114.17 516.04 108.47 210.28 105.17 210.28 105.17 213.64 101.81 213.7 107.32 509.32 91.88 509.32 76.44 509.32 81.88 217 91.88 217 105.17 217 105.17 213.64 101.81 213.7 105.17 213.64"/><polygon class="cls-7" points="451.31 244.85 406.28 289.88 406.28 513.78 496.33 513.78 496.33 289.88 451.31 244.85"/><polygon class="cls-2" points="451.31 244.85 448.93 242.47 402.92 288.48 402.92 517.14 499.69 517.14 499.69 288.48 451.31 240.1 448.93 242.47 451.31 244.85 448.93 247.23 492.97 291.27 492.97 510.42 409.64 510.42 409.64 291.27 453.68 247.23 451.31 244.85 448.93 247.23 451.31 244.85"/><polygon class="cls-7" points="598.68 481.84 598.68 513.77 467.11 513.77 467.11 481.84 470.62 478.33 470.62 409.46 477.92 402.17 477.92 346.02 484.22 339.71 484.22 277.32 493.37 268.17 493.37 245.97 499.62 239.72 499.62 199.55 495.39 195.33 495.39 189.76 501.16 184 501.16 155.69 511.71 145.15 554.09 145.15 564.63 155.69 564.63 184 570.4 189.76 570.4 195.33 566.17 199.55 566.17 239.72 572.42 245.97 572.42 268.17 581.57 277.32 581.57 339.71 587.87 346.02 587.87 402.17 595.17 409.46 595.17 478.33 598.68 481.84"/><polygon class="cls-2" points="598.68 481.84 595.32 481.84 595.32 510.41 470.47 510.41 470.47 483.23 473.98 479.72 473.98 410.86 481.28 403.56 481.28 347.41 487.58 341.11 487.58 278.71 496.73 269.56 496.73 247.36 502.98 241.11 502.98 198.16 498.75 193.94 498.75 191.15 504.52 185.39 504.52 157.09 513.1 148.51 552.7 148.51 561.27 157.09 561.27 185.39 567.04 191.15 567.04 193.94 562.81 198.16 562.81 241.11 569.06 247.36 569.06 269.56 578.21 278.71 578.21 341.11 584.51 347.41 584.51 403.56 591.81 410.85 591.81 479.72 596.3 484.22 598.68 481.84 595.32 481.84 598.68 481.84 601.05 479.46 598.53 476.94 598.53 408.07 591.23 400.77 591.23 344.63 584.93 338.32 584.93 275.93 575.78 266.78 575.78 244.57 569.53 238.32 569.53 200.95 573.76 196.72 573.76 188.37 567.99 182.6 567.99 154.3 555.48 141.79 510.32 141.79 497.8 154.3 497.8 182.6 492.03 188.37 492.03 196.72 496.25 200.95 496.25 238.32 490 244.57 490 266.78 480.86 275.93 480.86 338.32 474.56 344.63 474.56 400.77 467.26 408.07 467.26 476.94 463.75 480.45 463.75 517.13 602.04 517.13 602.04 480.45 601.05 479.46 598.68 481.84"/><polyline class="cls-2" points="529.59 189.34 529.59 240.14 536.31 240.14 536.31 189.34"/><polyline class="cls-2" points="529.59 271.44 529.59 293.93 536.31 293.93 536.31 271.44"/><polyline class="cls-2" points="529.59 307.41 529.59 329.9 536.31 329.9 536.31 307.41"/><polyline class="cls-2" points="572.42 242.67 493.21 242.67 493.21 249.39 572.42 249.39"/><rect class="cls-7" x="505.2" y="264.7" width="12.77" height="249.08"/><polygon class="cls-2" points="517.97 513.78 517.97 510.42 508.56 510.42 508.56 268.06 514.61 268.06 514.61 513.78 517.97 513.78 517.97 510.42 517.97 513.78 521.33 513.78 521.33 261.34 501.84 261.34 501.84 517.14 521.33 517.14 521.33 513.78 517.97 513.78"/><rect class="cls-7" x="549.06" y="264.7" width="12.77" height="249.08"/><polygon class="cls-2" points="561.83 513.78 561.83 510.42 552.42 510.42 552.42 268.06 558.47 268.06 558.47 513.78 561.83 513.78 561.83 510.42 561.83 513.78 565.19 513.78 565.19 261.34 545.69 261.34 545.69 517.14 565.19 517.14 565.19 513.78 561.83 513.78"/><polyline class="cls-2" points="499.62 202.91 566.18 202.91 566.18 196.19 499.62 196.19"/><path class="cls-8" d="M545.19,119.77l8.9,8.89v16.49H511.71V128.66l8.89-8.89V114a9.85,9.85,0,1,1,0-19.69L524.1,87l8.8-57.9L541.69,87l3.5,7.29a9.85,9.85,0,1,1,0,19.69Z"/><path class="cls-2" d="M545.19,119.77l-2.37,2.38,7.91,7.9v11.74H515.07V130.05l8.89-8.89V110.62H520.6a6.49,6.49,0,1,1,0-13h2.11L527.34,88l5.56-36.52L538.44,88l4.64,9.65h2.11a6.49,6.49,0,1,1,0,13h-3.36v10.54l1,1,2.37-2.38h3.36V114h-3.36v3.36a13.21,13.21,0,1,0,0-26.41v3.36l3-1.46L544.94,86l-12-79.26L520.85,86l-3.28,6.83,3,1.46V90.93a13.21,13.21,0,1,0,0,26.41V114h-3.36v4.4l-8.89,8.89v21.24h49.1V127.27l-9.88-9.88-2.38,2.38h0Z"/><polygon class="cls-7" points="435.77 481.84 435.77 513.77 304.2 513.77 304.2 481.84 307.71 478.33 307.71 409.46 315.01 402.17 315.01 346.01 321.31 339.71 321.31 277.32 330.46 268.17 330.46 245.96 336.7 239.71 336.7 199.55 332.48 195.33 332.48 189.76 338.25 183.99 338.25 155.69 348.79 145.15 391.18 145.15 401.73 155.69 401.73 183.99 407.49 189.76 407.49 195.33 403.27 199.55 403.27 239.71 409.51 245.96 409.51 268.17 418.66 277.32 418.66 339.71 424.97 346.01 424.97 402.17 432.25 409.46 432.25 478.33 435.77 481.84"/><polygon class="cls-2" points="435.77 481.84 432.41 481.84 432.41 510.41 307.57 510.41 307.57 483.23 311.08 479.72 311.08 410.85 318.37 403.56 318.37 347.41 324.68 341.1 324.68 278.71 333.82 269.56 333.82 247.35 340.06 241.1 340.06 198.16 335.84 193.94 335.84 191.15 341.61 185.38 341.61 157.08 350.18 148.51 389.78 148.51 398.37 157.09 398.37 185.38 404.13 191.15 404.13 193.93 399.91 198.16 399.91 241.1 406.14 247.35 406.14 269.56 415.3 278.71 415.3 341.1 421.61 347.41 421.61 403.56 428.89 410.85 428.89 479.72 433.4 484.22 435.77 481.84 432.41 481.84 435.77 481.84 438.14 479.46 435.61 476.93 435.61 408.07 428.33 400.77 428.33 344.62 422.02 338.32 422.02 275.93 412.87 266.77 412.87 244.57 406.63 238.32 406.63 200.94 410.85 196.72 410.85 188.37 405.09 182.6 405.09 154.3 392.56 141.79 347.4 141.79 334.89 154.3 334.89 182.6 329.12 188.37 329.12 196.72 333.34 200.94 333.34 238.32 327.1 244.57 327.1 266.78 317.95 275.93 317.95 338.32 311.65 344.62 311.65 400.77 304.35 408.07 304.35 476.94 300.84 480.45 300.84 517.13 439.13 517.13 439.13 480.44 438.14 479.46 435.77 481.84"/><polyline class="cls-2" points="365.14 189.34 365.14 240.13 371.86 240.13 371.86 189.34"/><polyline class="cls-2" points="365.14 271.44 365.14 293.93 371.86 293.93 371.86 271.44"/><polyline class="cls-2" points="365.14 307.41 365.14 329.9 371.86 329.9 371.86 307.41"/><polyline class="cls-2" points="407.98 242.67 328.76 242.67 328.76 249.39 407.98 249.39"/><rect class="cls-7" x="340.75" y="264.69" width="12.77" height="249.08"/><polygon class="cls-2" points="353.53 513.78 353.53 510.42 344.12 510.42 344.12 268.05 350.17 268.05 350.17 513.78 353.53 513.78 353.53 510.42 353.53 513.78 356.89 513.78 356.89 261.33 337.39 261.33 337.39 517.14 356.89 517.14 356.89 513.78 353.53 513.78"/><rect class="cls-7" x="384.61" y="264.69" width="12.77" height="249.08"/><polygon class="cls-2" points="397.38 513.78 397.38 510.42 387.97 510.42 387.97 268.05 394.02 268.05 394.02 513.78 397.38 513.78 397.38 510.42 397.38 513.78 400.74 513.78 400.74 261.33 381.25 261.33 381.25 517.14 400.74 517.14 400.74 513.78 397.38 513.78"/><polyline class="cls-2" points="335.17 202.91 401.73 202.91 401.73 196.19 335.17 196.19"/><path class="cls-8" d="M380.75,119.77l8.89,8.89v16.49H347.26V128.66l8.89-8.89V114a9.85,9.85,0,1,1,0-19.7l3.5-7.28,8.8-57.9,8.8,57.9,3.5,7.28a9.85,9.85,0,1,1,0,19.7Z"/><path class="cls-2" d="M380.75,119.77l-2.38,2.37,7.91,7.91v11.74H350.62V130.05l8.89-8.89V110.62h-3.36a6.49,6.49,0,1,1,0-13h2.11L362.89,88l5.56-36.54L374,88l4.63,9.64h2.11a6.49,6.49,0,0,1,6.49,6.49,6.49,6.49,0,0,1-6.49,6.49h-3.36v10.54l1,1,2.38-2.37h3.36V114h-3.36v3.36a13.21,13.21,0,0,0,0-26.42v3.36l3-1.45L380.5,86,368.45,6.75,356.4,86l-3.28,6.83,3,1.45V90.92a13.21,13.21,0,0,0,0,26.42V114h-3.36v4.39l-8.89,8.9v21.24H393V127.26l-9.87-9.87-2.38,2.38h0Z"/><polyline class="cls-2" points="428.83 281.94 428.83 356.67 435.56 356.67 435.56 281.94"/><polyline class="cls-2" points="447.94 281.94 447.94 356.66 454.67 356.66 454.67 281.94"/><polyline class="cls-2" points="467.05 281.94 467.05 356.67 473.77 356.67 473.77 281.94"/><polygon class="cls-3" points="480.02 513.78 480.02 346.02 484.33 341.71 484.33 299.08 472.25 299.08 472.25 256.61 476.13 252.72 476.13 232.87 467.03 232.87 467.03 204.45 470.49 200.99 470.49 182.1 462.99 182.1 451.49 118.65 440 182.1 432.49 182.1 432.49 200.99 435.95 204.45 435.95 232.87 426.85 232.87 426.85 252.72 430.74 256.61 430.74 299.08 418.65 299.08 418.65 341.71 422.97 346.02 422.97 513.78 480.02 513.78"/><polygon class="cls-2" points="480.02 513.78 483.38 513.78 483.38 347.41 487.69 343.1 487.69 295.72 475.61 295.72 475.61 258 479.5 254.11 479.5 229.51 470.39 229.51 470.39 205.84 473.85 202.38 473.85 178.74 465.8 178.74 451.49 99.81 437.19 178.74 429.13 178.74 429.13 202.38 432.59 205.84 432.59 229.51 423.49 229.51 423.49 254.11 427.38 258 427.38 295.72 415.29 295.72 415.29 343.1 419.61 347.41 419.61 517.14 483.38 517.14 483.38 513.78 480.02 513.78 480.02 510.42 426.33 510.42 426.33 344.63 422.02 340.32 422.02 302.44 434.1 302.44 434.1 255.22 430.21 251.33 430.21 236.23 439.31 236.23 439.31 203.06 435.85 199.6 435.85 185.46 442.8 185.46 451.49 137.5 460.18 185.46 467.13 185.46 467.13 199.6 463.67 203.06 463.67 236.23 472.77 236.23 472.77 251.33 468.89 255.22 468.89 302.44 480.97 302.44 480.97 340.32 476.66 344.63 476.66 513.78 480.02 513.78 480.02 510.42 480.02 513.78"/><polyline class="cls-2" points="421.9 340.44 483.43 340.44 483.43 333.72 421.9 333.72"/><polyline class="cls-2" points="419.88 302.44 481.4 302.44 481.4 295.72 419.88 295.72"/><polyline class="cls-2" points="429.02 311.31 429.02 325.26 435.74 325.26 435.74 311.31"/><polyline class="cls-2" points="448.13 311.31 448.13 325.26 454.85 325.26 454.85 311.31"/><polyline class="cls-2" points="448.13 210.06 448.13 230.17 454.85 230.17 454.85 210.06"/><polyline class="cls-2" points="448.13 348.89 448.13 362.85 454.85 362.85 454.85 348.89"/><polyline class="cls-2" points="448.13 372.45 448.13 386.41 454.85 386.41 454.85 372.45"/><polyline class="cls-2" points="448.13 419.72 448.13 433.68 454.85 433.68 454.85 419.72"/><polyline class="cls-2" points="467.24 311.31 467.24 325.26 473.96 325.26 473.96 311.31"/><polyline class="cls-2" points="430.49 236.23 470.94 236.23 470.94 229.51 430.49 229.51"/><path class="cls-3" d="M460.51,185.46a9,9,0,1,0-18,0"/><path class="cls-2" d="M463.88,185.46a12.39,12.39,0,0,0-24.77,0h6.72a5.66,5.66,0,1,1,11.32,0Z"/><path class="cls-3" d="M442.47,264.1a9,9,0,1,0,9-9A9,9,0,0,0,442.47,264.1Z"/><path class="cls-2" d="M442.47,264.1h-3.36a12.38,12.38,0,1,0,3.63-8.76,12.33,12.33,0,0,0-3.63,8.76h6.72a5.67,5.67,0,1,1,1.66,4,5.6,5.6,0,0,1-1.66-4Z"/><rect class="cls-3" x="191.98" y="393.74" width="230.99" height="120.04"/><polygon class="cls-2" points="191.98 513.78 191.98 517.14 426.33 517.14 426.33 390.38 188.62 390.38 188.62 517.14 191.98 517.14 191.98 513.78 195.34 513.78 195.34 397.1 419.61 397.1 419.61 510.42 191.98 510.42 191.98 513.78 195.34 513.78 191.98 513.78"/><polyline class="cls-2" points="364.25 419.72 364.25 433.68 370.98 433.68 370.98 419.72"/><polyline class="cls-2" points="336.15 419.72 336.15 433.68 342.87 433.68 342.87 419.72"/><polyline class="cls-2" points="304.31 419.72 304.31 470.52 311.04 470.52 311.04 419.72"/><polyline class="cls-2" points="278.77 419.72 278.77 470.52 285.49 470.52 285.49 419.72"/><path class="cls-4" d="M308.11,69.55a46.51,46.51,0,1,0-82.39,29.6h0a46.64,46.64,0,0,0,6.2,6.21l19,19h21.34L291,105.62A46.41,46.41,0,0,0,308.11,69.55Z"/><path class="cls-2" d="M308.11,69.55h3.36a49.87,49.87,0,1,0-88.34,31.74l2.59-2.14h-3.36v1.2l.77.94a50.42,50.42,0,0,0,6.65,6.66l2.14-2.59-2.38,2.38,20,20h24.12L293.34,108,291,105.62l2.13,2.6a49.78,49.78,0,0,0,18.38-38.67h-6.72A43,43,0,0,1,288.84,103l-.13.11L270.83,121H252.28l-18.09-18.12-.12-.1A43,43,0,0,1,228.31,97l-2.59,2.14h3.36V97.94l-.77-.93a43.15,43.15,0,1,1,76.44-27.46Z"/><rect class="cls-7" x="250.88" y="139.03" width="21.34" height="9.85"/><polygon class="cls-2" points="272.22 148.88 272.22 145.52 254.24 145.52 254.24 142.39 268.86 142.39 268.86 148.88 272.22 148.88 272.22 145.52 272.22 148.88 275.58 148.88 275.58 135.67 247.52 135.67 247.52 152.25 275.58 152.25 275.58 148.88 272.22 148.88"/><polygon class="cls-2" points="268.84 139.03 268.84 135.67 257.53 135.67 257.53 127.72 265.48 127.72 265.48 139.03 268.84 139.03 268.84 135.67 268.84 139.03 272.2 139.03 272.2 121 250.81 121 250.81 142.39 272.2 142.39 272.2 139.03 268.84 139.03"/><path class="cls-5" d="M4,513.67H281.34V491.11l-1.18-101.47s4.56-37.23-36.65-20-98.46,45.88-98.46,45.88L21.45,465.36,3.39,489.76Z"/><path class="cls-2" d="M4,513.67V517H284.7V491.08L283.52,389.6l-3.36,0,3.34.41a32.54,32.54,0,0,0,.17-3.52,37.92,37.92,0,0,0-.59-6.75,28.91,28.91,0,0,0-1.78-6,19.46,19.46,0,0,0-6.55-8.39,18.45,18.45,0,0,0-5.53-2.67,24.23,24.23,0,0,0-7-1c-5.46,0-12,1.46-20,4.81-20.7,8.65-45.34,20.14-64.83,29.47s-33.82,16.5-33.83,16.51l1.5,3-1.26-3.11L19.31,462.6,0,488.69.76,517H4v-3.36l3.36-.09-.61-22.75,16.81-22.71,122.84-49.54.13-.06.64-.32c3.21-1.6,18-8.95,36.78-17.91s41.6-19.52,60.83-27.56c7.45-3.12,13.18-4.29,17.41-4.29a14.88,14.88,0,0,1,7.95,1.94,11.37,11.37,0,0,1,3.42,3.23,18.13,18.13,0,0,1,2.72,6.6,30.31,30.31,0,0,1,.64,6.32c0,.86,0,1.56-.07,2,0,.23,0,.41,0,.53v.14l.95.11-.95-.11h0l.95.11-.95-.11,0,.22L278,491.12v19.19H4v3.36l3.36-.09Z"/><path class="cls-5" d="M180.8,435.54,231,455.41S254.32,437,271.35,416s6.67-34.36,1.13-36.34c-10.36-3.69-28.1,4.26-28.1,4.26L39.65,479.54,230,477.2"/><path class="cls-2" d="M179.56,438.67l52.05,20.58,1.52-1.2s5.92-4.69,13.94-12a266.48,266.48,0,0,0,26.89-28,50.9,50.9,0,0,0,7.8-12.76,29.56,29.56,0,0,0,2.31-11.06,21.32,21.32,0,0,0-3.45-11.86,17.65,17.65,0,0,0-3.31-3.74,12.32,12.32,0,0,0-3.7-2.19,22.53,22.53,0,0,0-7.6-1.17,43,43,0,0,0-8.22.88A77.3,77.3,0,0,0,243,380.81h0L24.11,483.09,230,480.56l-.08-6.72L55.19,476l190.62-89.06-1.43-3.05,1.38,3.07h0a69.14,69.14,0,0,1,6.9-2.54A47.57,47.57,0,0,1,266,382a15.85,15.85,0,0,1,5.35.78,5.92,5.92,0,0,1,1.63,1,11.86,11.86,0,0,1,2.94,3.92,14.91,14.91,0,0,1,1.41,6.53,22.75,22.75,0,0,1-1.81,8.54,43.9,43.9,0,0,1-6.79,11,261.73,261.73,0,0,1-26.19,27.24c-3.94,3.58-7.35,6.52-9.77,8.55-1.21,1-2.17,1.81-2.83,2.34l-.75.61-.19.15-.06,0,2.09,2.63,1.24-3.12L182,432.42l-2.48,6.25Z"/><path class="cls-5" d="M3.39,489.76l48.54-65.57s28.67-35.77,56.49-25,36.63,16.3,36.63,16.3"/><path class="cls-2" d="M6.09,491.76l48.54-65.57-2.7-2,2.62,2.1-.31-.25.31.25h0l-.31-.25.31.25A95.87,95.87,0,0,1,68,413.15a69.4,69.4,0,0,1,13.8-8.76,37.41,37.41,0,0,1,15.66-3.85,26.66,26.66,0,0,1,9.7,1.8c13.84,5.37,22.92,9.41,28.51,12.1,2.8,1.34,4.72,2.34,5.92,3,.61.32,1,.57,1.3.72l.28.17.06,0h0l.82-1.32-.82,1.31h0l.82-1.32-.82,1.31,3.56-5.69c-.25-.16-9.24-5.75-37.2-16.59a33.39,33.39,0,0,0-12.13-2.26,44.08,44.08,0,0,0-18.64,4.54,84.69,84.69,0,0,0-21.12,14.83,94.76,94.76,0,0,0-8.43,8.9l-.05.05L.69,487.76l5.4,4Z"/><path class="cls-5" d="M269.79,364.53c-13.1-3.08-63.87,20.52-63.87,20.52L44,463.84"/><path class="cls-2" d="M270.56,361.26a16,16,0,0,0-3.58-.37,41.35,41.35,0,0,0-8,1,140.41,140.41,0,0,0-17,4.9C223.86,373,204.55,382,204.5,382h0L42.53,460.82l2.94,6,161.92-78.79-1.47-3,1.41,3,.12,0c1.28-.6,12.52-5.76,25.34-10.74,6.4-2.5,13.21-4.95,19.32-6.75,3-.91,5.93-1.65,8.48-2.16a33.45,33.45,0,0,1,6.39-.77,8.16,8.16,0,0,1,2,.19l1.54-6.55Z"/><rect class="cls-5" x="4.03" y="491.11" width="277.31" height="22.57"/><polygon class="cls-2" points="281.34 513.67 281.34 510.31 7.39 510.31 7.39 494.47 277.98 494.47 277.98 513.67 281.34 513.67 281.34 510.31 281.34 513.67 284.7 513.67 284.7 487.75 0.67 487.75 0.67 517.03 284.7 517.03 284.7 513.67 281.34 513.67"/><polygon class="cls-6" points="341.57 292.63 341.57 512.84 252.44 512.84 272.03 482.47 272.03 292.63 341.57 292.63"/><polygon class="cls-2" points="341.57 292.63 338.21 292.63 338.21 509.48 258.61 509.48 275.39 483.46 275.39 295.99 341.57 295.99 341.57 292.63 338.21 292.63 341.57 292.63 341.57 289.27 268.67 289.27 268.67 481.48 246.28 516.2 344.93 516.2 344.93 289.27 341.57 289.27 341.57 292.63"/><polygon class="cls-6" points="326.81 292.63 313.83 209.6 308.29 193 302.76 209.6 289.77 292.63 326.81 292.63"/><polygon class="cls-2" points="326.81 292.63 330.13 292.11 317.1 208.81 308.29 182.38 299.48 208.81 285.84 295.99 330.74 295.99 330.13 292.11 326.81 292.63 326.81 289.27 293.7 289.27 306.03 210.4 308.29 203.63 310.55 210.4 323.49 293.15 326.81 292.63 326.81 289.27 326.81 292.63"/><polyline class="cls-2" points="290.15 458.2 290.15 444.86 283.43 444.86 283.43 458.2"/><polyline class="cls-2" points="290.15 358.14 290.15 344.8 283.43 344.8 283.43 358.14"/><polyline class="cls-2" points="322.37 358.14 322.37 344.8 315.65 344.8 315.65 358.14"/><polyline class="cls-2" points="274.02 393.57 339.48 393.57 339.48 386.85 274.02 386.85"/><polyline class="cls-2" points="274.02 470.36 339.48 470.36 339.48 463.64 274.02 463.64"/><rect class="cls-7" x="621.31" y="267.22" width="282.09" height="246.56"/><polygon class="cls-2" points="621.31 513.77 621.31 517.13 906.76 517.13 906.76 263.86 617.95 263.86 617.95 517.13 621.31 517.13 621.31 513.77 624.67 513.77 624.67 270.58 900.04 270.58 900.04 510.41 621.31 510.41 621.31 513.77 624.67 513.77 621.31 513.77"/><rect class="cls-7" x="621.31" y="267.22" width="282.09" height="42.69"/><polygon class="cls-2" points="903.4 309.9 903.4 306.54 624.67 306.54 624.67 270.58 900.04 270.58 900.04 309.9 903.4 309.9 903.4 306.54 903.4 309.9 906.76 309.9 906.76 263.86 617.95 263.86 617.95 313.26 906.76 313.26 906.76 309.9 903.4 309.9"/><rect class="cls-7" x="847.74" y="244.5" width="55.66" height="22.72"/><polygon class="cls-2" points="903.4 244.5 903.4 241.14 844.38 241.14 844.38 270.58 906.76 270.58 906.76 241.14 903.4 241.14 903.4 244.5 900.04 244.5 900.04 263.86 851.1 263.86 851.1 247.86 903.4 247.86 903.4 244.5 900.04 244.5 903.4 244.5"/><polyline class="cls-2" points="840.73 320.72 840.73 333.47 847.46 333.47 847.46 320.72"/><polyline class="cls-2" points="857.75 320.72 857.75 333.47 864.48 333.47 864.48 320.72"/><polyline class="cls-2" points="871.99 320.72 871.99 333.47 878.72 333.47 878.72 320.72"/><polyline class="cls-2" points="824.03 320.72 824.03 333.47 830.75 333.47 830.75 320.72"/><polyline class="cls-2" points="806.69 320.72 806.69 333.47 813.41 333.47 813.41 320.72"/><polyline class="cls-2" points="840.73 339.65 840.73 352.4 847.46 352.4 847.46 339.65"/><polyline class="cls-2" points="857.75 339.65 857.75 352.4 864.48 352.4 864.48 339.65"/><polyline class="cls-2" points="871.99 339.65 871.99 352.4 878.72 352.4 878.72 339.65"/><polyline class="cls-2" points="824.03 339.65 824.03 352.4 830.75 352.4 830.75 339.65"/><polyline class="cls-2" points="806.69 339.65 806.69 352.4 813.41 352.4 813.41 339.65"/><polyline class="cls-2" points="840.73 359.26 840.73 372.02 847.46 372.02 847.46 359.26"/><polyline class="cls-2" points="857.75 359.26 857.75 372.02 864.48 372.02 864.48 359.26"/><polyline class="cls-2" points="871.99 359.26 871.99 372.02 878.72 372.02 878.72 359.26"/><polyline class="cls-2" points="824.03 359.26 824.03 372.02 830.75 372.02 830.75 359.26"/><polyline class="cls-2" points="806.69 359.26 806.69 372.02 813.41 372.02 813.41 359.26"/><polyline class="cls-2" points="705.49 321.14 705.49 333.9 712.21 333.9 712.21 321.14"/><polyline class="cls-2" points="722.51 321.14 722.51 333.9 729.23 333.9 729.23 321.14"/><polyline class="cls-2" points="741.35 321.14 741.35 333.9 748.07 333.9 748.07 321.14"/><polyline class="cls-2" points="688.78 321.14 688.78 333.9 695.5 333.9 695.5 321.14"/><polygon class="cls-9" points="771.66 198.84 757.66 198.84 743.66 198.84 737.79 513.75 757.66 513.75 777.52 513.75 771.66 198.84"/><polygon class="cls-2" points="771.66 198.84 771.66 195.47 757.66 195.47 740.36 195.47 734.37 517.11 757.66 517.11 780.95 517.11 774.96 195.47 771.66 195.47 771.66 198.84 768.3 198.9 774.1 510.39 757.66 510.39 741.22 510.39 746.96 202.19 757.66 202.19 771.66 202.19 771.66 198.84 768.3 198.9 771.66 198.84"/><rect class="cls-3" x="602.02" y="425.43" width="445.27" height="88.34"/><polygon class="cls-2" points="1047.29 513.77 1047.29 510.41 605.38 510.41 605.38 428.8 1043.93 428.8 1043.93 513.77 1047.29 513.77 1047.29 510.41 1047.29 513.77 1050.65 513.77 1050.65 422.07 598.66 422.07 598.66 517.13 1050.65 517.13 1050.65 513.77 1047.29 513.77"/><polygon class="cls-3" points="952.14 399.73 859.77 399.73 824.65 399.73 794.19 399.73 697.17 399.73 602.02 425.44 794.19 425.44 824.65 425.44 824.65 425.44 859.77 425.44 1047.29 425.44 952.14 399.73"/><polygon class="cls-2" points="952.14 399.73 952.14 396.37 859.77 396.37 824.65 396.37 794.19 396.37 696.72 396.37 576.69 428.8 794.19 428.8 824.65 428.8 824.65 428.8 859.77 428.8 1072.63 428.8 952.59 396.37 952.14 396.37 952.14 399.73 951.27 402.98 1021.96 422.07 859.77 422.07 824.65 422.07 824.65 422.07 794.19 422.07 627.35 422.07 697.61 403.09 794.19 403.09 824.65 403.09 859.77 403.09 952.14 403.09 952.14 399.73 951.27 402.98 952.14 399.73"/><rect class="cls-3" x="769.94" y="422.81" width="109.35" height="90.97"/><polygon class="cls-2" points="879.29 513.77 879.29 510.41 773.3 510.41 773.3 426.17 875.93 426.17 875.93 513.77 879.29 513.77 879.29 510.41 879.29 513.77 882.65 513.77 882.65 419.45 766.58 419.45 766.58 517.13 882.65 517.13 882.65 513.77 879.29 513.77"/><polygon class="cls-3" points="846.04 497.55 824.65 497.55 803.27 497.55 783.29 513.77 824.65 513.77 866.02 513.77 846.04 497.55"/><polygon class="cls-2" points="846.04 497.55 846.04 494.19 824.65 494.19 802.07 494.19 773.83 517.13 824.65 517.13 875.48 517.13 847.24 494.19 846.04 494.19 846.04 497.55 843.93 500.15 856.55 510.41 824.65 510.41 792.76 510.41 804.46 500.91 824.65 500.91 846.04 500.91 846.04 497.55 843.93 500.15 846.04 497.55"/><polyline class="cls-2" points="602.02 467.32 1047.29 467.32 1047.29 460.6 602.02 460.6"/><polyline class="cls-2" points="602.02 500.91 1047.29 500.91 1047.29 494.19 602.02 494.19"/><path class="cls-1" d="M859.26,442.6a7.29,7.29,0,1,0-14.58,0V464h14.58Z"/><path class="cls-2" d="M859.26,442.6h3.36a10.65,10.65,0,0,0-21.3,0v24.72h21.3V442.6H855.9v18H848v-18a3.93,3.93,0,0,1,6.71-2.78,3.91,3.91,0,0,1,1.15,2.78Z"/><path class="cls-1" d="M832,442.6a7.3,7.3,0,0,0-14.59,0V464H832Z"/><path class="cls-2" d="M832,442.6h3.36a10.66,10.66,0,0,0-21.31,0v24.72h21.31V442.6h-6.73v18h-7.85v-18a3.93,3.93,0,1,1,7.85,0Z"/><path class="cls-1" d="M804.63,442.6a7.29,7.29,0,1,0-14.58,0V464h14.58Z"/><path class="cls-2" d="M804.63,442.6H808a10.65,10.65,0,0,0-21.3,0v24.72H808V442.6h-6.72v18h-7.86v-18a3.93,3.93,0,0,1,3.93-3.93,3.93,3.93,0,0,1,3.93,3.93Z"/><path class="cls-1" d="M859.26,476.18a7.29,7.29,0,1,0-14.58,0v21.37h14.58Z"/><path class="cls-2" d="M859.26,476.18h3.36a10.65,10.65,0,0,0-21.3,0v24.73h21.3V476.18H855.9v18H848v-18a3.87,3.87,0,0,1,1.15-2.77,3.93,3.93,0,0,1,6.71,2.77Z"/><path class="cls-1" d="M832,476.18a7.3,7.3,0,0,0-14.59,0v21.37H832Z"/><path class="cls-2" d="M832,476.18h3.36a10.66,10.66,0,0,0-21.31,0v24.73h21.31V476.18h-6.73v18h-7.85v-18a3.87,3.87,0,0,1,1.15-2.77,3.9,3.9,0,0,1,5.55,0,3.87,3.87,0,0,1,1.15,2.77Z"/><path class="cls-1" d="M804.63,476.18a7.29,7.29,0,1,0-14.58,0v21.37h14.58Z"/><path class="cls-2" d="M804.63,476.18H808a10.65,10.65,0,0,0-21.3,0v24.73H808V476.18h-6.72v18h-7.86v-18a3.91,3.91,0,0,1,1.15-2.77,3.91,3.91,0,0,1,5.56,0,3.87,3.87,0,0,1,1.15,2.77Z"/><polyline class="cls-2" points="736.36 437.52 736.36 457.6 743.08 457.6 743.08 437.52"/><polyline class="cls-2" points="708.11 437.52 708.11 457.6 714.83 457.6 714.83 437.52"/><polyline class="cls-2" points="681.21 437.52 681.21 457.6 687.93 457.6 687.93 437.52"/><polyline class="cls-2" points="636.96 437.52 636.96 457.6 643.68 457.6 643.68 437.52"/><polyline class="cls-2" points="736.36 473.18 736.36 493.26 743.08 493.26 743.08 473.18"/><polyline class="cls-2" points="708.11 473.18 708.11 493.26 714.83 493.26 714.83 473.18"/><polyline class="cls-2" points="681.21 473.18 681.21 493.26 687.93 493.26 687.93 473.18"/><polyline class="cls-2" points="636.96 473.18 636.96 493.26 643.68 493.26 643.68 473.18"/><polyline class="cls-2" points="886.83 437.52 886.83 457.6 893.55 457.6 893.55 437.52"/><polyline class="cls-2" points="915.08 437.52 915.08 457.6 921.8 457.6 921.8 437.52"/><polyline class="cls-2" points="941.97 437.52 941.97 457.6 948.69 457.6 948.69 437.52"/><polyline class="cls-2" points="986.23 437.52 986.23 457.6 992.95 457.6 992.95 437.52"/><polyline class="cls-2" points="886.83 473.18 886.83 493.26 893.55 493.26 893.55 473.18"/><polyline class="cls-2" points="915.08 473.18 915.08 493.26 921.8 493.26 921.8 473.18"/><polyline class="cls-2" points="941.97 473.18 941.97 493.26 948.69 493.26 948.69 473.18"/><polyline class="cls-2" points="986.23 473.18 986.23 493.26 992.95 493.26 992.95 473.18"/><polygon class="cls-9" points="1093.17 513.77 1133.59 513.77 1133.59 358.13 1087.2 358.13 1093.17 364.09 1093.17 513.77"/><polygon class="cls-2" points="1093.17 513.77 1093.17 517.13 1136.95 517.13 1136.95 354.77 1079.09 354.77 1089.81 365.48 1089.81 517.13 1093.17 517.13 1093.17 513.77 1096.53 513.77 1096.53 362.7 1095.32 361.49 1130.23 361.49 1130.23 510.41 1093.17 510.41 1093.17 513.77 1096.53 513.77 1093.17 513.77"/><polygon class="cls-9" points="1118.7 442.97 1118.7 358.13 1100.2 316.44 1081.59 358.13 1093.17 417.44 1118.7 442.97"/><polygon class="cls-2" points="1118.7 442.97 1122.06 442.97 1122.06 357.42 1100.21 308.18 1078.09 357.73 1090.07 419.08 1122.06 451.08 1122.06 442.97 1118.7 442.97 1121.08 440.59 1096.27 415.78 1085.1 358.53 1100.19 324.71 1115.34 358.84 1115.34 442.97 1118.7 442.97 1121.08 440.59 1118.7 442.97"/><polygon class="cls-9" points="1092.92 363.84 1020.4 291.33 947.64 364.09 947.64 513.77 1093.17 513.77 1093.17 364.09 1092.92 363.84"/><polygon class="cls-2" points="1092.92 363.84 1095.29 361.47 1020.4 286.57 944.28 362.7 944.28 517.13 1096.53 517.13 1096.53 362.7 1095.3 361.47 1095.29 361.47 1092.92 363.84 1090.54 366.21 1090.79 366.47 1093.17 364.09 1089.81 364.09 1089.81 510.41 951 510.41 951 365.48 1020.4 296.08 1090.54 366.22 1090.54 366.21 1092.92 363.84"/><polygon class="cls-9" points="1050.97 450.57 1020.4 420.01 989.73 450.68 989.73 513.77 1051.07 513.77 1051.07 450.68 1050.97 450.57"/><polygon class="cls-2" points="1050.97 450.57 1053.35 448.2 1020.4 415.26 986.37 449.29 986.37 517.13 1054.43 517.13 1054.43 449.29 1053.35 448.2 1053.35 448.2 1050.97 450.57 1048.59 452.95 1048.69 453.05 1051.07 450.68 1047.71 450.68 1047.71 510.41 993.09 510.41 993.09 452.07 1020.4 424.76 1048.59 452.95 1048.59 452.95 1050.97 450.57"/><polygon class="cls-9" points="982.87 267.22 982.87 328.86 947.64 364.09 947.64 417.44 916.8 448.27 916.8 389.97 921.92 384.85 921.92 267.22 982.87 267.22"/><polygon class="cls-2" points="982.87 267.22 979.51 267.22 979.51 327.47 944.28 362.7 944.28 416.04 920.16 440.16 920.16 391.37 925.28 386.25 925.28 270.58 982.87 270.58 982.87 267.22 979.51 267.22 982.87 267.22 982.87 263.86 918.56 263.86 918.56 383.46 913.44 388.58 913.44 456.38 951 418.83 951 365.49 986.23 330.25 986.23 263.86 982.87 263.86 982.87 267.22"/><polygon class="cls-8" points="986.17 267.42 918.63 267.42 951.21 103.94 986.17 267.42"/><polygon class="cls-2" points="986.17 267.42 986.17 264.06 922.72 264.06 951.33 120.56 982.88 268.12 986.17 267.42 986.17 264.06 986.17 267.42 989.45 266.72 954.5 103.24 947.91 103.28 915.33 266.76 918.63 270.78 986.17 270.78 989.45 266.72 986.17 267.42"/><path class="cls-7" d="M1036.6,466.31a16.2,16.2,0,0,0-32.4,0v47.46h32.4Z"/><path class="cls-2" d="M1036.6,466.31H1040a19.56,19.56,0,0,0-39.12,0v50.82H1040V466.31h-6.72v44.1h-25.68v-44.1a12.84,12.84,0,1,1,25.68,0Z"/><polygon class="cls-9" points="1093.17 417.44 1122.61 446.88 1122.61 463.05 1133.59 474.03 1133.59 513.77 1093.17 513.77 1093.17 417.44"/><polygon class="cls-2" points="1093.17 417.44 1090.79 419.81 1119.25 448.27 1119.25 464.44 1130.23 475.42 1130.23 510.41 1096.53 510.41 1096.53 417.44 1093.17 417.44 1090.79 419.81 1093.17 417.44 1089.81 417.44 1089.81 517.13 1136.95 517.13 1136.95 472.64 1125.97 461.66 1125.97 445.49 1089.81 409.32 1089.81 417.44 1093.17 417.44"/><polygon class="cls-9" points="947.64 417.44 908.58 456.5 908.58 513.77 947.64 513.77 947.64 417.44"/><polygon class="cls-2" points="947.64 417.44 945.26 415.06 905.22 455.11 905.22 517.13 951 517.13 951 409.32 945.26 415.06 947.64 417.44 944.28 417.44 944.28 510.41 911.94 510.41 911.94 457.89 950.01 419.81 947.64 417.44 944.28 417.44 947.64 417.44"/><circle class="cls-3" cx="1020.4" cy="364.09" r="22.02"/><path class="cls-2" d="M1042.43,364.09h-3.36a18.68,18.68,0,1,1-5.47-13.19,18.64,18.64,0,0,1,5.47,13.19h6.72a25.4,25.4,0,1,0-7.44,18,25.34,25.34,0,0,0,7.44-18Z"/><rect class="cls-7" x="644.97" y="358.95" width="35.55" height="14.07"/><polygon class="cls-2" points="680.52 358.95 680.52 355.59 641.61 355.59 641.61 376.37 683.88 376.37 683.88 355.59 680.52 355.59 680.52 358.95 677.16 358.95 677.16 369.65 648.33 369.65 648.33 362.31 680.52 362.31 680.52 358.95 677.16 358.95 680.52 358.95"/><rect class="cls-8" x="648.87" y="348.68" width="27.75" height="10.26"/><polygon class="cls-2" points="676.62 348.68 676.62 345.32 645.51 345.32 645.51 362.31 679.98 362.31 679.98 345.32 676.62 345.32 676.62 348.68 673.26 348.68 673.26 355.59 652.23 355.59 652.23 352.04 676.62 352.04 676.62 348.68 673.26 348.68 676.62 348.68"/><path class="cls-8" d="M679.9,348.68H645.59a17.16,17.16,0,0,1,34.31,0Z"/><path class="cls-2" d="M679.9,348.68v-3.36H645.59v3.36H649a13.8,13.8,0,0,1,27.59,0h3.36v0h3.36a20.52,20.52,0,0,0-41,0V352h41v-3.36Z"/><rect class="cls-9" x="550.26" y="422.82" width="224.97" height="90.96"/><polygon class="cls-2" points="775.23 513.77 775.23 510.41 553.62 510.41 553.62 426.18 771.87 426.18 771.87 513.77 775.23 513.77 775.23 510.41 775.23 513.77 778.59 513.77 778.59 419.46 546.9 419.46 546.9 517.13 778.59 517.13 778.59 513.77 775.23 513.77"/><polygon class="cls-7" points="739.02 373.77 701.66 373.77 670.02 373.77 655.47 373.77 629.24 373.77 586.47 373.77 550.26 391.45 550.26 422.82 629.24 422.82 655.47 422.82 670.02 422.82 701.66 422.82 775.23 422.82 775.23 391.45 739.02 373.77"/><polygon class="cls-2" points="739.02 373.77 739.02 370.41 701.66 370.41 670.02 370.41 655.47 370.41 629.24 370.41 585.7 370.41 546.9 389.35 546.9 426.18 629.24 426.18 655.47 426.18 670.02 426.18 701.66 426.18 778.59 426.18 778.59 389.35 739.79 370.41 739.02 370.41 739.02 373.77 737.54 376.79 771.87 393.55 771.87 419.46 701.66 419.46 670.02 419.46 655.47 419.46 629.24 419.46 553.62 419.46 553.62 393.55 587.25 377.13 629.24 377.13 655.47 377.13 670.02 377.13 701.66 377.13 739.02 377.13 739.02 373.77 737.54 376.79 739.02 373.77"/><rect class="cls-9" x="621.33" y="358.95" width="12.69" height="14.83"/><polygon class="cls-2" points="634.02 373.77 634.02 370.41 624.69 370.41 624.69 362.31 630.66 362.31 630.66 373.77 634.02 373.77 634.02 370.41 634.02 373.77 637.38 373.77 637.38 355.59 617.97 355.59 617.97 377.13 637.38 377.13 637.38 373.77 634.02 373.77"/><rect class="cls-9" x="691.9" y="340.41" width="12.26" height="33.36"/><polygon class="cls-2" points="704.16 373.77 704.16 370.41 695.26 370.41 695.26 343.77 700.8 343.77 700.8 373.77 704.16 373.77 704.16 370.41 704.16 373.77 707.52 373.77 707.52 337.05 688.54 337.05 688.54 377.13 707.52 377.13 707.52 373.77 704.16 373.77"/><polyline class="cls-2" points="551.69 453.83 775.23 453.83 775.23 447.11 551.69 447.11"/><rect class="cls-9" x="624.39" y="394.02" width="76.7" height="119.75"/><polygon class="cls-2" points="701.09 394.02 697.73 394.02 697.73 510.41 627.75 510.41 627.75 397.38 701.09 397.38 701.09 394.02 697.73 394.02 701.09 394.02 701.09 390.66 621.03 390.66 621.03 517.13 704.45 517.13 704.45 390.66 701.09 390.66 701.09 394.02"/><polyline class="cls-2" points="624.39 417.53 701.1 417.53 701.1 410.81 624.39 410.81"/><polyline class="cls-2" points="644.97 352.04 680.52 352.04 680.52 345.32 644.97 345.32"/><polyline class="cls-2" points="639 397.8 639 410.21 645.72 410.21 645.72 397.8"/><polyline class="cls-2" points="639 428.52 639 440.92 645.72 440.92 645.72 428.52"/><polyline class="cls-2" points="673.26 397.8 673.26 410.21 679.98 410.21 679.98 397.8"/><polyline class="cls-2" points="673.26 428.52 673.26 440.92 679.98 440.92 679.98 428.52"/><polyline class="cls-2" points="717.93 428.52 717.93 440.92 724.65 440.92 724.65 428.52"/><polyline class="cls-2" points="752.19 428.52 752.19 440.92 758.92 440.92 758.92 428.52"/><polyline class="cls-2" points="564.39 428.52 564.39 440.92 571.11 440.92 571.11 428.52"/><polyline class="cls-2" points="598.65 428.52 598.65 440.92 605.37 440.92 605.37 428.52"/><polyline class="cls-2" points="673.26 474.5 673.26 486.9 679.98 486.9 679.98 474.5"/><polyline class="cls-2" points="717.93 474.5 717.93 486.9 724.65 486.9 724.65 474.5"/><polyline class="cls-2" points="752.19 474.5 752.19 486.9 758.92 486.9 758.92 474.5"/><polyline class="cls-2" points="564.39 474.5 564.39 486.9 571.11 486.9 571.11 474.5"/><polyline class="cls-2" points="598.65 474.5 598.65 486.9 605.37 486.9 605.37 474.5"/><path class="cls-1" d="M656.64,483.24a10.42,10.42,0,1,0-20.84,0v30.53h20.84Z"/><path class="cls-2" d="M656.64,483.24H660a13.78,13.78,0,1,0-27.56,0v33.89H660V483.24h-6.72v27.17H639.16V483.24a7.06,7.06,0,0,1,14.12,0Z"/><polygon class="cls-3" points="704.31 394.01 621.18 394.01 662.75 354.27 704.31 394.01"/><polygon class="cls-2" points="704.31 394.01 704.31 390.65 629.56 390.65 662.75 358.92 701.98 396.44 704.31 394.01 704.31 390.65 704.31 394.01 706.63 391.58 665.07 351.84 660.42 351.84 618.86 391.58 621.18 397.37 704.31 397.37 706.63 391.58 704.31 394.01"/><rect class="cls-4" x="873.27" y="387.27" width="97.36" height="126.49"/><polygon class="cls-2" points="970.63 513.76 970.63 510.4 876.63 510.4 876.63 390.63 967.26 390.63 967.27 513.76 970.63 513.76 970.63 510.4 970.63 513.76 973.99 513.76 973.99 383.9 869.91 383.9 869.91 517.12 973.99 517.12 973.99 513.76 970.63 513.76"/><path class="cls-4" d="M966.36,379c0-.1,0-.2,0-.31a9,9,0,0,0-5.43-8.27h0l-5.63-5.81V344H888.59v20.64L883,370.4h0a9,9,0,0,0-5.43,8.27,3,3,0,0,0,0,.31l-1.78,2.81v5.87l10.47,0h9.84v0h51.75v0h9.84l10.47,0v-5.87Z"/><path class="cls-2" d="M966.36,379l3.35.11-1.19,0,1.19.07v0l-1.19,0,1.19.07h0s0-.17,0-.45a12.36,12.36,0,0,0-7.45-11.35l-1.34,3.08,2.88-1.74h0l-.19-.32-5-5.1V340.59H885.22v22.64l-4.94,5.1-.2.33L883,370.4l-1.34-3.08a12.4,12.4,0,0,0-7.45,11.35,2.92,2.92,0,0,0,0,.38v.06h0l1.24-.06-1.24,0v0l1.24-.06-1.24,0,3.36-.11-2.85-1.79-2.29,3.63V391l13.82,0v-3.36l-.12,3.36,0-1.1-.06,1.09h0l0-1.1-.06,1.09H887v0h0v0l-.07-1.25,0,1.25h0l-.07-1.25,0,1.25-.11-3.36V391l12.67,0v0h48.32v-3.36l-3.36-.06v0l-.07,3.43,12.67,0v-3.36l-.11,3.36,0-.81-.05.81h0l0-.81-.05.81h.88l-.06-1.1,0,1.11h0l-.06-1.1,0,1.11-.12-3.36V391l13.82,0v-10.2l-2.29-3.63L966.36,379l3.35.11-3.35-.11-2.85,1.79,1.26,2v1.54l-7.17,0h-.33l.08,1.38v-1.38h-.08l.08,1.38v.36l.08-1.74h-.08v1.74l.08-1.74,0,.84.05-.84h0l0,.84.05-.84h-9.63v3.36l3.36.07v0l.06-3.42H892.65v0h-6.19l.08,1.75v-1.75h-.08l.08,1.75V386l.08-1.63h-.08V386l.08-1.63,0,.68,0-.68h0l0,.68,0-.68h-.34l-7.16,0v-1.54l1.81-2.86,0-1c0-.15,0-.24,0-.27h0l-1.43.08h1.43v-.08l-1.43.08h1.43a5.59,5.59,0,0,1,1-3.13,5.68,5.68,0,0,1,2.46-2.06l1-.43.36-.59L892,366V347.31h60V366l6.58,6.79,2.41-2.34-2.87,1.74h0l.55.91,1,.43a5.68,5.68,0,0,1,2.46,2.06,5.59,5.59,0,0,1,1,3.13h1.7l-1.7-.08v.08h1.7l-1.7-.08.72,0-.72,0h0l.72,0-.72,0a2.5,2.5,0,0,0,0,.27l0,1,.55.87Z"/><path class="cls-4" d="M940.09,339.69a5.51,5.51,0,0,0,.17-1.36,5.61,5.61,0,0,0-5-5.58l-3.52-5.06v-7H912.16v7l-3.52,5.06a5.61,5.61,0,0,0-5,5.58,5.51,5.51,0,0,0,.18,1.36l-3,4.26h42.21Z"/><path class="cls-2" d="M940.09,339.69l3.26.81a9.2,9.2,0,0,0,.27-2.17,9,9,0,0,0-8-8.92l-.37,3.34,2.76-1.92-2.92-4.19v-9.29H908.8v9.29l-2.92,4.19,2.76,1.92-.36-3.34a9,9,0,0,0-8,8.92,9.2,9.2,0,0,0,.27,2.17l3.27-.81-2.76-1.92-6.65,9.54h55.09l-6.64-9.54-2.76,1.92,3.26.81-3.26-.81-2.76,1.92,3,4.26,2.76-1.92v-3.36H900.84V344l2.76,1.92,3.83-5.51-.36-1.48a2.35,2.35,0,0,1-.08-.55,2.25,2.25,0,0,1,2-2.24l1.52-.16,5-7.18v-4.67h12.85v4.67l5,7.18,1.52.16a2.28,2.28,0,0,1,1.43.73,2.25,2.25,0,0,1,.58,1.51,2.3,2.3,0,0,1-.07.55l-.37,1.48.87,1.25Z"/><polyline class="cls-2" points="918.59 330.73 918.59 338.9 925.31 338.9 925.31 330.73"/><polyline class="cls-2" points="918.59 354.55 918.59 362.72 925.31 362.72 925.31 354.55"/><polyline class="cls-2" points="935.61 354.55 935.61 362.72 942.33 362.72 942.33 354.55"/><polyline class="cls-2" points="901.88 354.55 901.88 362.72 908.6 362.72 908.6 354.55"/><polyline class="cls-2" points="918.59 396.53 918.59 409.28 925.31 409.28 925.31 396.53"/><polyline class="cls-2" points="935.61 396.53 935.61 409.28 942.33 409.28 942.33 396.53"/><polyline class="cls-2" points="954.44 396.53 954.44 409.28 961.16 409.28 961.16 396.53"/><polyline class="cls-2" points="901.88 396.53 901.88 409.28 908.6 409.28 908.6 396.53"/><polyline class="cls-2" points="884.54 396.53 884.54 409.28 891.26 409.28 891.26 396.53"/><polyline class="cls-2" points="918.59 423.13 918.59 435.88 925.31 435.88 925.31 423.13"/><polyline class="cls-2" points="935.61 423.13 935.61 435.88 942.33 435.88 942.33 423.13"/><polyline class="cls-2" points="954.44 423.13 954.44 435.88 961.16 435.88 961.16 423.13"/><polyline class="cls-2" points="901.88 423.13 901.88 435.88 908.6 435.88 908.6 423.13"/><polyline class="cls-2" points="884.54 423.13 884.54 435.88 891.26 435.88 891.26 423.13"/><polyline class="cls-2" points="918.59 453.06 918.59 465.81 925.31 465.81 925.31 453.06"/><polyline class="cls-2" points="935.61 453.06 935.61 465.81 942.33 465.81 942.33 453.06"/><polyline class="cls-2" points="954.44 453.06 954.44 465.81 961.16 465.81 961.16 453.06"/><polyline class="cls-2" points="901.88 453.06 901.88 465.81 908.6 465.81 908.6 453.06"/><polyline class="cls-2" points="884.54 453.06 884.54 465.81 891.26 465.81 891.26 453.06"/><path class="cls-1" d="M929.75,490.81a7.83,7.83,0,0,0-15.66,0v22.94h15.66Z"/><path class="cls-2" d="M929.75,490.81h3.36a11.19,11.19,0,1,0-22.38,0v26.3h22.38v-26.3h-6.72v19.58h-8.94V490.81a4.47,4.47,0,0,1,7.63-3.16,4.48,4.48,0,0,1,1.31,3.16Z"/></g></g></svg>