<svg xmlns="http://www.w3.org/2000/svg" viewBox="0 0 244.01 65"><defs><style>.cls-1{fill:#5266a0;}.cls-2{fill:#fff;}</style></defs><g id="Warstwa_2" data-name="Warstwa 2"><g id="Warstwa_1-2" data-name="Warstwa 1"><rect class="cls-1" x="0.01" width="244" height="65"/><path class="cls-2" d="M65,32.5A32.5,32.5,0,1,0,24.65,64V42.43H18V32.5h6.7V28.22c0-11.06,5-16.19,15.86-16.19a36.12,36.12,0,0,1,7.07.81v9c-.77-.08-2.1-.12-3.75-.12-5.33,0-7.39,2-7.39,7.27V32.5H47.05l-1.82,9.93H36.44V64.76A32.5,32.5,0,0,0,65,32.5Z"/><path class="cls-2" d="M178.65,24a1.33,1.33,0,0,0,0-1.84,1.23,1.23,0,0,0-.93-.38,1.2,1.2,0,0,0-.91.38,1.3,1.3,0,0,0,0,1.84,1.24,1.24,0,0,0,.91.38A1.27,1.27,0,0,0,178.65,24Zm0,7a1.24,1.24,0,0,0,.37-.92,1.28,1.28,0,0,0-1.3-1.3,1.24,1.24,0,0,0-.91.38,1.28,1.28,0,0,0-.38.92,1.3,1.3,0,0,0,1.29,1.3A1.27,1.27,0,0,0,178.65,31.05Zm-9.94.22V27.83l1-1,3.51,4.4h2.41l-4.43-5.58,4.15-4.22h-2.43l-4.18,4.19h0V17.45h-2V31.27Zm-10.36-2.39a3.92,3.92,0,0,1-.72-2.49,4,4,0,0,1,.73-2.52,2.56,2.56,0,0,1,4,0,4,4,0,0,1,.73,2.51,4,4,0,0,1-.73,2.49,2.58,2.58,0,0,1-4,0Zm4.44,2a4.4,4.4,0,0,0,1.64-1.8,5.75,5.75,0,0,0,.59-2.65,5.91,5.91,0,0,0-.59-2.68,4.46,4.46,0,0,0-1.64-1.8,4.9,4.9,0,0,0-4.91,0,4.42,4.42,0,0,0-1.65,1.8,5.91,5.91,0,0,0-.59,2.68,5.75,5.75,0,0,0,.59,2.65,4.36,4.36,0,0,0,1.65,1.8,5,5,0,0,0,4.91,0Zm-15.07-2a3.92,3.92,0,0,1-.72-2.49,4,4,0,0,1,.72-2.52,2.4,2.4,0,0,1,2-.93,2.37,2.37,0,0,1,2,.94,4,4,0,0,1,.72,2.51,4,4,0,0,1-.72,2.49,2.58,2.58,0,0,1-4,0Zm4.44,2A4.4,4.4,0,0,0,153.8,29a5.75,5.75,0,0,0,.59-2.65,5.91,5.91,0,0,0-.59-2.68,4.46,4.46,0,0,0-1.64-1.8,4.9,4.9,0,0,0-4.91,0,4.42,4.42,0,0,0-1.65,1.8,5.91,5.91,0,0,0-.59,2.68A5.75,5.75,0,0,0,145.6,29a4.36,4.36,0,0,0,1.65,1.8,5,5,0,0,0,4.91,0Zm-15-2a3.86,3.86,0,0,1-.75-2.48,3.84,3.84,0,0,1,.75-2.48,2.43,2.43,0,0,1,2-.93,2.37,2.37,0,0,1,1.92.88,3.78,3.78,0,0,1,.74,2.53,3.81,3.81,0,0,1-.74,2.54,2.39,2.39,0,0,1-1.92.87A2.43,2.43,0,0,1,137.12,28.85Zm4.63,2A4.25,4.25,0,0,0,143.24,29a6.31,6.31,0,0,0,.53-2.66,6.23,6.23,0,0,0-.54-2.66,4.25,4.25,0,0,0-1.49-1.79,3.9,3.9,0,0,0-2.21-.64,3.79,3.79,0,0,0-1.75.4,3.05,3.05,0,0,0-1.26,1.21h0V17.45h-1.95V31.27h1.92V29.78h0a3.13,3.13,0,0,0,1.28,1.27,3.68,3.68,0,0,0,1.75.42A3.88,3.88,0,0,0,141.75,30.82Zm-15.26-7.25a2.73,2.73,0,0,1,3.63,0,2.88,2.88,0,0,1,.83,1.85h-5.28A2.87,2.87,0,0,1,126.49,23.57Zm3.91,7.52A4.13,4.13,0,0,0,131.93,30a3.63,3.63,0,0,0,.78-1.67h-1.88a2.14,2.14,0,0,1-.83,1.14,2.69,2.69,0,0,1-1.59.43,2.5,2.5,0,0,1-2-.82,3.38,3.38,0,0,1-.76-2.14h7.21v-.53a6,6,0,0,0-.57-2.66,4.38,4.38,0,0,0-1.59-1.81,4.44,4.44,0,0,0-2.42-.65,4.28,4.28,0,0,0-2.36.66,4.57,4.57,0,0,0-1.62,1.83,5.8,5.8,0,0,0-.58,2.65,6,6,0,0,0,.56,2.63,4.38,4.38,0,0,0,1.61,1.82,4.65,4.65,0,0,0,2.5.65A4.91,4.91,0,0,0,130.4,31.09ZM120.35,31a4.07,4.07,0,0,0,1.5-1.28,3.79,3.79,0,0,0,.69-1.84h-2a2.58,2.58,0,0,1-.75,1.38,2.19,2.19,0,0,1-1.56.52,2.37,2.37,0,0,1-2-.93,4,4,0,0,1-.71-2.49,4,4,0,0,1,.71-2.51,2.35,2.35,0,0,1,2-.94,2.31,2.31,0,0,1,1.59.53,2.27,2.27,0,0,1,.74,1.35h2a3.92,3.92,0,0,0-.69-1.84,4.11,4.11,0,0,0-1.5-1.27,4.76,4.76,0,0,0-2.1-.46,4.42,4.42,0,0,0-4.08,2.47,5.83,5.83,0,0,0-.59,2.67,5.77,5.77,0,0,0,.58,2.65,4.4,4.4,0,0,0,1.64,1.8,4.51,4.51,0,0,0,2.45.65A4.63,4.63,0,0,0,120.35,31ZM106,29.5a1.15,1.15,0,0,1-.49-1,1.13,1.13,0,0,1,.61-1.08,4.31,4.31,0,0,1,1.42-.45l1.46-.24a2.26,2.26,0,0,0,.88-.28v1.15a2.25,2.25,0,0,1-.61,1.57,2.48,2.48,0,0,1-1.92.67A2.33,2.33,0,0,1,106,29.5ZM108.92,31a3.14,3.14,0,0,0,1-1.07h0v1.39h1.93V24.55a3,3,0,0,0-1-2.38,4.28,4.28,0,0,0-2.85-.89,4.59,4.59,0,0,0-3,.89,3,3,0,0,0-1.18,2.29h1.92a1.54,1.54,0,0,1,.65-1.13,2.5,2.5,0,0,1,1.53-.45,2.18,2.18,0,0,1,1.46.46,1.52,1.52,0,0,1,.51,1.18v.08a.56.56,0,0,1-.22.51,2,2,0,0,1-.77.22l-1.45.19a11.8,11.8,0,0,0-1.88.38,3.08,3.08,0,0,0-1.44.86,2.43,2.43,0,0,0-.55,1.71,2.63,2.63,0,0,0,1,2.21,3.85,3.85,0,0,0,2.43.75A3.27,3.27,0,0,0,108.92,31Zm-8.06-9.48V20.2a1.25,1.25,0,0,1,.25-.88,1.23,1.23,0,0,1,.88-.26h.86V17.45h-1.16a3,3,0,0,0-2.06.64,2.27,2.27,0,0,0-.73,1.8v1.58H97.15v1.62H98.9v8.18h2V23.09h2V21.47Z"/><path class="cls-2" d="M180.77,51.71a3.87,3.87,0,0,1-.74-2.54,3.84,3.84,0,0,1,.74-2.53,2.37,2.37,0,0,1,1.92-.88,2.43,2.43,0,0,1,2,.93,4.48,4.48,0,0,1,0,5,2.43,2.43,0,0,1-2,.93A2.39,2.39,0,0,1,180.77,51.71ZM184,53.85a3.21,3.21,0,0,0,1.29-1.27h0v1.49h1.92V40.25h-2v5.44h0A3,3,0,0,0,184,44.48a3.79,3.79,0,0,0-1.75-.4,3.83,3.83,0,0,0-2.21.64,4.25,4.25,0,0,0-1.49,1.79,6.19,6.19,0,0,0-.54,2.66,6.31,6.31,0,0,0,.53,2.66,4.32,4.32,0,0,0,1.49,1.79,3.9,3.9,0,0,0,2.23.65A3.68,3.68,0,0,0,184,53.85Zm-9.85.22V48.28a2.34,2.34,0,0,1,.59-1.77,2,2,0,0,1,1.41-.58,5.9,5.9,0,0,1,.63,0l.4.06V44.2l-.31,0-.4,0a2.39,2.39,0,0,0-1.52.45,2.55,2.55,0,0,0-.85,1.26h0V44.27h-1.87v9.8Zm-10-1.78a1.13,1.13,0,0,1-.5-1,1.15,1.15,0,0,1,.61-1.08,4.38,4.38,0,0,1,1.42-.45l1.47-.24a2.26,2.26,0,0,0,.88-.28v1.15a2.21,2.21,0,0,1-.62,1.57,2.47,2.47,0,0,1-1.91.67A2.25,2.25,0,0,1,164.21,52.29Zm2.87,1.46a3,3,0,0,0,1-1.07h0v1.39H170V47.35A3,3,0,0,0,169,45a4.25,4.25,0,0,0-2.85-.89,4.63,4.63,0,0,0-2.95.89A3,3,0,0,0,162,47.26h1.92a1.52,1.52,0,0,1,.64-1.13,2.49,2.49,0,0,1,1.54-.45,2.14,2.14,0,0,1,1.45.46,1.5,1.5,0,0,1,.52,1.18v.08a.55.55,0,0,1-.23.51,1.92,1.92,0,0,1-.76.22l-1.46.19a12,12,0,0,0-1.88.38,3,3,0,0,0-1.43.86,2.43,2.43,0,0,0-.56,1.71,2.63,2.63,0,0,0,1,2.21,3.83,3.83,0,0,0,2.43.75A3.24,3.24,0,0,0,167.08,53.75Zm-8.87.08a4,4,0,0,0,1.5-1.29,3.72,3.72,0,0,0,.69-1.83h-2a2.57,2.57,0,0,1-.74,1.38,2.19,2.19,0,0,1-1.56.52,2.35,2.35,0,0,1-2-.93,4,4,0,0,1-.72-2.49,4,4,0,0,1,.72-2.51,2.59,2.59,0,0,1,3.57-.41,2.27,2.27,0,0,1,.74,1.35h2a3.83,3.83,0,0,0-.7-1.84,4,4,0,0,0-1.49-1.27,4.63,4.63,0,0,0-2.1-.46A4.39,4.39,0,0,0,152,46.52a5.71,5.71,0,0,0-.59,2.67,5.77,5.77,0,0,0,.58,2.65,4.4,4.4,0,0,0,1.64,1.8,4.51,4.51,0,0,0,2.45.65A4.63,4.63,0,0,0,158.21,53.83Zm-10.63.24V48.28a2.38,2.38,0,0,1,.59-1.77,2,2,0,0,1,1.41-.58,5.9,5.9,0,0,1,.63,0l.4.06V44.2l-.3,0-.41,0a2.41,2.41,0,0,0-1.52.45,2.55,2.55,0,0,0-.85,1.26h0V44.27h-1.88v9.8Zm-10-7.7a2.75,2.75,0,0,1,3.64,0,2.87,2.87,0,0,1,.82,1.85h-5.28A2.92,2.92,0,0,1,137.56,46.37Zm3.92,7.52A4,4,0,0,0,143,52.76a3.44,3.44,0,0,0,.78-1.67H141.9a2.07,2.07,0,0,1-.82,1.14,2.73,2.73,0,0,1-1.59.43,2.49,2.49,0,0,1-2-.82,3.38,3.38,0,0,1-.77-2.14h7.21v-.53a6.05,6.05,0,0,0-.56-2.66,4.38,4.38,0,0,0-1.59-1.81,4.47,4.47,0,0,0-2.42-.65,4.31,4.31,0,0,0-2.37.66,4.63,4.63,0,0,0-1.61,1.83,5.81,5.81,0,0,0-.59,2.65,5.88,5.88,0,0,0,.57,2.63,4.36,4.36,0,0,0,1.6,1.82,4.68,4.68,0,0,0,2.5.65A4.92,4.92,0,0,0,141.48,53.89Zm-9.57-9.62V41.6h-2v2.67h-1.72v1.62h1.72v5.84c0,1.56.91,2.34,2.72,2.34h1.24V52.46h-1a1.14,1.14,0,0,1-.81-.22,1,1,0,0,1-.22-.76V45.89h2V44.27Zm-6.57,9.67a3.36,3.36,0,0,0,1.41-1,2.6,2.6,0,0,0,.51-1.61,2.28,2.28,0,0,0-.68-1.73,4.29,4.29,0,0,0-2.1-1l-1.67-.37a2.4,2.4,0,0,1-1-.46,1,1,0,0,1-.38-.8,1.18,1.18,0,0,1,.49-1,2.08,2.08,0,0,1,1.33-.39,2,2,0,0,1,1.4.47,1.56,1.56,0,0,1,.54,1.18H127a2.9,2.9,0,0,0-1.11-2.34,4.82,4.82,0,0,0-5.44,0,2.57,2.57,0,0,0-1,2.11c0,1.46.94,2.4,2.81,2.8l1.63.37a2.52,2.52,0,0,1,1,.44,1,1,0,0,1,.39.8,1.12,1.12,0,0,1-.55,1,2.47,2.47,0,0,1-1.47.39c-1.3,0-2-.56-2.12-1.66h-1.93a3.12,3.12,0,0,0,.62,1.78,3.36,3.36,0,0,0,1.45,1.07,5.88,5.88,0,0,0,4,0Zm-14.06-2.26a3.87,3.87,0,0,1-.73-2.49,4,4,0,0,1,.73-2.52,2.39,2.39,0,0,1,2-.93,2.35,2.35,0,0,1,2,.94,4.67,4.67,0,0,1,0,5,2.58,2.58,0,0,1-4,0Zm4.44,2a4.4,4.4,0,0,0,1.64-1.8,5.75,5.75,0,0,0,.59-2.65,5.91,5.91,0,0,0-.59-2.68,4.46,4.46,0,0,0-1.64-1.8,4.91,4.91,0,0,0-4.92,0,4.46,4.46,0,0,0-1.64,1.8,5.78,5.78,0,0,0-.59,2.68,5.63,5.63,0,0,0,.59,2.65,4.4,4.4,0,0,0,1.64,1.8,5,5,0,0,0,4.92,0Zm-15-2a4.48,4.48,0,0,1,0-5,2.43,2.43,0,0,1,2-.93,2.37,2.37,0,0,1,1.92.88,3.84,3.84,0,0,1,.74,2.53,3.87,3.87,0,0,1-.74,2.54,2.39,2.39,0,0,1-1.92.87A2.43,2.43,0,0,1,100.68,51.65Zm-.62,6.3V52.6h0a3.35,3.35,0,0,0,1.26,1.25,3.54,3.54,0,0,0,1.73.42,3.88,3.88,0,0,0,2.23-.65,4.32,4.32,0,0,0,1.49-1.79,6.31,6.31,0,0,0,.53-2.66,6.19,6.19,0,0,0-.54-2.66,4.25,4.25,0,0,0-1.49-1.79,3.83,3.83,0,0,0-2.21-.64,3.9,3.9,0,0,0-1.77.4,2.94,2.94,0,0,0-1.27,1.2h0V44.27H98.1V58Z"/></g></g></svg>