<svg xmlns="http://www.w3.org/2000/svg" viewBox="0 0 295 65"><defs><style>.cls-1{fill:#5266a0;}.cls-2{fill:#fff;}</style></defs><g id="Warstwa_2" data-name="Warstwa 2"><g id="Warstwa_1-2" data-name="Warstwa 1"><rect class="cls-1" width="295" height="65"/><path class="cls-2" d="M184.38,24a1.3,1.3,0,0,0,0-1.84,1.3,1.3,0,0,0-1.84,0A1.3,1.3,0,0,0,184.38,24Zm0,7a1.24,1.24,0,0,0,.38-.92,1.28,1.28,0,0,0-.38-.92,1.29,1.29,0,0,0-2.21.92,1.24,1.24,0,0,0,.37.92,1.3,1.3,0,0,0,1.84,0Zm-16.25.22V25.36a2.29,2.29,0,0,1,.65-1.76,2.18,2.18,0,0,1,1.51-.6,1.93,1.93,0,0,1,1.38.51,1.77,1.77,0,0,1,.54,1.35v6.41h1.93V25.15a2.18,2.18,0,0,1,.57-1.55,2,2,0,0,1,1.55-.6,2.1,2.1,0,0,1,1.38.47,1.84,1.84,0,0,1,.58,1.52v6.28h2V24.82a3.89,3.89,0,0,0-.44-2,2.89,2.89,0,0,0-1.17-1.18,3.41,3.41,0,0,0-1.65-.4,3.48,3.48,0,0,0-1.9.51,3.14,3.14,0,0,0-1.21,1.3,2.78,2.78,0,0,0-1.06-1.3,3.11,3.11,0,0,0-1.76-.51,3.23,3.23,0,0,0-1.69.46,3.28,3.28,0,0,0-1.24,1.38V21.47h-1.9v9.8Zm-10-1.77a1.15,1.15,0,0,1-.49-1,1.13,1.13,0,0,1,.61-1.08,4.31,4.31,0,0,1,1.42-.45l1.46-.24a2.4,2.4,0,0,0,.89-.28v1.15a2.26,2.26,0,0,1-.62,1.57,2.48,2.48,0,0,1-1.92.67A2.33,2.33,0,0,1,158.15,29.5ZM161,31a3.14,3.14,0,0,0,1-1.07h0v1.39H164V24.55a3,3,0,0,0-1-2.38,4.28,4.28,0,0,0-2.85-.89,4.59,4.59,0,0,0-3,.89A3,3,0,0,0,156,24.46h1.92a1.54,1.54,0,0,1,.65-1.13,2.53,2.53,0,0,1,1.53-.45,2.18,2.18,0,0,1,1.46.46,1.53,1.53,0,0,1,.52,1.18v.08a.57.57,0,0,1-.23.51,2,2,0,0,1-.77.22l-1.45.19a11.8,11.8,0,0,0-1.88.38,3.08,3.08,0,0,0-1.44.86,2.43,2.43,0,0,0-.55,1.71,2.63,2.63,0,0,0,1,2.21,3.87,3.87,0,0,0,2.43.75A3.27,3.27,0,0,0,161,31Zm-9.16.32V25.48a2.34,2.34,0,0,1,.59-1.77,2,2,0,0,1,1.41-.58,5.9,5.9,0,0,1,.63,0l.4.06V21.4l-.3,0-.41,0a2.41,2.41,0,0,0-1.52.45,2.55,2.55,0,0,0-.85,1.26h0V21.47h-1.87v9.8ZM141.2,28.85a3.76,3.76,0,0,1-.73-2.51,3.81,3.81,0,0,1,.73-2.52,2.41,2.41,0,0,1,1.93-.87,2.46,2.46,0,0,1,2,.92,3.81,3.81,0,0,1,.74,2.47,3.8,3.8,0,0,1-.74,2.46,2.46,2.46,0,0,1-2,.92A2.41,2.41,0,0,1,141.2,28.85Zm4.28,6a3.5,3.5,0,0,0,1.62-1.32,4.31,4.31,0,0,0,.6-2.4V21.47h-1.93V23h0a3,3,0,0,0-1.29-1.28,3.79,3.79,0,0,0-1.75-.41,4,4,0,0,0-2.22.64A4.39,4.39,0,0,0,139,23.71,6.82,6.82,0,0,0,139,29a4.33,4.33,0,0,0,1.48,1.78,3.93,3.93,0,0,0,2.24.64,3.6,3.6,0,0,0,1.74-.41,3.29,3.29,0,0,0,1.28-1.26h0v1.49A2.4,2.4,0,0,1,145.1,33a2.58,2.58,0,0,1-1.86.64,3,3,0,0,1-1.51-.36,1.66,1.66,0,0,1-.81-1.07h-2a3.12,3.12,0,0,0,1.34,2.23,5,5,0,0,0,2.94.8A5.77,5.77,0,0,0,145.48,34.86ZM130.94,29.5a1.15,1.15,0,0,1-.49-1,1.13,1.13,0,0,1,.61-1.08,4.31,4.31,0,0,1,1.42-.45l1.46-.24a2.4,2.4,0,0,0,.89-.28v1.15a2.26,2.26,0,0,1-.62,1.57,2.48,2.48,0,0,1-1.92.67A2.33,2.33,0,0,1,130.94,29.5ZM133.82,31a3.14,3.14,0,0,0,1-1.07h0v1.39h1.93V24.55a3,3,0,0,0-1-2.38,4.28,4.28,0,0,0-2.85-.89,4.59,4.59,0,0,0-3,.89,3,3,0,0,0-1.18,2.29h1.92a1.54,1.54,0,0,1,.65-1.13,2.53,2.53,0,0,1,1.53-.45,2.18,2.18,0,0,1,1.46.46,1.53,1.53,0,0,1,.52,1.18v.08a.57.57,0,0,1-.23.51,2,2,0,0,1-.77.22l-1.45.19a11.8,11.8,0,0,0-1.88.38,3.08,3.08,0,0,0-1.44.86,2.43,2.43,0,0,0-.55,1.71,2.63,2.63,0,0,0,1,2.21,3.87,3.87,0,0,0,2.43.75A3.27,3.27,0,0,0,133.82,31Zm-8.69-9.48V18.8h-2v2.67h-1.72v1.62h1.72v5.84c0,1.56.91,2.34,2.72,2.34h1.24V29.66h-1a1.14,1.14,0,0,1-.81-.22,1,1,0,0,1-.22-.76V23.09h2V21.47Zm-6.57,9.67a3.36,3.36,0,0,0,1.41-1,2.6,2.6,0,0,0,.51-1.61,2.28,2.28,0,0,0-.68-1.73,4.29,4.29,0,0,0-2.1-1L116,25.42a2.45,2.45,0,0,1-1-.46,1,1,0,0,1-.37-.8,1.18,1.18,0,0,1,.49-1,2.08,2.08,0,0,1,1.33-.39,2,2,0,0,1,1.4.47,1.56,1.56,0,0,1,.54,1.18h1.87a2.9,2.9,0,0,0-1.11-2.34,4.82,4.82,0,0,0-5.44,0,2.57,2.57,0,0,0-1,2.11c0,1.46.94,2.4,2.81,2.8l1.63.37a2.52,2.52,0,0,1,1,.44,1,1,0,0,1,.39.8,1.14,1.14,0,0,1-.55,1,2.47,2.47,0,0,1-1.47.39c-1.3,0-2-.56-2.12-1.66h-1.93a3.12,3.12,0,0,0,.62,1.78,3.36,3.36,0,0,0,1.45,1.07,5.88,5.88,0,0,0,4,0Zm-13.65-7.49a2.42,2.42,0,0,1,1.68-.62,2.07,2.07,0,0,1,1.58.6,2.49,2.49,0,0,1,.57,1.78v5.86h2v-6.1a4.5,4.5,0,0,0-.46-2.15,3.12,3.12,0,0,0-1.27-1.3,3.73,3.73,0,0,0-1.81-.44,3.26,3.26,0,0,0-3,1.67V21.47h-1.92v9.8h2V25.63A2.56,2.56,0,0,1,104.91,23.65Zm-5-4.21a1.2,1.2,0,0,0,0-1.71,1.28,1.28,0,0,0-1.76,0,1.2,1.2,0,0,0,0,1.71,1.28,1.28,0,0,0,1.76,0Zm.1,11.83v-9.8h-2v9.8Z"/><path class="cls-2" d="M257.2,53.94a3.36,3.36,0,0,0,1.41-1,2.6,2.6,0,0,0,.51-1.61,2.28,2.28,0,0,0-.68-1.73,4.29,4.29,0,0,0-2.1-1l-1.67-.37a2.45,2.45,0,0,1-1-.46,1,1,0,0,1-.37-.8,1.18,1.18,0,0,1,.49-1,2.08,2.08,0,0,1,1.33-.39,2,2,0,0,1,1.4.47,1.56,1.56,0,0,1,.54,1.18h1.87a2.93,2.93,0,0,0-1.11-2.34,4.82,4.82,0,0,0-5.44,0,2.54,2.54,0,0,0-1,2.11c0,1.46.94,2.4,2.81,2.8l1.62.37a2.51,2.51,0,0,1,1,.44,1,1,0,0,1,.38.8,1.13,1.13,0,0,1-.54,1,2.47,2.47,0,0,1-1.47.39c-1.3,0-2-.56-2.12-1.66h-1.93a3.19,3.19,0,0,0,.61,1.78,3.46,3.46,0,0,0,1.46,1.07,5.88,5.88,0,0,0,4,0Zm-10.15.13V48.28a2.38,2.38,0,0,1,.59-1.77,2,2,0,0,1,1.42-.58,6.26,6.26,0,0,1,.63,0l.4.06V44.2l-.31,0-.41,0a2.43,2.43,0,0,0-1.52.45,2.54,2.54,0,0,0-.84,1.26h0V44.27h-1.88v9.8ZM241,52.6v1.47h1.92v-9.8h-2v5.64a2.6,2.6,0,0,1-.68,2,2.43,2.43,0,0,1-1.68.61,2.09,2.09,0,0,1-1.59-.6,2.51,2.51,0,0,1-.56-1.77V44.27h-2v6.11a4.46,4.46,0,0,0,.47,2.14,3.21,3.21,0,0,0,1.27,1.31,3.76,3.76,0,0,0,1.81.44A3.26,3.26,0,0,0,241,52.6Zm-14.46,1.47V50.63l1-1L231,54.07h2.4L229,48.49l4.14-4.22h-2.43l-4.17,4.19h0V40.25h-2V54.07Zm-9.95-7.62a2.45,2.45,0,0,1,1.69-.62,2.06,2.06,0,0,1,1.57.6,2.49,2.49,0,0,1,.57,1.78v5.86h2V48a4.5,4.5,0,0,0-.47-2.15,3.16,3.16,0,0,0-1.26-1.3,3.77,3.77,0,0,0-1.82-.44,3.26,3.26,0,0,0-3,1.67V44.27h-1.92v9.8h2V48.43A2.56,2.56,0,0,1,216.56,46.45Zm-11,5.23a3.87,3.87,0,0,1-.73-2.49,4,4,0,0,1,.73-2.52,2.39,2.39,0,0,1,2-.93,2.35,2.35,0,0,1,2,.94,4.67,4.67,0,0,1,0,5,2.4,2.4,0,0,1-2,.93A2.37,2.37,0,0,1,205.52,51.68Zm4.44,2a4.47,4.47,0,0,0,1.64-1.8,5.75,5.75,0,0,0,.59-2.65,5.91,5.91,0,0,0-.59-2.68,4.73,4.73,0,0,0-6.56-1.8,4.46,4.46,0,0,0-1.64,1.8,5.78,5.78,0,0,0-.59,2.68,5.63,5.63,0,0,0,.59,2.65,4.4,4.4,0,0,0,1.64,1.8,5,5,0,0,0,4.92,0Zm-14.19.43V50.63l1-1,3.51,4.41h2.41l-4.43-5.58,4.15-4.22H200l-4.18,4.19h0V40.25h-2V54.07Zm-4.31-.22a1.25,1.25,0,0,0,.37-.92,1.28,1.28,0,0,0-1.3-1.3,1.25,1.25,0,0,0-.91.38,1.28,1.28,0,0,0-.38.92,1.3,1.3,0,0,0,2.22.92Zm-10.69-2.14a3.87,3.87,0,0,1-.74-2.54,3.84,3.84,0,0,1,.74-2.53,2.37,2.37,0,0,1,1.92-.88,2.42,2.42,0,0,1,2,.93,4.48,4.48,0,0,1,0,5,2.59,2.59,0,0,1-3.92.06ZM184,53.85a3.21,3.21,0,0,0,1.29-1.27h0v1.49h1.92V40.25h-2v5.44h0A2.94,2.94,0,0,0,184,44.48a3.74,3.74,0,0,0-1.74-.4,3.88,3.88,0,0,0-2.22.64,4.32,4.32,0,0,0-1.49,1.79,6.94,6.94,0,0,0,0,5.32,4.22,4.22,0,0,0,1.48,1.79,3.91,3.91,0,0,0,2.24.65A3.64,3.64,0,0,0,184,53.85Zm-9.85.22V48.28a2.34,2.34,0,0,1,.59-1.77,2,2,0,0,1,1.41-.58,5.9,5.9,0,0,1,.63,0l.4.06V44.2l-.3,0-.41,0a2.41,2.41,0,0,0-1.52.45,2.55,2.55,0,0,0-.85,1.26h0V44.27h-1.87v9.8Zm-10-1.78a1.23,1.23,0,0,1,.12-2.06,4.23,4.23,0,0,1,1.42-.45l1.46-.24a2.26,2.26,0,0,0,.88-.28v1.15a2.25,2.25,0,0,1-.61,1.57,2.49,2.49,0,0,1-1.92.67A2.25,2.25,0,0,1,164.21,52.29Zm2.88,1.46a3.14,3.14,0,0,0,1-1.07h0v1.39H170V47.35A3,3,0,0,0,169,45a4.24,4.24,0,0,0-2.84-.89,4.59,4.59,0,0,0-2.95.89A3,3,0,0,0,162,47.26h1.92a1.51,1.51,0,0,1,.65-1.13,2.44,2.44,0,0,1,1.53-.45,2.14,2.14,0,0,1,1.45.46,1.5,1.5,0,0,1,.52,1.18v.08a.56.56,0,0,1-.22.51,2,2,0,0,1-.77.22c-.36,0-.84.12-1.46.19a11.9,11.9,0,0,0-1.87.38,3,3,0,0,0-1.44.86,2.43,2.43,0,0,0-.55,1.71,2.63,2.63,0,0,0,1,2.21,3.83,3.83,0,0,0,2.43.75A3.29,3.29,0,0,0,167.09,53.75Zm-8.88.08a4,4,0,0,0,1.5-1.29,3.72,3.72,0,0,0,.69-1.83h-2a2.58,2.58,0,0,1-.75,1.38,2.19,2.19,0,0,1-1.56.52,2.37,2.37,0,0,1-2-.93,4,4,0,0,1-.71-2.49,4,4,0,0,1,.71-2.51,2.35,2.35,0,0,1,2-.94,2.31,2.31,0,0,1,1.59.53,2.27,2.27,0,0,1,.74,1.35h2a3.92,3.92,0,0,0-.69-1.84,4.11,4.11,0,0,0-1.5-1.27,4.63,4.63,0,0,0-2.1-.46A4.42,4.42,0,0,0,152,46.52a5.83,5.83,0,0,0-.59,2.67,5.77,5.77,0,0,0,.58,2.65,4.4,4.4,0,0,0,1.64,1.8,4.51,4.51,0,0,0,2.45.65A4.63,4.63,0,0,0,158.21,53.83Zm-10.63.24V48.28a2.38,2.38,0,0,1,.59-1.77,2,2,0,0,1,1.41-.58,6.28,6.28,0,0,1,.64,0l.39.06V44.2l-.3,0-.41,0a2.41,2.41,0,0,0-1.52.45,2.62,2.62,0,0,0-.85,1.26h0V44.27h-1.88v9.8Zm-10-7.7a2.46,2.46,0,0,1,1.81-.69,2.5,2.5,0,0,1,1.82.69,2.87,2.87,0,0,1,.82,1.85h-5.27A2.87,2.87,0,0,1,137.57,46.37Zm3.91,7.52A4,4,0,0,0,143,52.76a3.55,3.55,0,0,0,.79-1.67H141.9a2.07,2.07,0,0,1-.82,1.14,2.73,2.73,0,0,1-1.59.43,2.5,2.5,0,0,1-2-.82,3.32,3.32,0,0,1-.76-2.14h7.21v-.53a5.92,5.92,0,0,0-.57-2.66,4.38,4.38,0,0,0-1.59-1.81,4.47,4.47,0,0,0-2.42-.65,4.26,4.26,0,0,0-2.36.66,4.57,4.57,0,0,0-1.62,1.83,5.8,5.8,0,0,0-.58,2.65,5.87,5.87,0,0,0,.56,2.63,4.36,4.36,0,0,0,1.6,1.82,4.68,4.68,0,0,0,2.5.65A4.92,4.92,0,0,0,141.48,53.89Zm-9.57-9.62V41.6h-2v2.67h-1.72v1.62h1.72v5.84c0,1.56.91,2.34,2.72,2.34h1.24V52.46h-1a1.14,1.14,0,0,1-.81-.22,1.06,1.06,0,0,1-.22-.76V45.89h2V44.27Zm-6.57,9.67a3.36,3.36,0,0,0,1.41-1,2.6,2.6,0,0,0,.51-1.61,2.31,2.31,0,0,0-.67-1.73,4.37,4.37,0,0,0-2.11-1l-1.67-.37a2.4,2.4,0,0,1-1-.46,1,1,0,0,1-.38-.8,1.18,1.18,0,0,1,.49-1,2.08,2.08,0,0,1,1.33-.39,2,2,0,0,1,1.4.47,1.56,1.56,0,0,1,.54,1.18H127a2.9,2.9,0,0,0-1.11-2.34,4.82,4.82,0,0,0-5.44,0,2.57,2.57,0,0,0-1,2.11c0,1.46.94,2.4,2.81,2.8l1.63.37a2.52,2.52,0,0,1,1,.44,1,1,0,0,1,.39.8,1.12,1.12,0,0,1-.55,1,2.47,2.47,0,0,1-1.47.39c-1.3,0-2-.56-2.12-1.66h-1.93a3.12,3.12,0,0,0,.62,1.78,3.36,3.36,0,0,0,1.45,1.07,5.88,5.88,0,0,0,4,0Zm-14.06-2.26a3.92,3.92,0,0,1-.72-2.49,4,4,0,0,1,.72-2.52,2.39,2.39,0,0,1,2-.93,2.35,2.35,0,0,1,2,.94,4.67,4.67,0,0,1,0,5,2.58,2.58,0,0,1-4,0Zm4.44,2a4.4,4.4,0,0,0,1.64-1.8,5.75,5.75,0,0,0,.59-2.65,5.91,5.91,0,0,0-.59-2.68,4.46,4.46,0,0,0-1.64-1.8,4.9,4.9,0,0,0-4.91,0,4.42,4.42,0,0,0-1.65,1.8,5.91,5.91,0,0,0-.59,2.68,5.75,5.75,0,0,0,.59,2.65,4.36,4.36,0,0,0,1.65,1.8,5,5,0,0,0,4.91,0Zm-15-2a4.48,4.48,0,0,1,0-5,2.43,2.43,0,0,1,2-.93,2.37,2.37,0,0,1,1.92.88,3.78,3.78,0,0,1,.74,2.53,3.81,3.81,0,0,1-.74,2.54,2.39,2.39,0,0,1-1.92.87A2.43,2.43,0,0,1,100.68,51.65Zm-.62,6.3V52.6h0a3.35,3.35,0,0,0,1.26,1.25,3.54,3.54,0,0,0,1.73.42,3.88,3.88,0,0,0,2.23-.65,4.32,4.32,0,0,0,1.49-1.79,6.31,6.31,0,0,0,.53-2.66,6.19,6.19,0,0,0-.54-2.66,4.25,4.25,0,0,0-1.49-1.79,3.83,3.83,0,0,0-2.21-.64,3.9,3.9,0,0,0-1.77.4,3,3,0,0,0-1.27,1.2h0V44.27H98.1V58Z"/><path class="cls-2" d="M19,.23a23.61,23.61,0,0,0-7.88,1.52A15.81,15.81,0,0,0,5.41,5.51a15.87,15.87,0,0,0-3.74,5.76,24,24,0,0,0-1.5,7.89C0,22.63,0,23.74,0,32.56S.06,42.49.22,46a23.84,23.84,0,0,0,1.53,7.88,15.81,15.81,0,0,0,3.76,5.75,15.87,15.87,0,0,0,5.76,3.74,24.1,24.1,0,0,0,7.89,1.5c3.47.15,4.58.18,13.4.17s9.93-.06,13.4-.22a23.84,23.84,0,0,0,7.88-1.53,16.64,16.64,0,0,0,9.49-9.52,23.79,23.79,0,0,0,1.5-7.89c.15-3.47.18-4.58.17-13.4s-.06-9.93-.22-13.4a23.84,23.84,0,0,0-1.53-7.88,15.94,15.94,0,0,0-3.76-5.75,15.74,15.74,0,0,0-5.76-3.74A23.79,23.79,0,0,0,45.84.17C42.37,0,41.26,0,32.44,0S22.51.06,19,.23M19.42,59a18.12,18.12,0,0,1-6-1.11A10.76,10.76,0,0,1,7.2,51.72a18.24,18.24,0,0,1-1.13-6c-.16-3.42-.19-4.45-.21-13.13s0-9.7.16-13.13a18.12,18.12,0,0,1,1.11-6A10.15,10.15,0,0,1,9.55,9.64,10.2,10.2,0,0,1,13.29,7.2a18.1,18.1,0,0,1,6-1.13c3.43-.16,4.45-.19,13.13-.21s9.7,0,13.13.16a18.12,18.12,0,0,1,6,1.11,10.15,10.15,0,0,1,3.74,2.42,10.2,10.2,0,0,1,2.44,3.74,18.1,18.1,0,0,1,1.13,6c.16,3.42.2,4.45.21,13.13s0,9.7-.16,13.13a18.12,18.12,0,0,1-1.11,6,10.74,10.74,0,0,1-6.16,6.18,18.1,18.1,0,0,1-6,1.13c-3.42.16-4.45.2-13.13.21s-9.7,0-13.13-.16M45.91,15.13a3.9,3.9,0,1,0,3.9-3.91,3.91,3.91,0,0,0-3.9,3.91m-30.1,17.4A16.69,16.69,0,1,0,32.47,15.81,16.7,16.7,0,0,0,15.81,32.53m5.86,0A10.83,10.83,0,1,1,32.52,43.33,10.83,10.83,0,0,1,21.67,32.52"/><polyline class="cls-2" points="289 0 289 65 295 65 295 0"/></g></g></svg>