<svg xmlns="http://www.w3.org/2000/svg" xmlns:xlink="http://www.w3.org/1999/xlink" viewBox="0 0 1152.11 816.07"><defs><style>.cls-1{fill:none;}.cls-2{fill:#fff;}.cls-3{clip-path:url(#clip-path);}.cls-4{fill:#db961e;}.cls-5{fill:#222221;}.cls-6{fill:#4f4337;}.cls-7{fill:#f5e8d6;}.cls-8{fill:#a0acb7;}.cls-9{fill:#a04035;}.cls-10{fill:#62796b;}</style><clipPath id="clip-path"><rect class="cls-1" x="4.92" y="625.7" width="133.63" height="55.48"/></clipPath></defs><g id="Warstwa_2" data-name="Warstwa 2"><g id="Warstwa_2-2" data-name="Warstwa 2"><path class="cls-2" d="M5,47.45V.55H25.08A19.25,19.25,0,0,1,34.3,2.61a15,15,0,0,1,6.11,5.82,16.9,16.9,0,0,1,2.18,8.74,16.12,16.12,0,0,1-2.24,8.7A14.84,14.84,0,0,1,34,31.55a21.07,21.07,0,0,1-9.38,2h-7V47.45Zm12.71-23.8h4.48a7.44,7.44,0,0,0,5.26-1.79,6.14,6.14,0,0,0,1.9-4.73,6,6,0,0,0-1.9-4.67,7.6,7.6,0,0,0-5.26-1.68H17.67Z"/><path class="cls-2" d="M124.53,48a29,29,0,0,1-10.75-1.79,15.07,15.07,0,0,1-7.16-5.59A17.39,17.39,0,0,1,104.08,31H116.4a6.32,6.32,0,0,0,2.24,4.93,8.84,8.84,0,0,0,5.76,1.68,8,8,0,0,0,4.53-1.13,3.37,3.37,0,0,0,1.59-2.85A3.15,3.15,0,0,0,128.93,31a16.5,16.5,0,0,0-5.48-1.79l-4.72-1A20.88,20.88,0,0,1,109,23.63a11.05,11.05,0,0,1-3.58-8.7,13.1,13.1,0,0,1,2.5-7.84,15.74,15.74,0,0,1,6.74-5.28A24.13,24.13,0,0,1,124.44,0a23.32,23.32,0,0,1,9.86,1.81,14.91,14.91,0,0,1,6.39,5.37,14.71,14.71,0,0,1,2.3,8H130.72A4.91,4.91,0,0,0,129,11.65a7.05,7.05,0,0,0-4.62-1.27,7.34,7.34,0,0,0-4.32,1A3.08,3.08,0,0,0,118.76,14a3.19,3.19,0,0,0,1.47,2.71,13.84,13.84,0,0,0,4.82,1.79l3.85.8q7.77,1.65,11.2,5.37a12.74,12.74,0,0,1,3.46,9,12.53,12.53,0,0,1-5.05,10.74c-3.37,2.49-8,3.74-14,3.72"/><polygon class="cls-2" points="146.59 10.81 146.59 0.55 187.3 0.55 187.3 10.81 173.3 10.81 173.3 47.45 160.59 47.45 160.59 10.81 146.59 10.81"/><polygon class="cls-2" points="193.25 47.45 193.25 0.55 227.05 0.55 227.05 10.81 205.96 10.81 205.96 18.74 225.3 18.74 225.3 28.75 205.96 28.75 205.96 37.19 226.93 37.19 226.93 47.45 193.25 47.45"/><path class="cls-2" d="M237.26,47.45V.55h20.21a21,21,0,0,1,9.13,1.9,14.33,14.33,0,0,1,6.11,5.48,16,16,0,0,1,2.18,8.56,15.29,15.29,0,0,1-2.11,8.27A13.9,13.9,0,0,1,266.91,30l9.56,17.5H262.63L254.37,32H250V47.45ZM250,22.07h4.48a9.18,9.18,0,0,0,5.26-1.29,4.81,4.81,0,0,0,1.92-4.29,5,5,0,0,0-2-4.37,8.89,8.89,0,0,0-5.27-1.36H249.9Z"/><path class="cls-2" d="M22.61,105.37a23.76,23.76,0,0,1-11.53-2.76A20,20,0,0,1,3,94.46,26.77,26.77,0,0,1,0,81.32,26.62,26.62,0,0,1,3,68.11,20.13,20.13,0,0,1,11.19,60a23.76,23.76,0,0,1,11.42-2.76A25.14,25.14,0,0,1,33.05,59.3a18.36,18.36,0,0,1,7.43,6A19.52,19.52,0,0,1,43.88,75H31a7.56,7.56,0,0,0-2.33-4.84,8,8,0,0,0-5.58-1.79,8.57,8.57,0,0,0-7.33,3.44,15.82,15.82,0,0,0-2.56,9.58,15.49,15.49,0,0,0,2.58,9.72A8.76,8.76,0,0,0,23,94.34a8.13,8.13,0,0,0,5.57-1.79A7.83,7.83,0,0,0,31,87.66H44a17.77,17.77,0,0,1-1.64,6.11,20.37,20.37,0,0,1-4.1,5.76,20.75,20.75,0,0,1-6.56,4.25,23.67,23.67,0,0,1-9,1.61"/><path class="cls-2" d="M48.63,104.74l15.2-46.89H81.2L97,104.74H82.65l-2.73-8.95H65.6L63,104.74ZM68.14,86.25h9c-.86-2.87-1.68-5.81-2.44-8.83s-1.49-6.09-2.18-9.15c-.65,3.06-1.33,6.1-2,9.15s-1.43,6-2.24,8.83"/><path class="cls-2" d="M104.54,104.74V57.85h20.2a20.77,20.77,0,0,1,9.15,1.9A14.27,14.27,0,0,1,140,65.23a16.11,16.11,0,0,1,2.18,8.55,15.32,15.32,0,0,1-2.13,8.28,13.86,13.86,0,0,1-5.85,5.19l9.56,17.49H129.9l-8.24-15.49h-4.4v15.49Zm12.72-25.37h4.51a9.36,9.36,0,0,0,5.37-1.29,4.78,4.78,0,0,0,1.79-4.3,5,5,0,0,0-1.9-4.36,8.92,8.92,0,0,0-5.37-1.37h-4.4Z"/><path class="cls-2" d="M169.77,104.74H151.71V57.85h17.9a26.24,26.24,0,0,1,12.54,2.81,19.73,19.73,0,0,1,8.12,8.07,26.15,26.15,0,0,1,2.87,12.54,26.07,26.07,0,0,1-2.85,12.53,19.71,19.71,0,0,1-8.07,8.06,25.92,25.92,0,0,1-12.38,2.79m-5.37-10.74h4.86a14.68,14.68,0,0,0,6-1.11A7.59,7.59,0,0,0,179.05,89a18.67,18.67,0,0,0,1.29-7.65A18.26,18.26,0,0,0,179,73.64a7.72,7.72,0,0,0-3.9-3.88,15.36,15.36,0,0,0-6.21-1.11h-4.48Z"/><path class="cls-2" d="M49.07,45.58v1.88H51a1.88,1.88,0,0,1,3.75,0h1.88a1.88,1.88,0,0,1,3.76,0h1.79a1.88,1.88,0,1,1,3.76,0h1.88a1.87,1.87,0,0,1,3.74,0h1.92a1.88,1.88,0,1,1,3.76,0H79a1.88,1.88,0,1,1,3.76,0h1.88a1.87,1.87,0,0,1,3.74,0h1.88a1.88,1.88,0,1,1,3.76,0h2V45.58a1.87,1.87,0,1,1,0-3.74V40a1.88,1.88,0,1,1,0-3.76V34.32a1.87,1.87,0,1,1,0-3.74V28.7A1.87,1.87,0,1,1,96,25V23.08a1.88,1.88,0,1,1,0-3.76V17.44a1.88,1.88,0,1,1,0-3.75V11.81a1.88,1.88,0,1,1,0-3.76V6.26A1.88,1.88,0,1,1,96,2.5V.71H94.11A1.89,1.89,0,0,1,92.23,2.6,1.88,1.88,0,0,1,90.35.72H88.47a1.88,1.88,0,0,1-3.75,0H82.84a1.88,1.88,0,0,1-3.76,0H77.29A1.89,1.89,0,0,1,75.41,2.6,1.88,1.88,0,0,1,73.53.72h-1.9a1.87,1.87,0,1,1-3.74,0H66a1.88,1.88,0,1,1-3.76,0H60.41a1.84,1.84,0,0,1-3.67.1V.71h-2a1.88,1.88,0,0,1-3.76,0H49.15V2.5a1.88,1.88,0,1,1,0,3.76V8.05a1.88,1.88,0,0,1,0,3.75v1.89a1.88,1.88,0,0,1,0,3.75v1.88a1.88,1.88,0,1,1,0,3.76V25a1.87,1.87,0,1,1,0,3.74v1.88a1.88,1.88,0,1,1,0,3.76v1.8a1.88,1.88,0,1,1,0,3.76v1.88a1.87,1.87,0,1,1,0,3.74M61.86,13.32H83.34V34.8H61.86Z"/><path class="cls-2" d="M83,757.17a4.38,4.38,0,0,1-4.22-3.74v6.49h2.75v1.37H74.71v-1.37h2.05V745.07H74.71V743.7h4.11v3.52A4.39,4.39,0,0,1,83,743.48c2.61,0,5.14,2.39,5.14,6.85s-2.53,6.84-5.14,6.84m-.79-12a3.47,3.47,0,0,0-3.43,3.54v3.2a3.47,3.47,0,0,0,3.43,3.54c2,0,3.8-1.71,3.8-5.13s-1.75-5.14-3.8-5.14"/><path class="cls-2" d="M89.66,743.7h4.1v3.54c.5-2.37,2-3.64,4.11-3.64h1.37v4.56H97.53v-2.85c-1.85,0-3.77.43-3.77,3.76v6.51h2.75V757H89.66v-1.37h2V745.07h-2Z"/><path class="cls-2" d="M106.66,757.17c-3.42,0-5.93-2.74-5.93-6.84s2.51-6.85,5.93-6.85,5.93,2.74,5.93,6.85-2.51,6.84-5.93,6.84m3.82-6.84c0-3.31-1.65-5.26-3.82-5.26s-3.81,1.94-3.81,5.26,1.65,5.25,3.81,5.25,3.82-1.94,3.82-5.25"/><path class="cls-2" d="M114,743.7h4.11v14.15c0,2.17-1.25,3.55-3.31,3.55a3.79,3.79,0,0,1-1.37-.23v-1.59a3.16,3.16,0,0,0,.92.14c1,0,1.71-.56,1.71-2V745.07h-2V743.7Zm3-5.25a1.49,1.49,0,1,1-1.49,1.49,1.49,1.49,0,0,1,1.49-1.49"/><path class="cls-2" d="M126.64,743.47c3.08,0,5.25,2.39,5.25,6.39,0,.2,0,.59,0,.91h-8.78c.18,3.07,2.17,4.62,4.38,4.62a4.91,4.91,0,0,0,3.65-1.49v1.79a5.31,5.31,0,0,1-4,1.48c-3.2,0-6.17-2.28-6.17-6.84s2.63-6.85,5.71-6.85m-3.56,6h6.78c-.16-3.06-1.41-4.46-3.22-4.46s-3.33,1.47-3.56,4.46"/><polygon class="cls-2" points="140.34 743.7 146.27 743.7 146.27 745.07 144.74 745.07 141.22 749.02 145.74 755.57 147.41 755.57 147.41 756.94 141.36 756.94 141.36 755.57 143.28 755.57 139.74 750.35 137.47 752.9 137.47 755.57 139.3 755.57 139.3 756.94 133.37 756.94 133.37 755.57 135.42 755.57 135.42 739.82 133.37 739.82 133.37 738.45 137.47 738.45 137.47 751.05 142.77 745.07 140.34 745.07 140.34 743.7"/><path class="cls-2" d="M147.64,743.7H150v-3.88H152v3.88h3.31v1.49H152v7.65c0,1.82.84,2.51,2.29,2.51a4.53,4.53,0,0,0,1.25-.16v1.59a5,5,0,0,1-1.71.28c-2.29,0-3.88-1.14-3.88-3.88v-8h-2.29v-1.49Z"/><path class="cls-2" d="M83,784.57a4.39,4.39,0,0,1-4.22-3.75v6.49h2.75v1.37H74.71v-1.37h2.05V772.48H74.71V771.1h4.11v3.52A4.39,4.39,0,0,1,83,770.88c2.61,0,5.14,2.39,5.14,6.85s-2.53,6.85-5.14,6.85m-.79-12a3.47,3.47,0,0,0-3.43,3.54v3.2a3.46,3.46,0,0,0,3.43,3.54c2,0,3.8-1.71,3.8-5.13s-1.75-5.14-3.8-5.14"/><path class="cls-2" d="M89.66,771.09h4.1v3.54c.5-2.37,2-3.64,4.11-3.64h1.37v4.56H97.53V772.7c-1.85,0-3.77.43-3.77,3.76V783h2.75v1.37H89.66V783h2V772.46h-2Z"/><path class="cls-2" d="M106.66,784.57c-3.42,0-5.93-2.75-5.93-6.85s2.51-6.85,5.93-6.85,5.93,2.74,5.93,6.85-2.51,6.85-5.93,6.85m3.82-6.85c0-3.31-1.65-5.26-3.82-5.26s-3.81,1.95-3.81,5.26,1.65,5.25,3.81,5.25,3.82-1.93,3.82-5.25"/><path class="cls-2" d="M122.42,775.65v-2.9a5.91,5.91,0,0,0-1.49-.18c-2.39,0-4.38,1.94-4.38,5.14s2.09,5,4.5,5a4.84,4.84,0,0,0,3.08-1v1.83a5.89,5.89,0,0,1-3.42,1c-3.54,0-6.28-2.5-6.28-6.84,0-4.11,2.85-6.85,6.39-6.85a6,6,0,0,1,3.31.91v3.88Z"/><path class="cls-2" d="M131.88,770.87c3.09,0,5.26,2.39,5.26,6.39,0,.2,0,.6,0,.91h-8.78c.18,3.07,2.17,4.62,4.38,4.62a4.91,4.91,0,0,0,3.65-1.49v1.79a5.32,5.32,0,0,1-4,1.49c-3.2,0-6.17-2.29-6.17-6.85s2.63-6.85,5.71-6.85m-3.56,6h6.78c-.16-3.06-1.41-4.45-3.22-4.45s-3.33,1.46-3.56,4.45"/><path class="cls-2" d="M146.15,774.86v-2.08a6.25,6.25,0,0,0-1.93-.32c-1.67,0-3,.72-3,2.06,0,2.76,7.26,1.49,7.26,6.05,0,2.33-2,4-4.9,4a10,10,0,0,1-4.12-.88v-3.46H141v2.33a7.3,7.3,0,0,0,2.51.41c1.89,0,3-1,3-2.17,0-2.83-7.27-1.49-7.27-6,0-2.39,2.15-3.88,4.8-3.88a8.82,8.82,0,0,1,3.65.8v3.2h-1.59Z"/><path class="cls-2" d="M83,812a4.39,4.39,0,0,1-4.22-3.75v6.49h2.75v1.37H74.71V814.7h2.05V799.87H74.71v-1.38h4.11V802A4.39,4.39,0,0,1,83,798.27c2.61,0,5.14,2.39,5.14,6.85S85.65,812,83,812m-.79-12a3.47,3.47,0,0,0-3.43,3.54v3.19a3.46,3.46,0,0,0,3.43,3.54c2,0,3.8-1.71,3.8-5.13S84.3,800,82.25,800"/><polygon class="cls-2" points="89.42 793.23 93.54 793.23 93.54 810.35 95.59 810.35 95.59 811.72 89.42 811.72 89.42 810.35 91.49 810.35 91.49 794.6 89.42 794.6 89.42 793.23"/><path class="cls-2" d="M104.84,808.32a4.16,4.16,0,0,1-4,3.63A3.78,3.78,0,0,1,97,808.18c0-3.22,3.09-4.22,6.51-4.22h1.37v-.8c0-2.15-1.14-3.08-3.3-3.08a6.79,6.79,0,0,0-3.89,1.37v-1.83a7.29,7.29,0,0,1,4.34-1.37c3,0,4.92,1.49,4.92,4.8v7.3h2v1.37h-4.11v-3.4Zm-3.3,1.91a3.26,3.26,0,0,0,3.3-3.42v-1.6h-1.39c-3,0-4.43,1-4.43,2.75a2.33,2.33,0,0,0,2.5,2.28"/><polygon class="cls-2" points="116.83 798.48 122.76 798.48 122.76 799.86 121.23 799.86 117.71 803.8 122.23 810.35 123.9 810.35 123.9 811.72 117.85 811.72 117.85 810.35 119.77 810.35 116.23 805.13 113.97 807.68 113.97 810.35 115.79 810.35 115.79 811.72 109.86 811.72 109.86 810.35 111.91 810.35 111.91 794.6 109.86 794.6 109.86 793.23 113.97 793.23 113.97 805.83 119.26 799.86 116.83 799.86 116.83 798.48"/><path class="cls-2" d="M132.8,808.32a4.17,4.17,0,0,1-4,3.63,3.78,3.78,0,0,1-3.88-3.77c0-3.22,3.08-4.22,6.51-4.22h1.37v-.8c0-2.15-1.14-3.08-3.31-3.08a6.76,6.76,0,0,0-3.88,1.37v-1.83a7.24,7.24,0,0,1,4.34-1.37c3,0,4.91,1.49,4.91,4.8v7.3h2v1.37H132.8Zm-3.31,1.91a3.27,3.27,0,0,0,3.31-3.42v-1.6h-1.4c-2.94,0-4.43,1-4.43,2.75a2.33,2.33,0,0,0,2.51,2.28"/><path class="cls-2" d="M137.14,798.48h2.39V794.6h1.94v3.88h3.31V800h-3.31v7.65c0,1.83.84,2.51,2.29,2.51A4.53,4.53,0,0,0,145,810v1.59a4.94,4.94,0,0,1-1.71.28c-2.28,0-3.88-1.14-3.88-3.88v-8h-2.28Z"/><path class="cls-2" d="M4.92,739.82H15.76v3.27l-4.46,3.72c3.41.7,5.26,2.44,5.26,5.11,0,3.22-2.56,5.5-6.58,5.5A9.36,9.36,0,0,1,4.81,756v-4.75H8.23V754a7.65,7.65,0,0,0,1.33.12c1.61,0,2.74-.82,2.74-1.87,0-1.33-1.55-2.72-5.21-2.85V747l4.14-3.36H4.92Z"/><path class="cls-2" d="M30,757.3c-2,0-3.08-1.23-3.7-3.08v4.66h2.06v2.39H20.44v-2.39h1.37V745.75H20.44v-2.39h5.47v4.18c.32-2.47,1.51-4.54,4-4.54,2.31,0,5,2.19,5,7.17s-2.67,7.14-5,7.14m-1.83-11.09c-1.21,0-1.87,1.33-1.87,3.2v1.48c0,1.89.66,3.2,1.87,3.2s2.22-1.19,2.22-3.92-1-3.95-2.22-3.95"/><path class="cls-2" d="M38.47,752.1a2.63,2.63,0,1,1-2.63,2.63,2.65,2.65,0,0,1,2.63-2.63"/><path class="cls-2" d="M37.94,549.2V528.27a3,3,0,0,0-3-3H8.05a3,3,0,0,0-3,3v20.92a16.43,16.43,0,1,0,32.86,0Zm-6,0a10.59,10.59,0,0,1-10.45,10.62A10.59,10.59,0,0,1,11.05,549.2v-18H32v18ZM28.55,539c1.08-1.87.74-4.1-.76-5s-3.6,0-4.67,1.83-.75,4.1.75,5S27.47,540.87,28.55,539Z"/><path class="cls-2" d="M58.38,564.65h1.51l2.19-5.85H60.15l-1.08,3.48-1-3.48H56.32l-1,3.48L54.2,558.8H52.28l2.18,5.85H56l1.2-3.73,1.19,3.73Zm12.38,0h2.36l-3.36-4.25,3.36-4.25H70.76L68,559.76v-3.61H66v8.51h2v-3.6l2.75,3.6ZM78,558.8a1.22,1.22,0,0,0-.56-.1,2,2,0,0,0-1.78,1v-.94H73.83v5.85h1.86v-2.28c0-1.44.66-2,1.68-2a2.91,2.91,0,0,1,.66.08V558.8Zm3.84,4.42a1.5,1.5,0,1,1,1.39-1.49A1.41,1.41,0,0,1,81.87,563.22Zm1.39-4.42v.84a2.09,2.09,0,0,0-1.78-1,3.08,3.08,0,0,0,0,6.15,2.06,2.06,0,0,0,1.78-1v.83h1.86V558.8Zm9.38,0H90.43l-1.81,2.48v-5.14H86.76v8.51h1.86v-2.46l1.8,2.46h2.21l-2.28-2.93,2.29-2.93Zm3.55,6A3.09,3.09,0,1,0,93,561.72,3,3,0,0,0,96.19,564.81Zm0-1.59a1.5,1.5,0,0,1,0-3,1.5,1.5,0,0,1,0,3Zm9.57,1.44h1.51l2.19-5.86h-1.92l-1.08,3.49-1-3.49h-1.71l-1,3.49-1.08-3.49H99.67l2.19,5.86h1.51l1.2-3.73,1.19,3.73Zm4.25-7.8a1.2,1.2,0,1,0,1.19-1.18A1.17,1.17,0,0,0,110,556.86Zm.27,7.8h1.87V558.8h-1.87Zm9.1-2.48a4.76,4.76,0,0,0,.06-.86,2.78,2.78,0,0,0-3-2.68,2.92,2.92,0,0,0-3.11,3.09,2.89,2.89,0,0,0,3.16,3.09c1.67,0,2.72-.89,2.89-2h-1.82a1,1,0,0,1-1.08.66,1.18,1.18,0,0,1-1.3-1.3Zm-3-2.3a1.15,1.15,0,0,1,1.2,1.23h-2.45A1.15,1.15,0,0,1,116.42,559.88Z"/><path class="cls-2" d="M53.45,542.09a1.2,1.2,0,1,0,1.19-1.18A1.17,1.17,0,0,0,53.45,542.09Zm.27,7.8h1.86V544H53.72Zm12.58,0v-3.61c0-1.24-.36-2.39-2.06-2.39a2,2,0,0,0-1.83,1.05,1.69,1.69,0,0,0-1.77-1.05,1.83,1.83,0,0,0-1.69,1V544h-1.8v5.86H59V547c0-1.15.44-1.52,1-1.52s.87.46.87,1.25v3.17h1.8V547c0-1.13.43-1.48,1-1.48s.9.47.9,1.26v3.16H66.3Zm1.38-1.1a1.23,1.23,0,1,0,1.23-1.22A1.21,1.21,0,0,0,67.68,548.79Zm12.49-7.4h-2V547c0,.9-.41,1.45-1.16,1.45s-1.13-.62-1.13-1.46H74a2.9,2.9,0,0,0,3.1,3.14A2.84,2.84,0,0,0,80.17,547v-5.58Zm4.44,7.07a1.5,1.5,0,0,1,0-3,1.5,1.5,0,0,1,0,3ZM86,544v.84a2.13,2.13,0,0,0-1.79-1,3.08,3.08,0,0,0,0,6.15,2.13,2.13,0,0,0,1.79-1v.82h1.86V544Zm3.43,5.86H91.3V547c0-.9.37-1.48,1.13-1.48s1,.58,1,1.42v3h1.86v-3.48a2.81,2.81,0,0,0-.46-1.86,2.35,2.35,0,0,0-3.56.34V544H89.45v5.86Zm10.29-1.43a1.5,1.5,0,1,1,1.4-1.5A1.42,1.42,0,0,1,99.73,548.46Zm1.4-4.43v.84a2.13,2.13,0,0,0-1.79-1,3.08,3.08,0,0,0,0,6.15,2.11,2.11,0,0,0,1.79-1v.82H103V544Zm15.56-2.64h-2.23l-2.25,5.91-2.27-5.91h-2.27v8.5h1.91v-5.27l1.9,5.27h1.46l1.83-5.27v5.27h1.92v-8.5Zm4.56,7.07a1.5,1.5,0,1,1,1.4-1.5A1.43,1.43,0,0,1,121.25,548.46Zm1.4-4.43v.84a2.13,2.13,0,0,0-1.79-1,3.08,3.08,0,0,0,0,6.15,2.11,2.11,0,0,0,1.79-1v.82h1.86V544Zm7.08,4.44a4.58,4.58,0,0,1-.67,0c-.46,0-.8-.13-.8-1v-2.09h1.34V544h-1.34V542.3h-1.84V544h-.93v1.39h.93v2.51c0,2,1.2,2.07,2.07,2.07a7.27,7.27,0,0,0,1.25-.1v-1.42Zm6.67-1.06a4.66,4.66,0,0,0,.06-.86,2.78,2.78,0,0,0-3-2.67,2.92,2.92,0,0,0-3.12,3.09,2.89,2.89,0,0,0,3.16,3.08c1.68,0,2.73-.89,2.89-2h-1.82a1,1,0,0,1-1.08.66c-1,0-1.26-.59-1.3-1.3Zm-3-2.29a1.14,1.14,0,0,1,1.2,1.22h-2.45A1.15,1.15,0,0,1,133.43,545.12Zm4-3a1.18,1.18,0,0,0,1.19,1.18,1.2,1.2,0,0,0,1.2-1.18,1.18,1.18,0,0,0-1.2-1.18A1.17,1.17,0,0,0,137.46,542.09Zm2.12,1.94h-1.86v6.53c0,.39-.16.6-.48.6a2.25,2.25,0,0,1-.48,0v1.43a4.84,4.84,0,0,0,1.17.14c.9,0,1.65-.35,1.65-1.88V544Zm7.46,0h-2.21L143,546.51v-5.12h-1.86v8.5H143v-2.46l1.8,2.46H147L144.75,547Zm.58-1.94a1.2,1.2,0,1,0,1.19-1.18A1.17,1.17,0,0,0,147.62,542.09Zm.26,7.8h1.86V544h-1.86Z"/><path class="cls-2" d="M57.53,532.55H55.46l1-3.5Zm2.95,2.57-3.08-8.5H55.59l-3,8.5h2.1l.33-1h3l.32,1h2.15Zm6.73-5.86H65l-1.81,2.48v-5.12H61.33v8.5h1.86v-2.46l1.8,2.46H67.2l-2.27-2.93,2.29-2.93Zm3.51,4.42a1.49,1.49,0,1,1,1.4-1.49A1.4,1.4,0,0,1,70.72,533.68Zm1.4-4.42v.84a2.13,2.13,0,0,0-1.79-1,3.08,3.08,0,0,0,0,6.15,2.11,2.11,0,0,0,1.79-1v.82H74v-5.85H72.12Zm6.33,4.42a1.49,1.49,0,1,1,1.4-1.49A1.4,1.4,0,0,1,78.45,533.68Zm1.4,1.44h1.86v-8.5H79.85v3.49a2.12,2.12,0,0,0-1.79-1,3.08,3.08,0,0,0,0,6.15,2.09,2.09,0,0,0,1.79-1v.83ZM89,532.64a4,4,0,0,0,.07-.86,2.78,2.78,0,0,0-3-2.67,3.09,3.09,0,1,0,0,6.17c1.67,0,2.72-.89,2.89-2H87.18a1,1,0,0,1-1.08.67,1.18,1.18,0,0,1-1.3-1.3Zm-3-2.3a1.15,1.15,0,0,1,1.2,1.23H84.79A1.15,1.15,0,0,1,86,530.34Zm13.46,4.78v-3.61c0-1.24-.35-2.39-2.05-2.39a2,2,0,0,0-1.83,1,1.71,1.71,0,0,0-1.78-1,1.81,1.81,0,0,0-1.68,1v-.86h-1.8v5.86h1.8v-2.9c0-1.15.43-1.52,1-1.52s.88.46.88,1.25v3.17h1.8v-2.94c0-1.13.42-1.48,1-1.48s.9.47.9,1.26v3.16Zm1.26-7.8a1.2,1.2,0,1,0,1.19-1.18A1.17,1.17,0,0,0,100.77,527.32Zm.27,7.8h1.86v-5.85H101Zm6.29-1.44a1.49,1.49,0,1,1,1.39-1.49A1.41,1.41,0,0,1,107.33,533.68Zm1.39-4.42v.84a2.12,2.12,0,0,0-1.78-1,3.08,3.08,0,0,0,0,6.15,2.11,2.11,0,0,0,1.78-1v.82h1.86v-5.85h-1.86Zm6.19,3a2.94,2.94,0,0,0,3.21,3c1.82,0,3.19-1,3.19-2.72s-1.59-2.27-3-2.75c-.72-.26-1.22-.56-1.22-1.12a.92.92,0,0,1,1-.88c.68,0,1,.47,1,1.23h2a2.71,2.71,0,0,0-3-2.71c-1.56,0-3,.83-3,2.4,0,1.73,1.32,2.22,2.89,2.79.74.28,1.32.51,1.32,1.19a1,1,0,0,1-1.12,1,1.33,1.33,0,0,1-1.36-1.47h-2Zm7.22-3v1.58h2.43L122,535.12h5.37v-1.57h-2.49l2.57-4.28h-5.29Zm10.14,4.44a4.58,4.58,0,0,1-.67,0c-.45,0-.79-.13-.79-1v-2.09h1.34v-1.38h-1.34v-1.74H129v1.74H128v1.38H129v2.51c0,2,1.2,2.07,2.08,2.07a7,7,0,0,0,1.23-.1v-1.42Zm5-4.44v3c0,.9-.36,1.48-1.13,1.48s-1-.58-1-1.42v-3h-1.85v3.48a2.76,2.76,0,0,0,.45,1.86,2,2,0,0,0,1.64.66,2,2,0,0,0,1.92-1v.84h1.86v-5.86h-1.86Zm9.31,0h-2.21l-1.81,2.48v-5.12h-1.86v8.5h1.86v-2.46l1.8,2.46h2.21l-2.28-2.93,2.29-2.93Zm3.95,5.86h2v-2.36h1.59a3.08,3.08,0,1,0,0-6.15H150.5Zm3.32-4h-1.35v-2.94h1.35a1.47,1.47,0,0,1,0,2.94Zm4-3.84a1.2,1.2,0,1,0,1.19-1.18A1.17,1.17,0,0,0,157.84,527.32Zm.27,7.8H160v-5.85h-1.86Zm7.44,1.45a2,2,0,0,1-.68.14.58.58,0,0,1-.56-.64,1,1,0,0,1,.5-.83,2.53,2.53,0,0,0,2.39-2h-1.82a1,1,0,0,1-1.09.66,1.16,1.16,0,0,1-1.28-1.29h4.2a4.81,4.81,0,0,0,.06-.87,2.78,2.78,0,0,0-3-2.67,2.92,2.92,0,0,0-3.11,3.09,2.87,2.87,0,0,0,2.51,3,1.59,1.59,0,0,0-.8,1.29c0,.64.49,1.18,1.52,1.18a3.49,3.49,0,0,0,1.16-.18l0-.95Zm-1.31-6.23a1.15,1.15,0,0,1,1.2,1.23H163a1.15,1.15,0,0,1,1.25-1.23Zm10.19-1.08h-2.21l-1.82,2.48v-5.12h-1.86v8.5h1.86v-2.46l1.8,2.46h2.21l-2.27-2.93,2.28-2.93Zm.85,5.86h1.86v-2.94c0-.9.37-1.48,1.13-1.48s1,.58,1,1.42v3h1.86v-3.48a2.75,2.75,0,0,0-.47-1.86,2,2,0,0,0-1.64-.66,2,2,0,0,0-1.92,1v-.86h-1.86Zm10.19,2.81a3.3,3.3,0,0,0,2.22-.63,2.57,2.57,0,0,0,.81-2v-6h-1.86v2.94c0,.91-.36,1.49-1.13,1.49s-1-.58-1-1.43v-3h-1.84v3.39a2.61,2.61,0,0,0,.45,1.81,2.08,2.08,0,0,0,1.69.7,2,2,0,0,0,1.87-1v1.21c0,.91-.42,1.2-1.14,1.2a1,1,0,0,1-1.13-1h-1.86a2.21,2.21,0,0,0,.8,1.75,3.29,3.29,0,0,0,2.16.61Zm10.41-6.37a2.74,2.74,0,0,0-3-2.45,3,3,0,0,0-3.15,3.09,3,3,0,0,0,3.15,3.08,2.75,2.75,0,0,0,3-2.35H194a1,1,0,0,1-1.1.78,1.33,1.33,0,0,1-1.37-1.51c0-.81.41-1.51,1.3-1.51s1.08.36,1.15.88h1.87Zm1.22,3.56h1.8v-2.94c0-.9.37-1.48,1.13-1.48s1,.58,1,1.42v3h1.8v-3.46a2.82,2.82,0,0,0-.47-1.87,1.87,1.87,0,0,0-1.59-.67,2,2,0,0,0-1.9,1v-3.5h-1.79v8.5Z"/><g class="cls-3"><path class="cls-2" d="M103.82,626h1.85v13.88h-1.85v-9.56H101.2v-1.54H102c1.39,0,1.85-.46,1.85-1.85Z"/><path class="cls-2" d="M113.22,640.19a3.62,3.62,0,0,1-3.7-3.54v-.77h1.85V636c0,1.7.77,2.47,1.85,2.47,1.23,0,2-.77,2-2.93v-2.31a2.6,2.6,0,0,1-2.62,1.39c-1.69,0-3.23-1.39-3.23-4.17V630a3.78,3.78,0,0,1,3.39-4.16h.61c2.16,0,3.86,1.54,3.86,4.47v5.39C117.23,638.65,115.53,640.19,113.22,640.19Zm2.16-10c0-1.85-.77-2.62-2-2.62s-2.15.77-2.15,2.62v.3c0,1.85.77,2.62,2,2.62s2-.77,2-2.62v-.3Z"/><path class="cls-2" d="M123.85,640.19c-2.15,0-3.85-1.54-3.85-4.47v-5.39c0-2.93,1.7-4.47,3.85-4.47a3.63,3.63,0,0,1,3.86,3.39V630h-1.85c0-1.69-.77-2.46-1.85-2.46-1.23,0-2,.77-2,2.92v2.32a2.57,2.57,0,0,1,2.62-1.39c1.84,0,3.39,1.39,3.39,4.16v.31a3.62,3.62,0,0,1-3.39,4.16A1.45,1.45,0,0,1,123.85,640.19Zm-2-4.31c0,1.85.77,2.62,2,2.62s2-.77,2-2.62v-.31c0-1.85-.77-2.62-2-2.62s-2,.77-2,2.62Z"/><path class="cls-2" d="M133.87,626h2.78v9.71h1.85v1.7h-1.85V640H134.8v-2.62h-4.63v-1.7Zm.93,9.71v-8.16l-3.09,8.16Z"/><path class="cls-2" d="M78.29,664.08V681h-8V640h7.86v3.4a10.77,10.77,0,0,1,8.17-4c7.4,0,12.79,5.7,12.79,14.33S93.7,668.09,86.3,668.09A11,11,0,0,1,78.29,664.08Zm13.1-10.33c0-4.31-2.78-7.24-6.48-7.24s-6.47,2.77-6.47,7.24S81.21,661,84.91,661,91.39,658.07,91.39,653.75Z"/><polygon class="cls-2" points="42.38 667.34 35.75 667.34 38.98 639.91 45.92 639.91 42.38 667.34"/><polygon class="cls-2" points="29.12 667.34 35.75 667.34 32.51 639.91 25.57 639.91 29.12 667.34"/><polygon class="cls-2" points="21.72 667.34 15.25 667.34 18.49 639.91 25.42 639.91 21.72 667.34"/><polygon class="cls-2" points="8.62 667.34 15.25 667.34 11.86 639.91 4.92 639.91 8.62 667.34"/><path class="cls-2" d="M59.79,640v-3.69a3.74,3.74,0,0,1,3.24-4h.77a13.16,13.16,0,0,1,2.62.31v-6.48a14.71,14.71,0,0,0-3.7-.46c-6.32,0-10.94,3.39-10.94,10.33v31.29h8v-21h6.78V640Z"/></g><path class="cls-2" d="M1149.19,47.76V37.41h-21.14v-8.5h19.49V18.82h-19.49v-8h21.27V.47h-34.09V47.76Zm-71.43,0V30.49c0-1.56-.07-3.57-.22-6s-.32-5-.51-7.73c1.15,2.65,2.23,5,3.26,7.05s2.27,4.28,3.73,6.69l10.5,17.27h14V.47h-13.21V17.8q0,2.6.26,6.54c.17,2.62.32,5.14.47,7.55a65.06,65.06,0,0,0-3-7c-1-2-2.08-3.94-3.27-5.88L1078.53.47h-14V47.76ZM1045,.47V47.76h12.83V.47Zm-5.47,47.29V37.41h-19.11V.47h-12.82V47.76ZM972.79,11.39h4.51a15.41,15.41,0,0,1,6.27,1.13,7.68,7.68,0,0,1,3.88,3.9,18.19,18.19,0,0,1,1.34,7.73,18.6,18.6,0,0,1-1.3,7.69,7.56,7.56,0,0,1-3.8,3.89,14.69,14.69,0,0,1-6,1.11h-4.89Zm17.87,33.55a19.69,19.69,0,0,0,8.14-8.13,26.13,26.13,0,0,0,2.87-12.66,26.16,26.16,0,0,0-2.89-12.7,19.75,19.75,0,0,0-8.18-8.14A26.39,26.39,0,0,0,978,.47H960V47.76h18.22A26.06,26.06,0,0,0,990.66,44.94ZM928,20.2q1-4.59,2-9.22,1.05,4.64,2.21,9.22t2.46,8.9h-9Q927,24.78,928,20.2Zm-7.6,27.56,2.6-9.08h14.54l2.73,9.08h14.53L938.91.47H921.39L906.06,47.76Zm-19.28,0V37.41H880v-8.5h19.49V18.82H880v-8h21.26V.47H867.17V47.76ZM832.37,11.39h4.5a15.35,15.35,0,0,1,6.27,1.13,7.7,7.7,0,0,1,3.89,3.9,18.21,18.21,0,0,1,1.33,7.73,18.43,18.43,0,0,1-1.3,7.69,7.54,7.54,0,0,1-3.79,3.89,14.74,14.74,0,0,1-6,1.11h-4.88Zm17.87,33.55a19.74,19.74,0,0,0,8.14-8.13,26.25,26.25,0,0,0,2.87-12.66,26.16,26.16,0,0,0-2.89-12.7,19.77,19.77,0,0,0-8.19-8.14A26.34,26.34,0,0,0,837.57.47h-18V47.76h18.22A26.1,26.1,0,0,0,850.24,44.94Z"/><path class="cls-2" d="M1121.67,87.93v-.38L1132,71.3h.38V87.93Zm10.35,10v7.36h12.31V97.9h5.46v-10h-5.46V58h-16.25l-19,30v10Zm-27.88,7.36V95h-18.47v-.32l4.44-3.68a77.8,77.8,0,0,0,8.35-7.74,22.59,22.59,0,0,0,4-6,13.93,13.93,0,0,0,1.13-5.41,13.22,13.22,0,0,0-2.27-7.7,14.69,14.69,0,0,0-6.43-5.1,24.61,24.61,0,0,0-9.83-1.8,22.07,22.07,0,0,0-9.59,1.95,14.71,14.71,0,0,0-6.33,5.54,15.86,15.86,0,0,0-2.24,8.57h12.19a6.1,6.1,0,0,1,1.63-4.58,6,6,0,0,1,4.34-1.58,6.19,6.19,0,0,1,4.33,1.54,5.43,5.43,0,0,1,1.7,4.23,6.87,6.87,0,0,1-1.51,4.4,28.62,28.62,0,0,1-4.14,4l-17.65,14.6v9.2Zm-68.79-13.33q-1.95-3.56-1.94-10.28t1.95-10.35a6.16,6.16,0,0,1,11.22,0q1.93,3.61,1.94,10.37t-1.94,10.28a6.22,6.22,0,0,1-11.23,0ZM1052.23,103a18.55,18.55,0,0,0,7.14-8.3,31.25,31.25,0,0,0,2.48-13.06,31.37,31.37,0,0,0-2.48-13.08,18.55,18.55,0,0,0-7.16-8.33,23.3,23.3,0,0,0-22.48,0,18.65,18.65,0,0,0-7.16,8.34,31.26,31.26,0,0,0-2.49,13.09,31.08,31.08,0,0,0,2.49,13.06,18.65,18.65,0,0,0,7.16,8.3,23.34,23.34,0,0,0,22.5,0Zm-37.62,2.25V95H996.13v-.32l4.45-3.68a76.6,76.6,0,0,0,8.34-7.74,22.42,22.42,0,0,0,4.05-6,13.93,13.93,0,0,0,1.13-5.41,13.22,13.22,0,0,0-2.27-7.7,14.75,14.75,0,0,0-6.43-5.1,24.63,24.63,0,0,0-9.84-1.8A22.05,22.05,0,0,0,986,59.29a14.71,14.71,0,0,0-6.33,5.54,15.77,15.77,0,0,0-2.24,8.57H989.6a6.1,6.1,0,0,1,1.63-4.58,6,6,0,0,1,4.33-1.58,6.17,6.17,0,0,1,4.33,1.54,5.39,5.39,0,0,1,1.7,4.23,6.81,6.81,0,0,1-1.51,4.4,27.63,27.63,0,0,1-4.14,4L978.3,96.06v9.2Zm-47.53-1.08a6.59,6.59,0,0,0,0-9.2,6.83,6.83,0,0,0-9.33,0,6.57,6.57,0,0,0,0,9.2,6.83,6.83,0,0,0,9.33,0Zm-20,1.08V95H928.56v-.32L933,91a76.6,76.6,0,0,0,8.34-7.74,22.42,22.42,0,0,0,4-6,13.93,13.93,0,0,0,1.13-5.41,13.22,13.22,0,0,0-2.27-7.7,14.75,14.75,0,0,0-6.43-5.1,24.63,24.63,0,0,0-9.84-1.8,22.05,22.05,0,0,0-9.58,1.95,14.71,14.71,0,0,0-6.33,5.54,15.77,15.77,0,0,0-2.24,8.57H922a6.1,6.1,0,0,1,1.63-4.58A6,6,0,0,1,928,67.24a6.21,6.21,0,0,1,4.34,1.54A5.42,5.42,0,0,1,934,73a6.86,6.86,0,0,1-1.5,4.4,28.24,28.24,0,0,1-4.15,4l-17.64,14.6v9.2ZM891,58l-10.6,7.11V76l10.35-7h.32v36.24h12.82V58Zm-15.47,46.21a6.59,6.59,0,0,0,0-9.2,6.83,6.83,0,0,0-9.33,0,6.59,6.59,0,0,0,0,9.2,6.83,6.83,0,0,0,9.33,0ZM831.49,91.93q-1.93-3.56-1.93-10.28t2-10.35a6.16,6.16,0,0,1,11.22,0q1.93,3.61,1.94,10.37t-1.94,10.28a6.22,6.22,0,0,1-11.24,0ZM848.38,103a18.55,18.55,0,0,0,7.14-8.3A31.25,31.25,0,0,0,858,81.65a31.37,31.37,0,0,0-2.48-13.08,18.61,18.61,0,0,0-7.16-8.33,23.3,23.3,0,0,0-22.48,0,18.65,18.65,0,0,0-7.16,8.34,31.26,31.26,0,0,0-2.49,13.09,31.08,31.08,0,0,0,2.49,13.06,18.65,18.65,0,0,0,7.16,8.3,23.34,23.34,0,0,0,22.5,0Zm-37.63,2.25V95H792.28v-.32L796.73,91a77.55,77.55,0,0,0,8.34-7.74,22.42,22.42,0,0,0,4-6,13.93,13.93,0,0,0,1.13-5.41,13.22,13.22,0,0,0-2.27-7.7,14.81,14.81,0,0,0-6.43-5.1,24.63,24.63,0,0,0-9.84-1.8,22.05,22.05,0,0,0-9.58,1.95,14.8,14.8,0,0,0-6.34,5.54,15.86,15.86,0,0,0-2.23,8.57h12.18a6.11,6.11,0,0,1,1.64-4.58,6,6,0,0,1,4.33-1.58A6.17,6.17,0,0,1,796,68.78a5.39,5.39,0,0,1,1.7,4.23,6.81,6.81,0,0,1-1.51,4.4,27.63,27.63,0,0,1-4.14,4l-17.64,14.6v9.2Z"/><path class="cls-2" d="M1146.54,196.76a4.8,4.8,0,0,0-2.14-1.56l2.72,0v-3.33H1134v3.53h7.58a2.76,2.76,0,0,1,2,.71,2.45,2.45,0,0,1,.72,1.83,2.24,2.24,0,0,1-.69,1.74,2.73,2.73,0,0,1-1.91.63H1134v3.52h8.33a5.08,5.08,0,0,0,3.62-1.24,4.27,4.27,0,0,0,1.31-3.28A4.09,4.09,0,0,0,1146.54,196.76ZM1143.48,215a6.14,6.14,0,0,1-5.73,0,2.34,2.34,0,0,1-1.13-2.11,2.37,2.37,0,0,1,1.13-2.13,6.14,6.14,0,0,1,5.73,0,2.37,2.37,0,0,1,1.13,2.13A2.34,2.34,0,0,1,1143.48,215Zm3-5.52a5.73,5.73,0,0,0-2.37-2.23,8.52,8.52,0,0,0-7.08,0,5.69,5.69,0,0,0-2.38,2.23,7.34,7.34,0,0,0,0,6.82,5.73,5.73,0,0,0,2.38,2.22,8.42,8.42,0,0,0,7.08,0,5.77,5.77,0,0,0,2.37-2.22,7.27,7.27,0,0,0,0-6.82ZM1152,232.1a7.74,7.74,0,0,0,.1-1.31,4.67,4.67,0,0,0-.93-3.09,5.89,5.89,0,0,0-2.51-1.72L1134,220.42v3.69l6.8,2.29c.56.19,1.12.36,1.69.51s1.14.3,1.73.44l-1.72.38c-.57.12-1.13.28-1.7.46l-6.8,2.2v3.74l13.14-4.93.7.1a1.54,1.54,0,0,1,1.32.8,2.48,2.48,0,0,1,0,1.74l-.11.43,2.65.81A4.32,4.32,0,0,0,1152,232.1Zm-4.89,25.44h-7.92a2.44,2.44,0,0,1-1.81-.63,2.12,2.12,0,0,1-.63-1.56,2,2,0,0,1,.57-1.47,2.07,2.07,0,0,1,1.53-.57h8.26v-3.4h-8.06a2.38,2.38,0,0,1-1.67-.58,2,2,0,0,1-.63-1.57,2,2,0,0,1,2.19-2.08h8.17v-3.53h-8.84a4.39,4.39,0,0,0-3.29,1.19,4.11,4.11,0,0,0-1.17,3,4.71,4.71,0,0,0,.71,2.5,4.16,4.16,0,0,0,2.23,1.7c-2,.6-2.94,1.72-2.94,3.38a3.89,3.89,0,0,0,2.74,3.74l-2.54.14v3.26h13.1Zm-3.64,14.73a6.14,6.14,0,0,1-5.73,0,2.34,2.34,0,0,1-1.13-2.11,2.37,2.37,0,0,1,1.13-2.13,6.14,6.14,0,0,1,5.73,0,2.37,2.37,0,0,1,1.13,2.13A2.34,2.34,0,0,1,1143.48,272.27Zm3-5.52a5.73,5.73,0,0,0-2.37-2.23,8.52,8.52,0,0,0-7.08,0,5.69,5.69,0,0,0-2.38,2.23,7.34,7.34,0,0,0,0,6.82,5.73,5.73,0,0,0,2.38,2.22,8.42,8.42,0,0,0,7.08,0,5.77,5.77,0,0,0,2.37-2.22,7.27,7.27,0,0,0,0-6.82Zm.59,15.18h-7.45a2.66,2.66,0,0,1-2-.79,2.78,2.78,0,0,1-.76-2,6.28,6.28,0,0,1,0-.84,3.67,3.67,0,0,1,.12-.69H1134a5.24,5.24,0,0,0-.12,1.14,3.2,3.2,0,0,0,.63,1.95,3.39,3.39,0,0,0,1.83,1.21V282H1134v3.4h13.1Zm-13.1,8.76h-.89a1.57,1.57,0,0,1-1.07-.33,1.42,1.42,0,0,1-.38-1.14,4.51,4.51,0,0,1,0-.65c0-.21.08-.38.12-.52l-2.65-.63a8.17,8.17,0,0,0-.23,1,7.9,7.9,0,0,0-.13,1.52,4.51,4.51,0,0,0,1,3,3.91,3.91,0,0,0,3.13,1.22h1v2.31h2.68v-2.31h10.42v-3.5H1136.7v-2.75H1134Zm9.4,22.06a5.11,5.11,0,0,1-2.84.72,5,5,0,0,1-2.82-.72,2.33,2.33,0,0,1-1.09-2.1,2.38,2.38,0,0,1,1.06-2.08,5.91,5.91,0,0,1,5.71,0,2.54,2.54,0,0,1,0,4.17Zm3.56-2.82a3.71,3.71,0,0,0-.9-1.2,4.62,4.62,0,0,0-1.06-.7v-.18h2.1V304.4h-17.46v3.51h6.56V308a4.65,4.65,0,0,0-1.06.69,3.59,3.59,0,0,0-.93,1.18,4.11,4.11,0,0,0-.37,1.86,5,5,0,0,0,.75,2.66,5.25,5.25,0,0,0,2.25,1.93,9.92,9.92,0,0,0,7.42,0,5.3,5.3,0,0,0,2.28-1.92,4.89,4.89,0,0,0,.78-2.72A4.07,4.07,0,0,0,1147,309.93Zm.14,12.51h-7.45a2.66,2.66,0,0,1-2-.79,2.78,2.78,0,0,1-.76-2,6.28,6.28,0,0,1,0-.84,3.67,3.67,0,0,1,.12-.69H1134a5.24,5.24,0,0,0-.12,1.14,3.2,3.2,0,0,0,.63,1.95,3.39,3.39,0,0,0,1.83,1.21v.14H1134V326h13.1Zm-2.61,14.46a1.31,1.31,0,0,1-1.15.55,1.37,1.37,0,0,1-1.2-.59,3.82,3.82,0,0,1-.55-1.57c0-.26-.07-.57-.13-.92s-.13-.68-.2-1a2.09,2.09,0,0,0-.26-.68h1.41a2.28,2.28,0,0,1,1.76.77,2.85,2.85,0,0,1,.72,2A2.37,2.37,0,0,1,1144.51,336.9Zm2.29-2.83a3.87,3.87,0,0,0-1.5-1.43v-.12h1.82v-3.33h-8.82a3.93,3.93,0,0,0-2.58.81,4.56,4.56,0,0,0-1.42,2.07,8,8,0,0,0-.44,2.68,6.88,6.88,0,0,0,.93,3.69,4.51,4.51,0,0,0,2.64,2l.54-3.22a2.14,2.14,0,0,1-1.07-.83,2.72,2.72,0,0,1-.44-1.64,2.3,2.3,0,0,1,.45-1.52,1.64,1.64,0,0,1,1.29-.53h.06a.83.83,0,0,1,.83.74,20.23,20.23,0,0,1,.34,2.43,10.29,10.29,0,0,0,.51,2.42,4.06,4.06,0,0,0,1.22,1.83,3.43,3.43,0,0,0,2.29.7,3.53,3.53,0,0,0,2.94-1.24,4.86,4.86,0,0,0,1-3.12A4.49,4.49,0,0,0,1146.8,334.07Zm-.61,10.88a5.06,5.06,0,0,0-3.26-1.93l-.6,3.26a3.09,3.09,0,0,1,1.67.87,2.6,2.6,0,0,1-.51,3.81,6,6,0,0,1-5.76,0,2.61,2.61,0,0,1-.52-3.79,3,3,0,0,1,1.61-.86l-.61-3.27A5,5,0,0,0,1135,345a6.3,6.3,0,0,0-1.16,3.89,6.67,6.67,0,0,0,.84,3.42,5.71,5.71,0,0,0,2.38,2.21,8.42,8.42,0,0,0,7.08,0,5.75,5.75,0,0,0,2.37-2.21,6.58,6.58,0,0,0,.85-3.42A6.27,6.27,0,0,0,1146.19,345ZM1134,359.46h-3.12V363H1134v1.8h2.68V363h6.89a3.55,3.55,0,0,0,2.76-1,4.31,4.31,0,0,0,1-3,10.66,10.66,0,0,0-.07-1.1,7,7,0,0,0-.25-1.17l-2.63.5c0,.14.06.32.09.56a3.57,3.57,0,0,1,.06.56,1.07,1.07,0,0,1-1.22,1.19h-6.59V357H1134Zm12.82,9.5a4.85,4.85,0,0,0-1.51-2.07,3.55,3.55,0,0,0-2.25-.75q-2.77,0-3.54,3.75l-.47,2.35a2.79,2.79,0,0,1-.53,1.31,1.1,1.1,0,0,1-.84.38,1.12,1.12,0,0,1-1-.59,2.71,2.71,0,0,1-.37-1.45,2.47,2.47,0,0,1,.43-1.52,2.16,2.16,0,0,1,1.1-.78l-.55-3.11a4.1,4.1,0,0,0-2.55,1.74,6.49,6.49,0,0,0-.94,3.72,6.66,6.66,0,0,0,1.09,4,3.45,3.45,0,0,0,3,1.51c2,0,3.2-1.25,3.72-3.77l.47-2.26c.23-1.13.68-1.69,1.34-1.69a1.12,1.12,0,0,1,1,.58,2.92,2.92,0,0,1,.38,1.59,2.4,2.4,0,0,1-1.83,2.62l.56,3.27a4.13,4.13,0,0,0,2.84-1.88,7,7,0,0,0,1-3.91A8,8,0,0,0,1146.84,369Zm-3.36,19.45a6.14,6.14,0,0,1-5.73,0,2.54,2.54,0,0,1,0-4.23,6.06,6.06,0,0,1,5.73,0,2.54,2.54,0,0,1,0,4.23Zm3-5.52a5.77,5.77,0,0,0-2.37-2.22,8.42,8.42,0,0,0-7.08,0,5.73,5.73,0,0,0-2.38,2.22,7.34,7.34,0,0,0,0,6.82,5.73,5.73,0,0,0,2.38,2.22,8.42,8.42,0,0,0,7.08,0,5.77,5.77,0,0,0,2.37-2.22,7.27,7.27,0,0,0,0-6.82Zm-3.09,20.46a5.91,5.91,0,0,1-5.71,0,2.39,2.39,0,0,1-1.06-2.09,2.35,2.35,0,0,1,1.09-2.1,5,5,0,0,1,2.82-.71,5.11,5.11,0,0,1,2.84.72,2.54,2.54,0,0,1,0,4.17Zm8.58.66h-7v-.11a4.62,4.62,0,0,0,1.06-.7,3.65,3.65,0,0,0,.9-1.21,4.07,4.07,0,0,0,.36-1.8,4.91,4.91,0,0,0-.78-2.72,5.35,5.35,0,0,0-2.28-1.91,10,10,0,0,0-7.42,0,5.18,5.18,0,0,0-2.25,1.93,4.93,4.93,0,0,0-.75,2.66,4.06,4.06,0,0,0,.37,1.85,3.57,3.57,0,0,0,.93,1.2,4.59,4.59,0,0,0,1.06.68v.17H1134v3.46h18Z"/><path class="cls-4" d="M658.41,241.33A46.7,46.7,0,1,0,575.68,271h0a47.78,47.78,0,0,0,6.23,6.25l19,19.07h21.42l18.82-18.82A46.58,46.58,0,0,0,658.41,241.33Z"/><path class="cls-5" d="M658.41,241.33h3.38a50.08,50.08,0,1,0-88.72,31.87l.11.12.11.12,2.39-2.4-2.61,2.16a50.87,50.87,0,0,0,6.68,6.69l2.16-2.6-2.39,2.39,20,20.06h24.24l19.8-19.81-2.39-2.39,2.14,2.63a50,50,0,0,0,18.46-38.84H655a43.22,43.22,0,0,1-16,33.59l-.13.11L621,293H602.35l-18.15-18.2-.13-.1a43.32,43.32,0,0,1-5.78-5.79l-.1-.13-.11-.11-2.4,2.39,2.61-2.15A43.32,43.32,0,1,1,655,241.33Z"/><rect class="cls-6" x="600.95" y="311.09" width="21.43" height="9.89"/><polygon class="cls-5" points="622.37 320.98 622.37 317.6 604.33 317.6 604.33 314.48 618.99 314.48 618.99 320.98 622.37 320.98 622.37 317.6 622.37 320.98 625.76 320.98 625.76 307.71 597.56 307.71 597.56 324.37 625.76 324.37 625.76 320.98 622.37 320.98"/><polygon class="cls-5" points="618.98 311.09 618.98 307.71 607.63 307.71 607.63 299.74 615.59 299.74 615.59 311.09 618.98 311.09 618.98 307.71 618.98 311.09 622.36 311.09 622.36 292.98 600.86 292.98 600.86 314.48 622.36 314.48 622.36 311.09 618.98 311.09"/><rect class="cls-7" x="877.45" y="320.33" width="155.16" height="481.96"/><polygon class="cls-5" points="1032.61 802.29 1032.61 798.93 880.81 798.93 880.81 323.7 1029.25 323.7 1029.25 802.29 1032.61 802.29 1032.61 798.93 1032.61 802.29 1035.98 802.29 1035.98 316.97 874.09 316.97 874.09 805.66 1035.98 805.66 1035.98 802.29 1032.61 802.29"/><rect class="cls-7" x="877.45" y="585.51" width="155.16" height="216.78"/><polygon class="cls-5" points="1032.61 802.29 1032.61 798.93 880.81 798.93 880.81 588.87 1029.25 588.87 1029.25 802.29 1032.61 802.29 1032.61 798.93 1032.61 802.29 1035.98 802.29 1035.98 582.15 874.09 582.15 874.09 805.66 1035.98 805.66 1035.98 802.29 1032.61 802.29"/><polygon class="cls-5" points="1011.11 802.29 1011.11 798.93 902.32 798.93 902.32 352.6 1007.75 352.6 1007.75 802.29 1011.11 802.29 1011.11 798.93 1011.11 802.29 1014.47 802.29 1014.47 345.87 895.59 345.87 895.59 805.66 1014.47 805.66 1014.47 802.29 1011.11 802.29"/><polygon class="cls-5" points="1011.11 276.97 1011.11 273.61 895.59 273.61 895.59 352.6 1014.47 352.6 1014.47 273.61 1011.11 273.61 1011.11 276.97 1007.75 276.97 1007.75 345.87 902.32 345.87 902.32 280.33 1011.11 280.33 1011.11 276.97 1007.75 276.97 1011.11 276.97"/><rect class="cls-7" x="877.45" y="276.97" width="155.16" height="72.26"/><polygon class="cls-5" points="1032.61 276.97 1032.61 273.61 874.09 273.61 874.09 352.6 1035.98 352.6 1035.98 273.61 1032.61 273.61 1032.61 276.97 1029.25 276.97 1029.25 345.87 880.81 345.87 880.81 280.33 1032.61 280.33 1032.61 276.97 1029.25 276.97 1032.61 276.97"/><rect class="cls-8" x="889.78" y="224.58" width="130.5" height="52.39"/><polygon class="cls-5" points="1020.28 224.58 1020.28 221.22 886.42 221.22 886.42 280.33 1023.64 280.33 1023.64 221.22 1020.28 221.22 1020.28 224.58 1016.92 224.58 1016.92 273.61 893.15 273.61 893.15 227.94 1020.28 227.94 1020.28 224.58 1016.92 224.58 1020.28 224.58"/><polyline class="cls-5" points="951.67 246.9 951.67 802.29 958.39 802.29 958.39 246.9"/><polyline class="cls-5" points="895.59 246.9 895.59 802.29 902.32 802.29 902.32 246.9"/><polyline class="cls-5" points="876.9 246.9 876.9 276.97 883.63 276.97 883.63 246.9"/><polyline class="cls-5" points="932.98 246.9 932.98 802.29 939.7 802.29 939.7 246.9"/><polyline class="cls-5" points="914.28 246.9 914.28 802.29 921.01 802.29 921.01 246.9"/><polyline class="cls-5" points="970.36 246.9 970.36 802.29 977.09 802.29 977.09 246.9"/><polyline class="cls-5" points="989.05 246.9 989.05 802.29 995.78 802.29 995.78 246.9"/><polyline class="cls-5" points="1026.44 246.9 1026.44 276.97 1033.16 276.97 1033.16 246.9"/><polyline class="cls-5" points="1007.75 246.9 1007.75 802.29 1014.47 802.29 1014.47 246.9"/><rect class="cls-7" x="917.65" y="748.98" width="74.77" height="53.32"/><polygon class="cls-5" points="992.42 802.29 992.42 798.93 921.01 798.93 921.01 752.34 989.05 752.34 989.05 802.29 992.42 802.29 992.42 798.93 992.42 802.29 995.78 802.29 995.78 745.62 914.28 745.62 914.28 805.66 995.78 805.66 995.78 802.29 992.42 802.29"/><rect class="cls-7" x="936.34" y="730.5" width="37.38" height="71.8"/><polygon class="cls-5" points="973.72 802.29 973.72 798.93 939.7 798.93 939.7 733.86 970.36 733.86 970.36 802.29 973.72 802.29 973.72 798.93 973.72 802.29 977.09 802.29 977.09 727.13 932.98 727.13 932.98 805.66 977.09 805.66 977.09 802.29 973.72 802.29"/><polygon class="cls-6" points="887.59 601.75 884.24 601.75 884.24 812.53 887.59 812.53 1063.24 812.53 1063.24 601.75 887.59 601.75"/><polygon class="cls-5" points="887.59 601.75 887.59 598.39 880.88 598.39 880.88 815.89 887.59 815.89 1066.6 815.89 1066.6 598.39 887.59 598.39 887.59 601.75 887.59 605.12 1059.87 605.12 1059.87 809.16 887.59 809.16 884.24 809.16 884.24 812.53 887.6 812.53 887.6 601.75 884.24 601.75 884.24 605.12 887.59 605.12 887.59 601.75"/><rect class="cls-6" x="1063.26" y="601.93" width="85.39" height="210.77"/><polygon class="cls-5" points="1063.26 601.93 1063.26 605.29 1145.29 605.29 1145.29 809.34 1066.62 809.34 1066.62 601.93 1063.26 601.93 1063.26 605.29 1063.26 601.93 1059.89 601.93 1059.89 816.07 1152.02 816.07 1152.02 598.57 1059.89 598.57 1059.89 601.93 1063.26 601.93"/><polygon class="cls-5" points="911.08 701.57 911.08 698.21 880.88 698.21 880.88 815.89 911.08 815.89 941.28 815.89 941.28 698.21 911.08 698.21 911.08 701.57 911.08 704.94 934.56 704.94 934.56 809.16 911.08 809.16 887.6 809.16 887.6 704.94 911.08 704.94 911.08 701.57"/><polyline class="cls-5" points="937.92 737.37 887.59 737.37 887.59 744.09 937.92 744.09"/><path class="cls-6" d="M884.24,601.75H929a16.17,16.17,0,0,1-16.18-16.18H900.43A16.18,16.18,0,0,1,884.24,601.75Z"/><path class="cls-5" d="M884.24,601.75v3.37H929v-6.73a12.82,12.82,0,0,1-12.82-12.82v-3.36H897.06v3.36a12.82,12.82,0,0,1-12.82,12.82v6.73a19.56,19.56,0,0,0,19.55-19.55h-3.36v3.36h12.38v-3.36h-3.37A19.56,19.56,0,0,0,929,605.12v-6.73H884.24v3.36Z"/><path class="cls-6" d="M929,601.75h44.75a16.18,16.18,0,0,1-16.19-16.18H945.18A16.18,16.18,0,0,1,929,601.75Z"/><path class="cls-5" d="M929,601.75v3.37h44.75v-6.73a12.82,12.82,0,0,1-12.82-12.82v-3.36H941.81v3.36A12.82,12.82,0,0,1,929,598.39v6.73a19.56,19.56,0,0,0,19.55-19.55h-3.36v3.36h12.37v-3.36h-3.36a19.56,19.56,0,0,0,19.55,19.55v-6.73H929v3.36Z"/><path class="cls-6" d="M973.74,601.75h44.75a16.18,16.18,0,0,1-16.19-16.18H989.93A16.18,16.18,0,0,1,973.74,601.75Z"/><path class="cls-5" d="M973.74,601.75v3.37h44.75v-6.73a12.82,12.82,0,0,1-12.82-12.82v-3.36H986.56v3.36a12.82,12.82,0,0,1-12.82,12.82v6.73a19.56,19.56,0,0,0,19.55-19.55h-3.36v3.36h12.37v-3.36h-3.36a19.56,19.56,0,0,0,19.55,19.55v-6.73H973.74v3.36Z"/><path class="cls-6" d="M1018.49,601.75h44.75a16.18,16.18,0,0,1-16.19-16.18h-12.37A16.18,16.18,0,0,1,1018.49,601.75Z"/><path class="cls-5" d="M1018.49,601.75v3.37h44.75v-6.73a12.82,12.82,0,0,1-12.82-12.82v-3.36h-19.11v3.36a12.82,12.82,0,0,1-12.82,12.82v6.73A19.56,19.56,0,0,0,1038,585.57h-3.36v3.36h12.37v-3.36h-3.36a19.56,19.56,0,0,0,19.55,19.55v-6.73h-44.75v3.36Z"/><path class="cls-6" d="M1061.19,601.75h44.75a16.17,16.17,0,0,1-16.18-16.18h-12.38A16.18,16.18,0,0,1,1061.19,601.75Z"/><path class="cls-5" d="M1061.19,601.75v3.37h44.75v-6.73a12.84,12.84,0,0,1-12.82-12.82v-3.36H1074v3.36a12.84,12.84,0,0,1-12.83,12.82v6.73a19.55,19.55,0,0,0,19.55-19.55h-3.36v3.36h12.38v-3.36h-3.37a19.56,19.56,0,0,0,19.55,19.55v-6.73h-44.75v3.36Z"/><path class="cls-6" d="M1105.94,601.75h44.75a16.17,16.17,0,0,1-16.18-16.18h-12.38A16.18,16.18,0,0,1,1105.94,601.75Z"/><path class="cls-5" d="M1105.94,601.75v3.37h44.75v-6.73a12.82,12.82,0,0,1-12.82-12.82v-3.36h-19.1v3.36a12.84,12.84,0,0,1-12.83,12.82v6.73a19.56,19.56,0,0,0,19.55-19.55h-3.36v3.36h12.38v-3.36h-3.37a19.56,19.56,0,0,0,19.55,19.55v-6.73h-44.75v3.36Z"/><polyline class="cls-5" points="1145.29 582.19 1145.29 601.75 1152.02 601.75 1152.02 582.19"/><polyline class="cls-5" points="1124.95 635.4 1124.95 654.96 1131.68 654.96 1131.68 635.4"/><polyline class="cls-5" points="1102.58 635.4 1102.58 654.96 1109.3 654.96 1109.3 635.4"/><polyline class="cls-5" points="1102.58 672.24 1102.58 691.8 1109.3 691.8 1109.3 672.24"/><polyline class="cls-5" points="1102.58 713.02 1102.58 732.58 1109.3 732.58 1109.3 713.02"/><polyline class="cls-5" points="1102.58 755.48 1102.58 775.04 1109.3 775.04 1109.3 755.48"/><polyline class="cls-5" points="1080.2 635.4 1080.2 654.96 1086.93 654.96 1086.93 635.4"/><polyline class="cls-5" points="1059.87 635.4 1059.87 654.96 1066.6 654.96 1066.6 635.4"/><polyline class="cls-5" points="1037.5 635.4 1037.5 654.96 1044.23 654.96 1044.23 635.4"/><polyline class="cls-5" points="1015.13 635.4 1015.13 654.96 1021.85 654.96 1021.85 635.4"/><polyline class="cls-5" points="992.75 635.4 992.75 654.96 999.48 654.96 999.48 635.4"/><polyline class="cls-5" points="970.38 635.4 970.38 654.96 977.1 654.96 977.1 635.4"/><polyline class="cls-5" points="948 635.4 948 654.96 954.73 654.96 954.73 635.4"/><polyline class="cls-5" points="925.63 635.4 925.63 654.96 932.35 654.96 932.35 635.4"/><polyline class="cls-5" points="903.25 635.4 903.25 654.96 909.98 654.96 909.98 635.4"/><polyline class="cls-5" points="1059.87 672.24 1059.87 691.8 1066.6 691.8 1066.6 672.24"/><polyline class="cls-5" points="1037.5 672.24 1037.5 691.8 1044.23 691.8 1044.23 672.24"/><polyline class="cls-5" points="1015.13 672.24 1015.13 691.8 1021.85 691.8 1021.85 672.24"/><polyline class="cls-5" points="992.75 672.24 992.75 691.8 999.48 691.8 999.48 672.24"/><polyline class="cls-5" points="970.38 672.24 970.38 691.8 977.1 691.8 977.1 672.24"/><polyline class="cls-5" points="948 672.24 948 691.8 954.73 691.8 954.73 672.24"/><polyline class="cls-5" points="925.63 672.24 925.63 691.8 932.35 691.8 932.35 672.24"/><polyline class="cls-5" points="903.25 672.24 903.25 691.8 909.98 691.8 909.98 672.24"/><polyline class="cls-5" points="903.25 701.57 903.25 812.53 909.98 812.53 909.98 701.57"/><polyline class="cls-5" points="1059.87 713.02 1059.87 732.58 1066.6 732.58 1066.6 713.02"/><polyline class="cls-5" points="1037.5 713.02 1037.5 732.58 1044.23 732.58 1044.23 713.02"/><polyline class="cls-5" points="1015.13 713.02 1015.13 732.58 1021.85 732.58 1021.85 713.02"/><polyline class="cls-5" points="992.75 713.02 992.75 732.58 999.48 732.58 999.48 713.02"/><polyline class="cls-5" points="970.38 713.02 970.38 732.58 977.1 732.58 977.1 713.02"/><polyline class="cls-5" points="948 713.02 948 732.58 954.73 732.58 954.73 713.02"/><polyline class="cls-5" points="1059.87 755.48 1059.87 775.04 1066.6 775.04 1066.6 755.48"/><polyline class="cls-5" points="1037.5 755.48 1037.5 775.04 1044.23 775.04 1044.23 755.48"/><polyline class="cls-5" points="1015.13 755.48 1015.13 775.04 1021.85 775.04 1021.85 755.48"/><polyline class="cls-5" points="992.75 755.48 992.75 775.04 999.48 775.04 999.48 755.48"/><polyline class="cls-5" points="970.38 755.48 970.38 775.04 977.1 775.04 977.1 755.48"/><polyline class="cls-5" points="948 755.48 948 775.04 954.73 775.04 954.73 755.48"/><polyline class="cls-5" points="794.47 660.47 1146.11 660.47 1146.11 653.74 794.47 653.74"/><polyline class="cls-5" points="794.47 629.35 1146.11 629.35 1146.11 622.62 794.47 622.62"/><rect class="cls-8" x="509.19" y="733.01" width="441.84" height="79.69"/><polygon class="cls-5" points="951.03 733.01 951.03 729.65 505.83 729.65 505.83 816.07 954.39 816.07 954.39 729.65 951.03 729.65 951.03 733.01 947.67 733.01 947.67 809.34 512.55 809.34 512.55 736.38 951.03 736.38 951.03 733.01 947.67 733.01 951.03 733.01"/><rect class="cls-8" x="522.36" y="717.33" width="416.35" height="15.68"/><polygon class="cls-5" points="938.71 717.33 938.71 713.97 519 713.97 519 736.38 942.07 736.38 942.07 713.97 938.71 713.97 938.71 717.33 935.35 717.33 935.35 729.65 525.72 729.65 525.72 720.69 938.71 720.69 938.71 717.33 935.35 717.33 938.71 717.33"/><polygon class="cls-8" points="788.46 330.74 694 411.87 694 717.33 832.92 717.33 832.92 411.87 832.92 359.64 788.46 330.74"/><polygon class="cls-5" points="788.46 330.74 786.26 328.19 690.63 410.32 690.63 720.69 836.29 720.69 836.29 411.87 836.29 357.82 788.18 326.55 786.26 328.19 788.46 330.74 786.62 333.56 829.56 361.47 829.56 411.87 829.56 713.97 697.36 713.97 697.36 413.41 790.65 333.29 788.46 330.74 786.62 333.56 788.46 330.74"/><polyline class="cls-5" points="790.65 333.29 835.12 295.1 830.73 290 786.26 328.19"/><polyline class="cls-5" points="836.29 359.64 836.29 204.11 829.56 204.11 829.56 359.64"/><rect class="cls-8" x="509.19" y="793.27" width="441.84" height="19.43"/><polygon class="cls-5" points="951.03 793.27 951.03 789.9 505.83 789.9 505.83 816.07 954.39 816.07 954.39 789.9 951.03 789.9 951.03 793.27 947.67 793.27 947.67 809.34 512.55 809.34 512.55 796.63 951.03 796.63 951.03 793.27 947.67 793.27 951.03 793.27"/><rect class="cls-9" x="806.07" y="615.92" width="53.91" height="196.78"/><polygon class="cls-5" points="859.98 615.92 859.98 612.55 802.7 612.55 802.7 816.07 863.34 816.07 863.34 612.55 859.98 612.55 859.98 615.92 856.62 615.92 856.62 809.34 809.43 809.34 809.43 619.28 859.98 619.28 859.98 615.92 856.62 615.92 859.98 615.92"/><rect class="cls-10" x="865.96" y="466.63" width="64.18" height="21.07"/><polygon class="cls-5" points="930.14 487.7 930.14 484.33 869.32 484.33 869.32 470 926.78 470 926.78 487.7 930.14 487.7 930.14 484.33 930.14 487.7 933.5 487.7 933.5 466.63 930.14 463.27 865.96 463.27 862.6 466.63 862.6 487.7 865.96 491.06 930.14 491.06 933.5 487.7 930.14 487.7"/><path class="cls-6" d="M849.46,640.89a16.54,16.54,0,0,0-33.07,0v48.44h33.07Z"/><path class="cls-5" d="M849.46,640.89h3.37a19.9,19.9,0,0,0-39.8,0V692.7h39.8V640.89H846.1V686H819.76V640.89a13.17,13.17,0,0,1,26.34,0Z"/><rect class="cls-6" x="806.07" y="566.51" width="53.72" height="49.41"/><polygon class="cls-5" points="859.79 566.51 859.79 563.14 802.7 563.14 802.7 619.28 863.15 619.28 863.15 563.14 859.79 563.14 859.79 566.51 856.43 566.51 856.43 612.55 809.43 612.55 809.43 569.87 859.79 569.87 859.79 566.51 856.43 566.51 859.79 566.51"/><polygon class="cls-9" points="842.2 546.46 832.93 546.46 832.93 546.46 823.66 546.46 806.07 566.51 832.93 566.51 832.93 566.51 859.79 566.51 842.2 546.46"/><polygon class="cls-5" points="842.2 546.46 842.2 543.09 832.93 543.09 829.57 546.46 829.57 546.46 832.93 546.46 832.93 543.09 823.66 543.09 821.13 544.24 803.54 564.29 806.07 569.87 832.93 569.87 836.29 566.51 836.29 566.51 832.93 566.51 832.93 569.87 859.79 569.87 862.32 564.29 844.73 544.24 842.2 543.09 842.2 546.46 839.67 548.67 852.37 563.14 832.93 563.14 829.57 566.51 829.57 566.51 832.93 566.51 832.93 563.14 813.49 563.14 825.18 549.82 832.93 549.82 836.29 546.46 836.29 546.46 832.93 546.46 832.93 549.82 842.2 549.82 842.2 546.46 839.67 548.67 842.2 546.46"/><polyline class="cls-5" points="836.29 546.46 836.29 523.07 829.57 523.07 829.57 546.46"/><polyline class="cls-5" points="829.56 601.93 829.56 615.92 836.28 615.92 836.28 601.93"/><rect class="cls-9" x="729.5" y="500.74" width="76.56" height="311.96"/><polygon class="cls-5" points="806.07 812.7 806.07 809.34 732.87 809.34 732.87 504.11 802.7 504.11 802.7 812.7 806.07 812.7 806.07 809.34 806.07 812.7 809.43 812.7 809.43 497.38 726.14 497.38 726.14 816.07 809.43 816.07 809.43 812.7 806.07 812.7"/><polygon class="cls-9" points="729.5 812.7 716.81 812.7 716.81 682.49 729.5 672.58 729.5 812.7"/><polygon class="cls-5" points="729.5 812.7 729.5 809.34 720.17 809.34 720.17 684.13 726.14 679.47 726.14 812.7 729.5 812.7 729.5 809.34 729.5 812.7 732.87 812.7 732.87 665.68 713.44 680.85 713.44 816.07 732.87 816.07 732.87 812.7 729.5 812.7"/><polygon class="cls-9" points="716.81 812.7 679.42 812.7 679.42 727.95 716.81 717.33 716.81 812.7"/><polygon class="cls-5" points="716.81 812.7 716.81 809.34 682.78 809.34 682.78 730.49 713.44 721.78 713.44 812.7 716.81 812.7 716.81 809.34 716.81 812.7 720.17 812.7 720.17 712.88 676.06 725.41 676.06 816.07 720.17 816.07 720.17 812.7 716.81 812.7"/><rect class="cls-9" x="736.27" y="487.7" width="63.05" height="13.04"/><polygon class="cls-5" points="799.32 487.7 799.32 484.33 732.91 484.33 732.91 504.11 802.68 504.11 802.68 484.33 799.32 484.33 799.32 487.7 795.95 487.7 795.95 497.38 739.63 497.38 739.63 491.06 799.32 491.06 799.32 487.7 795.95 487.7 799.32 487.7"/><rect class="cls-9" x="859.77" y="487.7" width="76.56" height="13.04"/><polygon class="cls-5" points="936.33 487.7 936.33 484.33 856.4 484.33 856.4 504.11 939.69 504.11 939.69 484.33 936.33 484.33 936.33 487.7 932.97 487.7 932.97 497.38 863.13 497.38 863.13 491.06 936.33 491.06 936.33 487.7 932.97 487.7 936.33 487.7"/><rect class="cls-10" x="736.27" y="411.87" width="63.05" height="22.7"/><polygon class="cls-5" points="799.32 411.87 799.32 408.51 732.91 408.51 732.91 437.94 802.68 437.94 802.68 408.51 799.32 408.51 799.32 411.87 795.95 411.87 795.95 431.21 739.63 431.21 739.63 415.23 799.32 415.23 799.32 411.87 795.95 411.87 799.32 411.87"/><rect class="cls-9" x="736.27" y="434.57" width="63.05" height="53.12"/><polygon class="cls-5" points="799.32 434.57 799.32 431.21 732.91 431.21 732.91 491.06 802.68 491.06 802.68 431.21 799.32 431.21 799.32 434.57 795.95 434.57 795.95 484.33 739.63 484.33 739.63 437.94 799.32 437.94 799.32 434.57 795.95 434.57 799.32 434.57"/><polyline class="cls-5" points="757.03 500.74 757.03 411.87 750.3 411.87 750.3 500.74"/><polyline class="cls-5" points="788.71 500.74 788.71 411.87 781.99 411.87 781.99 500.74"/><polyline class="cls-5" points="764.42 466.67 764.42 487.7 771.15 487.7 771.15 466.67"/><polygon class="cls-10" points="750.29 411.87 785.49 411.87 767.9 261.68 750.29 411.87"/><polygon class="cls-5" points="750.29 411.87 750.29 415.23 785.49 415.23 788.83 411.48 771.24 261.29 764.55 261.29 746.95 411.48 750.29 415.23 750.29 411.87 753.63 412.26 767.89 290.58 781.71 408.51 750.29 408.51 750.29 411.87 753.63 412.26 750.29 411.87"/><polyline class="cls-5" points="750.29 706.93 750.29 727.96 757.02 727.96 757.02 706.93"/><polyline class="cls-5" points="778.63 706.92 778.63 727.95 785.35 727.95 785.35 706.92"/><polyline class="cls-5" points="764.42 740.9 764.42 761.93 771.15 761.93 771.15 740.9"/><polyline class="cls-5" points="764.42 775.72 764.42 796.75 771.15 796.75 771.15 775.72"/><polyline class="cls-5" points="764.42 432.78 764.42 453.81 771.15 453.81 771.15 432.78"/><polyline class="cls-5" points="726.14 437.94 809.43 437.94 809.43 431.21 726.14 431.21"/><polygon class="cls-10" points="782.12 411.87 802.68 411.87 792.4 354.14 782.12 411.87"/><polygon class="cls-5" points="782.12 411.87 782.12 415.23 802.68 415.23 805.99 411.28 795.71 353.55 789.09 353.55 778.81 411.28 782.12 415.23 782.12 411.87 785.43 412.46 792.4 373.33 798.66 408.51 782.12 408.51 782.12 411.87 785.43 412.46 782.12 411.87"/><polygon class="cls-10" points="732.84 411.87 753.4 411.87 743.12 354.14 732.84 411.87"/><polygon class="cls-5" points="732.84 411.87 732.84 415.23 753.4 415.23 756.71 411.28 746.43 353.55 739.81 353.55 729.53 411.28 732.84 415.23 732.84 411.87 736.15 412.46 743.12 373.33 749.38 408.51 732.84 408.51 732.84 411.87 736.15 412.46 732.84 411.87"/><rect class="cls-4" x="753.66" y="337.3" width="28.46" height="13.06"/><polygon class="cls-5" points="782.12 337.3 782.12 333.94 750.3 333.94 750.3 353.73 785.49 353.73 785.49 333.94 782.12 333.94 782.12 337.3 778.76 337.3 778.76 347 757.03 347 757.03 340.67 782.12 340.67 782.12 337.3 778.76 337.3 782.12 337.3"/><polyline class="cls-5" points="785.5 594.89 785.5 615.92 792.23 615.92 792.23 594.89"/><polyline class="cls-5" points="743.6 594.89 743.6 615.92 750.33 615.92 750.33 594.89"/><path class="cls-6" d="M774,598a6.13,6.13,0,1,0-12.26,0v18H774Z"/><path class="cls-5" d="M774,598h3.36a9.49,9.49,0,0,0-19,0v21.32h19V598H770.6v14.59h-5.53V598a2.76,2.76,0,0,1,4.72-2,2.79,2.79,0,0,1,.81,2Z"/><polyline class="cls-5" points="785.5 634.84 785.5 655.87 792.23 655.87 792.23 634.84"/><polyline class="cls-5" points="743.6 634.84 743.6 655.87 750.33 655.87 750.33 634.84"/><path class="cls-6" d="M774,637.91a6.13,6.13,0,0,0-12.26,0v18H774Z"/><path class="cls-5" d="M774,637.91h3.36a9.49,9.49,0,0,0-19,0v21.32h19V637.91H770.6V652.5h-5.53V637.91a2.76,2.76,0,0,1,4.72-1.95,2.75,2.75,0,0,1,.81,1.95Z"/><polyline class="cls-5" points="785.5 675.32 785.5 696.35 792.23 696.35 792.23 675.32"/><polyline class="cls-5" points="743.6 675.32 743.6 696.35 750.33 696.35 750.33 675.32"/><path class="cls-6" d="M774,678.4a6.13,6.13,0,0,0-12.26,0v18H774Z"/><path class="cls-5" d="M774,678.4h3.36a9.49,9.49,0,1,0-19,0v21.32h19V678.4H770.6V693h-5.53V678.4a2.76,2.76,0,0,1,4.72-2,2.76,2.76,0,0,1,.81,2Z"/><path class="cls-6" d="M704.28,766A6.13,6.13,0,1,0,692,766v18h12.25Z"/><path class="cls-5" d="M704.28,766h3.37a9.5,9.5,0,0,0-19,0v21.32h19V766h-6.73v14.6h-5.53V766a2.77,2.77,0,0,1,5.53,0Z"/><polyline class="cls-5" points="785.5 552.42 785.5 573.45 792.23 573.45 792.23 552.42"/><polyline class="cls-5" points="743.6 552.42 743.6 573.45 750.33 573.45 750.33 552.42"/><path class="cls-6" d="M774,556a6.13,6.13,0,1,0-12.26,0v18H774Z"/><path class="cls-5" d="M774,556h3.36a9.49,9.49,0,1,0-19,0v21.32h19V556H770.6v14.59h-5.53V556a2.76,2.76,0,0,1,4.72-2,2.76,2.76,0,0,1,.81,2Z"/><polyline class="cls-5" points="785.31 513.44 785.31 534.47 792.04 534.47 792.04 513.44"/><polyline class="cls-5" points="743.6 513.38 743.6 534.41 750.33 534.41 750.33 513.38"/><path class="cls-6" d="M774,516.46a6.13,6.13,0,1,0-12.26,0v17.95H774Z"/><path class="cls-5" d="M774,516.46h3.36a9.49,9.49,0,0,0-19,0v21.32h19V516.46H770.6v14.59h-5.53V516.46a2.72,2.72,0,0,1,.81-2,2.77,2.77,0,0,1,4.72,2Z"/><rect class="cls-9" x="859.77" y="500.74" width="76.56" height="311.96"/><polygon class="cls-5" points="859.77 812.7 859.77 816.07 939.69 816.07 939.69 497.38 856.4 497.38 856.4 816.07 859.77 816.07 859.77 812.7 863.13 812.7 863.13 504.11 932.97 504.11 932.97 809.34 859.77 809.34 859.77 812.7 863.13 812.7 859.77 812.7"/><polygon class="cls-9" points="936.33 812.7 973.72 812.7 973.72 727.95 936.33 717.33 936.33 812.7"/><polygon class="cls-5" points="936.33 812.7 936.33 816.07 977.08 816.07 977.08 725.41 932.97 712.88 932.97 816.07 936.33 816.07 936.33 812.7 939.69 812.7 939.69 721.78 970.35 730.49 970.35 809.34 936.33 809.34 936.33 812.7 939.69 812.7 936.33 812.7"/><path class="cls-6" d="M948.85,766a6.13,6.13,0,0,1,12.26,0v18H948.85Z"/><path class="cls-5" d="M948.85,766h3.37a2.76,2.76,0,0,1,4.72-2,2.75,2.75,0,0,1,.81,2v14.6h-5.53V766h-6.73v21.32h19V766a9.49,9.49,0,0,0-19,0Z"/><polyline class="cls-5" points="880.43 706.93 880.43 727.96 887.15 727.96 887.15 706.93"/><polyline class="cls-5" points="908.76 706.92 908.76 727.95 915.49 727.95 915.49 706.92"/><polyline class="cls-5" points="894.56 740.9 894.56 761.93 901.28 761.93 901.28 740.9"/><polyline class="cls-5" points="894.56 775.72 894.56 796.75 901.28 796.75 901.28 775.72"/><polyline class="cls-5" points="915.64 594.89 915.64 615.92 922.36 615.92 922.36 594.89"/><polyline class="cls-5" points="873.74 594.89 873.74 615.92 880.46 615.92 880.46 594.89"/><path class="cls-6" d="M904.09,598a6.13,6.13,0,1,0-12.25,0v18h12.25Z"/><path class="cls-5" d="M904.09,598h3.37a9.5,9.5,0,0,0-19,0v21.32h19V598h-6.73v14.59H895.2V598a2.75,2.75,0,0,1,.81-2,2.77,2.77,0,0,1,4.72,2Z"/><polyline class="cls-5" points="915.64 634.84 915.64 655.87 922.36 655.87 922.36 634.84"/><polyline class="cls-5" points="873.74 634.84 873.74 655.87 880.46 655.87 880.46 634.84"/><path class="cls-6" d="M904.1,637.91a6.13,6.13,0,0,0-12.26,0v18H904.1Z"/><path class="cls-5" d="M904.1,637.91h3.36a9.5,9.5,0,0,0-19,0v21.32h19V637.91h-6.73V652.5H895.2V637.91A2.75,2.75,0,0,1,896,636a2.77,2.77,0,0,1,4.72,1.95Z"/><polyline class="cls-5" points="915.64 675.32 915.64 696.35 922.36 696.35 922.36 675.32"/><polyline class="cls-5" points="873.74 675.32 873.74 696.35 880.46 696.35 880.46 675.32"/><path class="cls-6" d="M904.1,678.4a6.13,6.13,0,0,0-12.26,0v18H904.1Z"/><path class="cls-5" d="M904.1,678.4h3.36a9.5,9.5,0,1,0-19,0v21.32h19V678.4h-6.73V693H895.2V678.4a2.76,2.76,0,0,1,.81-2,2.77,2.77,0,0,1,4.72,2Z"/><polyline class="cls-5" points="915.64 552.42 915.64 573.45 922.36 573.45 922.36 552.42"/><polyline class="cls-5" points="873.74 552.42 873.74 573.45 880.46 573.45 880.46 552.42"/><path class="cls-6" d="M904.1,556a6.13,6.13,0,0,0-12.26,0v18H904.1Z"/><path class="cls-5" d="M904.1,556h3.36a9.5,9.5,0,1,0-19,0v21.32h19V556h-6.73v14.59H895.2V556a2.76,2.76,0,0,1,.81-2,2.77,2.77,0,0,1,4.72,2Z"/><polyline class="cls-5" points="915.45 513.44 915.45 534.47 922.17 534.47 922.17 513.44"/><polyline class="cls-5" points="873.74 513.38 873.74 534.41 880.46 534.41 880.46 513.38"/><path class="cls-6" d="M904.1,516.46a6.13,6.13,0,0,0-12.26,0v17.95H904.1Z"/><path class="cls-5" d="M904.1,516.46h3.36a9.5,9.5,0,0,0-19,0v21.32h19V516.46h-6.73v14.59H895.2V516.46a2.76,2.76,0,0,1,4.72-2,2.72,2.72,0,0,1,.81,2Z"/><rect class="cls-10" x="887.98" y="411.87" width="20.25" height="22.7"/><polygon class="cls-5" points="908.23 411.87 904.87 411.87 904.87 431.21 891.34 431.21 891.34 415.23 908.23 415.23 908.23 411.87 904.87 411.87 908.23 411.87 908.23 408.51 887.98 408.51 884.61 411.87 884.61 434.57 887.98 437.94 908.23 437.94 911.59 434.57 911.59 411.87 908.23 408.51 908.23 411.87"/><path class="cls-10" d="M908.17,411.87H887.92a10.13,10.13,0,1,1,20.25,0Z"/><path class="cls-5" d="M908.17,411.87v-3.36H887.92v3.36h3.37a6.76,6.76,0,0,1,13.52,0h3.36v0h3.37a13.49,13.49,0,1,0-27,0v3.36h27v-3.36Z"/><rect class="cls-10" x="859.77" y="466.67" width="21.03" height="21.03"/><polygon class="cls-5" points="880.8 466.67 877.43 466.67 877.43 484.33 863.13 484.33 863.13 470.03 880.8 470.03 880.8 466.67 877.43 466.67 880.8 466.67 880.8 463.31 859.77 463.31 856.4 466.67 856.4 487.7 859.77 491.06 880.8 491.06 884.16 487.7 884.16 466.67 880.8 463.31 880.8 466.67"/><rect class="cls-10" x="915.3" y="466.67" width="21.03" height="21.03"/><polygon class="cls-5" points="936.33 466.67 932.97 466.67 932.97 484.33 918.66 484.33 918.66 470.03 936.33 470.03 936.33 466.67 932.97 466.67 936.33 466.67 936.33 463.31 915.3 463.31 911.94 466.67 911.94 487.7 915.3 491.06 936.33 491.06 939.69 487.7 939.69 466.67 936.33 463.31 936.33 466.67"/><rect class="cls-10" x="822.78" y="710.31" width="20.25" height="22.7"/><polygon class="cls-5" points="843.04 710.31 839.67 710.31 839.67 729.65 826.15 729.65 826.15 713.67 843.04 713.67 843.04 710.31 839.67 710.31 843.04 710.31 843.04 706.95 822.78 706.95 819.42 710.31 819.42 733.01 822.78 736.38 843.04 736.38 846.4 733.01 846.4 710.31 843.04 706.95 843.04 710.31"/><path class="cls-10" d="M843,710.31H822.73a10.13,10.13,0,1,1,20.25,0Z"/><path class="cls-5" d="M843,710.31V707H822.73v3.36h3.36a6.77,6.77,0,0,1,11.55-4.78,6.7,6.7,0,0,1,2,4.78H843v0h3.37a13.49,13.49,0,1,0-27,0v3.36h27v-3.36Z"/><polyline class="cls-5" points="836.22 700.18 836.22 680.14 829.49 680.14 829.49 700.18"/><polyline class="cls-5" points="771.16 265.23 771.16 245.18 764.43 245.18 764.43 265.23"/><rect class="cls-7" x="793.69" y="759.87" width="78.34" height="52.83"/><polygon class="cls-5" points="872.03 812.7 872.03 809.34 797.05 809.34 797.05 763.24 868.66 763.24 868.66 812.7 872.03 812.7 872.03 809.34 872.03 812.7 875.39 812.7 875.39 756.51 790.32 756.51 790.32 816.07 875.39 816.07 875.39 812.7 872.03 812.7"/><path class="cls-6" d="M823.49,785a9.44,9.44,0,0,1,18.88,0V812.7H823.49Z"/><path class="cls-5" d="M823.49,785h3.36A6.08,6.08,0,1,1,839,785v24.3H826.85V785h-6.73v31h25.61V785a12.81,12.81,0,1,0-25.61,0Z"/><polyline class="cls-5" points="802.7 775.72 802.7 812.7 809.42 812.7 809.42 775.72"/><polyline class="cls-5" points="856.61 775.72 856.61 812.7 863.34 812.7 863.34 775.72"/><path class="cls-10" d="M860,759.87H806.07a27,27,0,0,1,53.91,0Z"/><path class="cls-5" d="M860,759.87v-3.36H806.07v3.36h3.36a23.6,23.6,0,0,1,47.19,0H860v0h3.36a30.32,30.32,0,1,0-60.63,0v3.37h60.63v-3.37Z"/><path class="cls-10" d="M930.14,466.67H866a32.09,32.09,0,1,1,64.18,0Z"/><path class="cls-5" d="M930.14,466.67V463.3H866v3.37h3.36a28.73,28.73,0,0,1,57.46,0h3.36v0h3.36a35.46,35.46,0,1,0-70.91,0V470H933.5v-3.36Z"/><path class="cls-10" d="M880.76,466.63h-21a10.5,10.5,0,0,1,21,0Z"/><path class="cls-5" d="M880.76,466.63v-3.36h-21v3.36h3.36a7.14,7.14,0,0,1,14.27,0h3.36v0h3.37a13.87,13.87,0,0,0-27.73,0V470h27.73v-3.37Z"/><path class="cls-10" d="M936.3,466.63h-21a10.5,10.5,0,0,1,21,0Z"/><path class="cls-5" d="M936.3,466.63v-3.36h-21v3.36h3.36a7.14,7.14,0,0,1,7.14-7.13,7.14,7.14,0,0,1,7.13,7.13h3.37v0h3.36a13.86,13.86,0,0,0-27.72,0V470h27.72v-3.37Z"/><polygon class="cls-9" points="793.69 566.14 793.69 646.8 557.47 646.8 557.47 546.54 641.17 546.54 641.17 566.14 793.69 566.14"/><polygon class="cls-5" points="793.69 566.14 790.32 566.14 790.32 643.44 560.84 643.44 560.84 549.9 637.81 549.9 637.81 569.5 793.69 569.5 793.69 566.14 790.32 566.14 793.69 566.14 793.69 562.78 644.53 562.78 644.53 543.17 554.11 543.17 554.11 650.16 797.05 650.16 797.05 562.78 793.69 562.78 793.69 566.14"/><rect class="cls-7" x="557.47" y="646.8" width="236.21" height="165.89"/><polygon class="cls-5" points="793.69 646.8 790.32 646.8 790.32 809.33 560.84 809.33 560.84 650.16 793.69 650.16 793.69 646.8 790.32 646.8 793.69 646.8 793.69 643.44 554.11 643.44 554.11 816.06 797.05 816.06 797.05 643.44 793.69 643.44 793.69 646.8"/><polyline class="cls-5" points="557.47 650.17 793.69 650.17 793.69 643.44 557.47 643.44"/><polyline class="cls-5" points="557.47 700.72 793.69 700.72 793.69 694 557.47 694"/><polyline class="cls-5" points="557.47 744.27 793.69 744.27 793.69 737.54 557.47 737.54"/><rect class="cls-7" x="641.17" y="615.92" width="68.72" height="30.88"/><polygon class="cls-5" points="709.89 646.8 709.89 643.63 644.34 643.63 644.34 619.09 706.72 619.09 706.72 646.8 709.89 646.8 709.89 643.63 709.89 646.8 713.05 646.8 713.05 612.75 638 612.75 638 649.97 713.05 649.97 713.05 646.8 709.89 646.8"/><polyline class="cls-5" points="751.45 625.13 751.45 637.59 758.18 637.59 758.18 625.13"/><polyline class="cls-5" points="594.47 625.13 594.47 637.59 601.2 637.59 601.2 625.13"/><polyline class="cls-5" points="576.2 670.67 576.2 683.13 582.93 683.13 582.93 670.67"/><polyline class="cls-5" points="576.2 720.55 576.2 733.01 582.93 733.01 582.93 720.55"/><polyline class="cls-5" points="767.38 670.67 767.38 683.13 774.11 683.13 774.11 670.67"/><polyline class="cls-5" points="767.38 720.55 767.38 733.01 774.11 733.01 774.11 720.55"/><polyline class="cls-5" points="767.38 786.15 767.38 798.61 774.11 798.61 774.11 786.15"/><polyline class="cls-5" points="655.01 786.15 655.01 798.61 661.74 798.61 661.74 786.15"/><polyline class="cls-5" points="655.01 625.13 655.01 637.59 661.74 637.59 661.74 625.13"/><polyline class="cls-5" points="689.32 625.13 689.32 637.59 696.04 637.59 696.04 625.13"/><polyline class="cls-5" points="723.73 786.15 723.73 798.61 730.46 798.61 730.46 786.15"/><polyline class="cls-5" points="620.6 786.15 620.6 798.61 627.32 798.61 627.32 786.15"/><polygon class="cls-7" points="675.53 615.92 637.98 615.92 675.59 566.27 713.07 615.92 675.53 615.92"/><polygon class="cls-5" points="675.53 615.92 675.53 612.55 644.75 612.55 675.58 571.85 706.32 612.55 675.53 612.55 675.53 615.92 675.53 619.28 713.07 619.28 715.76 613.89 678.27 564.24 672.9 564.24 635.3 613.89 637.98 619.28 675.53 619.28 675.53 615.92"/><polyline class="cls-5" points="648.58 605.58 702.63 605.58 702.63 598.28 648.58 598.28"/><rect class="cls-8" x="641.17" y="668.04" width="34.41" height="29.31"/><polygon class="cls-5" points="675.58 697.36 675.58 694 644.53 694 644.53 671.41 672.22 671.41 672.22 697.36 675.58 697.36 675.58 694 675.58 697.36 678.94 697.36 678.94 664.68 637.8 664.68 637.8 700.72 678.94 700.72 678.94 697.36 675.58 697.36"/><rect class="cls-8" x="606.75" y="668.04" width="34.41" height="29.31"/><polygon class="cls-5" points="641.17 697.36 641.17 694 610.12 694 610.12 671.41 637.8 671.41 637.8 697.36 641.17 697.36 641.17 694 641.17 697.36 644.53 697.36 644.53 664.68 603.39 664.68 603.39 700.72 644.53 700.72 644.53 697.36 641.17 697.36"/><rect class="cls-8" x="709.89" y="668.04" width="34.41" height="29.31"/><polygon class="cls-5" points="744.3 697.36 744.3 694 713.25 694 713.25 671.41 740.93 671.41 740.93 697.36 744.3 697.36 744.3 694 744.3 697.36 747.66 697.36 747.66 664.68 706.52 664.68 706.52 700.72 747.66 700.72 747.66 697.36 744.3 697.36"/><rect class="cls-8" x="675.47" y="668.04" width="34.41" height="29.31"/><polygon class="cls-5" points="709.89 697.36 709.89 694 678.84 694 678.84 671.41 706.52 671.41 706.52 697.36 709.89 697.36 709.89 694 709.89 697.36 713.25 697.36 713.25 664.68 672.11 664.68 672.11 700.72 713.25 700.72 713.25 697.36 709.89 697.36"/><rect class="cls-8" x="641.17" y="711.58" width="34.41" height="29.31"/><polygon class="cls-5" points="675.58 740.9 675.58 737.53 644.53 737.53 644.53 714.95 672.22 714.95 672.22 740.9 675.58 740.9 675.58 737.53 675.58 740.9 678.94 740.9 678.94 708.22 637.8 708.22 637.8 744.26 678.94 744.26 678.94 740.9 675.58 740.9"/><rect class="cls-8" x="606.75" y="711.58" width="34.41" height="29.31"/><polygon class="cls-5" points="641.17 740.9 641.17 737.53 610.12 737.53 610.12 714.95 637.8 714.95 637.8 740.9 641.17 740.9 641.17 737.53 641.17 740.9 644.53 740.9 644.53 708.22 603.39 708.22 603.39 744.26 644.53 744.26 644.53 740.9 641.17 740.9"/><rect class="cls-6" x="569.79" y="783.39" width="19.54" height="29.31"/><polygon class="cls-5" points="589.34 812.7 589.34 809.34 573.16 809.34 573.16 786.75 585.97 786.75 585.97 812.7 589.34 812.7 589.34 809.34 589.34 812.7 592.7 812.7 592.7 780.02 566.43 780.02 566.43 816.07 592.7 816.07 592.7 812.7 589.34 812.7"/><rect class="cls-6" x="682.91" y="783.39" width="19.54" height="29.31"/><polygon class="cls-5" points="702.45 812.7 702.45 809.34 686.27 809.34 686.27 786.75 699.09 786.75 699.09 812.7 702.45 812.7 702.45 809.34 702.45 812.7 705.82 812.7 705.82 780.02 679.54 780.02 679.54 816.07 705.82 816.07 705.82 812.7 702.45 812.7"/><rect class="cls-8" x="709.89" y="711.58" width="34.41" height="29.31"/><polygon class="cls-5" points="744.3 740.9 744.3 737.53 713.25 737.53 713.25 714.95 740.93 714.95 740.93 740.9 744.3 740.9 744.3 737.53 744.3 740.9 747.66 740.9 747.66 708.22 706.52 708.22 706.52 744.26 747.66 744.26 747.66 740.9 744.3 740.9"/><rect class="cls-8" x="675.47" y="711.58" width="34.41" height="29.31"/><polygon class="cls-5" points="709.89 740.9 709.89 737.53 678.84 737.53 678.84 714.95 706.52 714.95 706.52 740.9 709.89 740.9 709.89 737.53 709.89 740.9 713.25 740.9 713.25 708.22 672.11 708.22 672.11 744.26 713.25 744.26 713.25 740.9 709.89 740.9"/><path class="cls-8" d="M589.34,762.63a9.78,9.78,0,1,0-19.55,0v9.43h19.55Z"/><path class="cls-5" d="M589.34,762.63h3.36a13.14,13.14,0,0,0-26.27,0v12.79H592.7V762.63H586v6.06H573.16v-6.06a6.41,6.41,0,1,1,12.81,0Z"/><path class="cls-8" d="M633.73,762.63a9.77,9.77,0,1,0-19.54,0v9.43h19.54Z"/><path class="cls-5" d="M633.73,762.63h3.37a13.14,13.14,0,1,0-26.27,0v12.79H637.1V762.63h-6.73v6.06H617.55v-6.06a6.41,6.41,0,1,1,12.82,0Z"/><path class="cls-8" d="M668.15,762.63a9.78,9.78,0,1,0-19.55,0v9.43h19.55Z"/><path class="cls-5" d="M668.15,762.63h3.36a13.14,13.14,0,0,0-26.27,0v12.79h26.27V762.63h-6.73v6.06H652v-6.06a6.41,6.41,0,1,1,12.81,0Z"/><path class="cls-8" d="M702.45,762.63a9.77,9.77,0,1,0-19.54,0v9.43h19.54Z"/><path class="cls-5" d="M702.45,762.63h3.36a13.14,13.14,0,0,0-26.27,0v12.79h26.27V762.63h-6.72v6.06H686.27v-6.06a6.41,6.41,0,1,1,12.82,0Z"/><path class="cls-8" d="M736.86,762.63a9.77,9.77,0,1,0-19.54,0v9.43h19.54Z"/><path class="cls-5" d="M736.86,762.63h3.37a13.14,13.14,0,1,0-26.27,0v12.79h26.27V762.63H733.5v6.06H720.68v-6.06a6.45,6.45,0,0,1,1.88-4.54,6.41,6.41,0,0,1,10.94,4.54Z"/><path class="cls-8" d="M780.52,762.63a9.78,9.78,0,1,0-19.55,0v9.43h19.55Z"/><path class="cls-5" d="M780.52,762.63h3.36a13.14,13.14,0,0,0-26.27,0v12.79h26.27V762.63h-6.73v6.06H764.34v-6.06a6.41,6.41,0,1,1,12.81,0Z"/></g></g></svg>