<svg xmlns="http://www.w3.org/2000/svg" viewBox="0 0 226.36 65"><defs><style>.cls-1{fill:#5266a0;}.cls-2{fill:#fff;}</style></defs><g id="Warstwa_2" data-name="Warstwa 2"><g id="Warstwa_1-2" data-name="Warstwa 1"><rect class="cls-1" width="226.36" height="65"/><polygon class="cls-2" points="56.88 39.95 56.88 39.95 52.67 44.15 52.67 32.5 46.17 32.5 46.17 44.15 41.97 39.95 37.38 44.55 49.42 56.6 61.47 44.55 56.88 39.95"/><polyline class="cls-2" points="39.67 65 59.17 65 59.17 58.5 39.67 58.5"/><polygon class="cls-2" points="39.67 52 6.5 52 6.5 13 18.15 13 24.65 19.5 46.17 19.5 46.17 26 52.67 26 52.67 13 27.35 13 20.85 6.5 0 6.5 0 58.5 39.67 58.5 39.67 52 39.67 52"/><path class="cls-2" d="M82,31.28v-9.8h1.9v1.65a3.16,3.16,0,0,1,2.92-1.84,3.06,3.06,0,0,1,1.76.51,2.73,2.73,0,0,1,1.06,1.3,3.24,3.24,0,0,1,1.21-1.31,3.59,3.59,0,0,1,1.9-.5,3.36,3.36,0,0,1,1.65.4,2.85,2.85,0,0,1,1.18,1.18,4,4,0,0,1,.44,2v6.45h-2V25a1.8,1.8,0,0,0-.59-1.52A2.07,2.07,0,0,0,92.08,23a2,2,0,0,0-1.55.61A2.22,2.22,0,0,0,90,25.16v6.12H88V24.87a1.79,1.79,0,0,0-.54-1.36A2,2,0,0,0,86.12,23a2.19,2.19,0,0,0-1.51.61A2.26,2.26,0,0,0,84,25.37v5.91Z"/><path class="cls-2" d="M101.21,31.44a3.83,3.83,0,0,1-2.43-.75,2.63,2.63,0,0,1-1-2.21,2.43,2.43,0,0,1,.55-1.71,3,3,0,0,1,1.44-.86,10.86,10.86,0,0,1,1.87-.38l1.46-.19a2,2,0,0,0,.77-.22.56.56,0,0,0,.22-.51v-.08a1.5,1.5,0,0,0-.52-1.18,2.14,2.14,0,0,0-1.45-.46,2.44,2.44,0,0,0-1.53.45,1.51,1.51,0,0,0-.65,1.13H98.06a3,3,0,0,1,1.18-2.29,4.53,4.53,0,0,1,3-.89,4.19,4.19,0,0,1,2.84.89,3,3,0,0,1,1,2.38v6.72h-1.93V29.89h0a3.23,3.23,0,0,1-1,1.07A3.29,3.29,0,0,1,101.21,31.44Zm.4-1.58a2.49,2.49,0,0,0,1.92-.67,2.25,2.25,0,0,0,.61-1.57V26.47a2.45,2.45,0,0,1-.88.28c-.46.08-.94.16-1.46.23a4.24,4.24,0,0,0-1.42.46,1.23,1.23,0,0,0-.12,2.06A2.25,2.25,0,0,0,101.61,29.86Z"/><path class="cls-2" d="M113,21.48V23.1h-2v5.59a1,1,0,0,0,.22.76,1.19,1.19,0,0,0,.81.22h1v1.61h-1.23c-1.81,0-2.72-.78-2.72-2.34V23.1h-1.72V21.48h1.72V18.81h2v2.67Z"/><path class="cls-2" d="M118.57,31.5a4.57,4.57,0,0,1-2.5-.66A4.35,4.35,0,0,1,114.46,29a6,6,0,0,1-.56-2.63,5.78,5.78,0,0,1,.59-2.65,4.63,4.63,0,0,1,1.61-1.83,4.31,4.31,0,0,1,2.37-.66,4.43,4.43,0,0,1,2.41.65,4.22,4.22,0,0,1,1.59,1.8,6,6,0,0,1,.57,2.67v.53h-7.21a3.35,3.35,0,0,0,.77,2.14,2.49,2.49,0,0,0,2,.82,2.68,2.68,0,0,0,1.58-.44A2,2,0,0,0,121,28.3h1.88a3.53,3.53,0,0,1-.78,1.67,4.21,4.21,0,0,1-1.52,1.13A4.92,4.92,0,0,1,118.57,31.5Zm-2.72-6.07h5.28a2.93,2.93,0,0,0-.83-1.86,2.76,2.76,0,0,0-3.63,0A3,3,0,0,0,115.85,25.43Z"/><path class="cls-2" d="M124.73,31.28v-9.8h1.87v1.59h0a2.55,2.55,0,0,1,.85-1.26,2.41,2.41,0,0,1,1.52-.45l.4,0,.31,0v1.83l-.4-.06a4.09,4.09,0,0,0-.63,0,2,2,0,0,0-1.41.58,2.34,2.34,0,0,0-.59,1.77v5.79Z"/><path class="cls-2" d="M132.19,19.79a1.21,1.21,0,0,1-.88-.34,1.2,1.2,0,0,1,0-1.71,1.22,1.22,0,0,1,.88-.35,1.24,1.24,0,0,1,.88.35,1.2,1.2,0,0,1,0,1.71A1.23,1.23,0,0,1,132.19,19.79Zm-1,11.49v-9.8h2v9.8Z"/><path class="cls-2" d="M138.37,31.44a3.83,3.83,0,0,1-2.43-.75,2.6,2.6,0,0,1-1-2.21,2.47,2.47,0,0,1,.55-1.71,3.08,3.08,0,0,1,1.44-.86,11,11,0,0,1,1.88-.38l1.46-.19a1.92,1.92,0,0,0,.76-.22.57.57,0,0,0,.23-.51v-.08a1.5,1.5,0,0,0-.52-1.18,2.16,2.16,0,0,0-1.46-.46,2.48,2.48,0,0,0-1.53.45,1.57,1.57,0,0,0-.65,1.13h-1.92a3,3,0,0,1,1.18-2.29,4.55,4.55,0,0,1,3-.89,4.2,4.2,0,0,1,2.85.89,3,3,0,0,1,1,2.38v6.72H141.3V29.89h0a3.12,3.12,0,0,1-1,1.07A3.24,3.24,0,0,1,138.37,31.44Zm.4-1.58a2.47,2.47,0,0,0,1.91-.67,2.26,2.26,0,0,0,.62-1.57V26.47a2.45,2.45,0,0,1-.88.28c-.46.08-.95.16-1.47.23a4.31,4.31,0,0,0-1.42.46,1.13,1.13,0,0,0-.61,1.08,1.11,1.11,0,0,0,.5,1A2.25,2.25,0,0,0,138.77,29.86Z"/><path class="cls-2" d="M147.39,17.46V31.28h-1.95V17.46Z"/><path class="cls-2" d="M153.23,31.51a5.39,5.39,0,0,1-2-.36,3.39,3.39,0,0,1-1.46-1.08,3.13,3.13,0,0,1-.61-1.77h1.93c.11,1.1.82,1.65,2.12,1.65a2.47,2.47,0,0,0,1.47-.38,1.14,1.14,0,0,0,.55-1,1,1,0,0,0-.39-.8,2.51,2.51,0,0,0-1-.45L152.17,27c-1.87-.41-2.81-1.34-2.81-2.8a2.57,2.57,0,0,1,1-2.11,4.82,4.82,0,0,1,5.44,0A2.93,2.93,0,0,1,157,24.47h-1.87a1.55,1.55,0,0,0-.54-1.18,2,2,0,0,0-1.4-.47,2.08,2.08,0,0,0-1.33.39,1.17,1.17,0,0,0-.49.95,1,1,0,0,0,.37.81,2.45,2.45,0,0,0,1,.46l1.67.37a4.29,4.29,0,0,1,2.1,1,2.28,2.28,0,0,1,.68,1.73,2.6,2.6,0,0,1-.51,1.61,3.26,3.26,0,0,1-1.41,1A5.18,5.18,0,0,1,153.23,31.51Z"/><path class="cls-2" d="M86.75,44.28V45.9h-2v8.18h-2V45.9H81V44.28H82.8V42.7a2.26,2.26,0,0,1,.72-1.8,3,3,0,0,1,2.06-.64h1.17v1.61h-.86a1.22,1.22,0,0,0-.88.26,1.23,1.23,0,0,0-.26.88v1.27Z"/><path class="cls-2" d="M92.25,54.3a4.57,4.57,0,0,1-2.46-.65,4.4,4.4,0,0,1-1.64-1.8,5.63,5.63,0,0,1-.59-2.65,5.75,5.75,0,0,1,.59-2.68,4.49,4.49,0,0,1,1.64-1.81,4.66,4.66,0,0,1,2.46-.65,4.6,4.6,0,0,1,2.45.65,4.51,4.51,0,0,1,1.65,1.81,5.88,5.88,0,0,1,.59,2.68,5.75,5.75,0,0,1-.59,2.65,4.42,4.42,0,0,1-1.65,1.8A4.51,4.51,0,0,1,92.25,54.3Zm0-1.69a2.42,2.42,0,0,0,2-.92,4.67,4.67,0,0,0,0-5,2.56,2.56,0,0,0-4,0,4.69,4.69,0,0,0,0,5A2.39,2.39,0,0,0,92.25,52.61Z"/><path class="cls-2" d="M98.67,54.08v-9.8h1.87v1.59h0a2.55,2.55,0,0,1,.85-1.26,2.41,2.41,0,0,1,1.52-.45l.41,0,.3,0V46l-.4-.06a4.09,4.09,0,0,0-.63,0,2,2,0,0,0-1.41.58,2.34,2.34,0,0,0-.59,1.77v5.79Z"/><path class="cls-2" d="M113.84,54.3a4.51,4.51,0,0,1-2.45-.65,4.33,4.33,0,0,1-1.64-1.8,6.29,6.29,0,0,1,0-5.32,4.52,4.52,0,0,1,1.64-1.82,5,5,0,0,1,4.54-.19,4,4,0,0,1,1.5,1.27,4,4,0,0,1,.7,1.84h-1.95a2.22,2.22,0,0,0-2.33-1.88,2.35,2.35,0,0,0-2,.94,4.07,4.07,0,0,0-.71,2.51,4,4,0,0,0,.71,2.49,2.39,2.39,0,0,0,2,.92,2.22,2.22,0,0,0,1.56-.51,2.64,2.64,0,0,0,.74-1.38h2a3.92,3.92,0,0,1-.69,1.83,4,4,0,0,1-1.5,1.28A4.51,4.51,0,0,1,113.84,54.3Z"/><path class="cls-2" d="M119.79,54.08v-9.8h1.87v1.59h0a2.55,2.55,0,0,1,.85-1.26,2.38,2.38,0,0,1,1.51-.45l.41,0,.31,0V46l-.4-.06a4.09,4.09,0,0,0-.63,0,2,2,0,0,0-1.42.58,2.38,2.38,0,0,0-.59,1.77v5.79Z"/><path class="cls-2" d="M130.27,54.3a4.57,4.57,0,0,1-2.5-.66,4.35,4.35,0,0,1-1.61-1.81,6,6,0,0,1-.56-2.63,5.78,5.78,0,0,1,.59-2.65,4.63,4.63,0,0,1,1.61-1.83,4.31,4.31,0,0,1,2.37-.66,4.43,4.43,0,0,1,2.41.65,4.22,4.22,0,0,1,1.59,1.8,6,6,0,0,1,.57,2.67v.53h-7.21a3.4,3.4,0,0,0,.77,2.14,2.49,2.49,0,0,0,2,.82,2.68,2.68,0,0,0,1.58-.44,2,2,0,0,0,.83-1.13h1.88a3.53,3.53,0,0,1-.78,1.67,4.21,4.21,0,0,1-1.52,1.13A4.92,4.92,0,0,1,130.27,54.3Zm-2.72-6.07h5.28a2.93,2.93,0,0,0-.83-1.86,2.76,2.76,0,0,0-3.63,0A3,3,0,0,0,127.55,48.23Z"/><path class="cls-2" d="M139.53,54.24a3.83,3.83,0,0,1-2.43-.75,2.6,2.6,0,0,1-1-2.21,2.47,2.47,0,0,1,.55-1.71,3.08,3.08,0,0,1,1.44-.86,11,11,0,0,1,1.88-.38l1.46-.19a1.92,1.92,0,0,0,.76-.22.57.57,0,0,0,.23-.51v-.08a1.5,1.5,0,0,0-.52-1.18,2.16,2.16,0,0,0-1.46-.46,2.48,2.48,0,0,0-1.53.45,1.57,1.57,0,0,0-.65,1.13h-1.92A3,3,0,0,1,137.55,45a4.55,4.55,0,0,1,2.95-.89,4.2,4.2,0,0,1,2.85.89,3,3,0,0,1,1,2.38v6.72h-1.93V52.69h0a3.12,3.12,0,0,1-1,1.07A3.24,3.24,0,0,1,139.53,54.24Zm.4-1.58a2.47,2.47,0,0,0,1.91-.67,2.26,2.26,0,0,0,.62-1.57V49.27a2.45,2.45,0,0,1-.88.28c-.46.08-1,.16-1.47.23a4.31,4.31,0,0,0-1.42.46,1.12,1.12,0,0,0-.61,1.07,1.15,1.15,0,0,0,.5,1A2.25,2.25,0,0,0,139.93,52.66Z"/><path class="cls-2" d="M151.32,44.28V45.9h-2v5.59a1,1,0,0,0,.23.76,1.16,1.16,0,0,0,.8.22h1v1.61h-1.24c-1.81,0-2.71-.78-2.71-2.34V45.9h-1.73V44.28h1.73V41.61h2v2.67Z"/><path class="cls-2" d="M156.91,54.3a4.51,4.51,0,0,1-2.45-.65,4.36,4.36,0,0,1-1.65-1.8,5.75,5.75,0,0,1-.59-2.65,5.88,5.88,0,0,1,.59-2.68,4.44,4.44,0,0,1,1.65-1.81,5,5,0,0,1,4.91,0A4.49,4.49,0,0,1,161,46.52a5.88,5.88,0,0,1,.59,2.68,5.75,5.75,0,0,1-.59,2.65,4.4,4.4,0,0,1-1.64,1.8A4.52,4.52,0,0,1,156.91,54.3Zm0-1.69a2.4,2.4,0,0,0,2-.92,4.67,4.67,0,0,0,0-5,2.35,2.35,0,0,0-2-.94,2.39,2.39,0,0,0-2,.93,4,4,0,0,0-.72,2.52,3.94,3.94,0,0,0,.72,2.49A2.36,2.36,0,0,0,156.91,52.61Z"/><path class="cls-2" d="M163.33,54.08v-9.8h1.88v1.59h0a2.54,2.54,0,0,1,.84-1.26,2.43,2.43,0,0,1,1.52-.45l.41,0,.31,0V46l-.4-.06a4.31,4.31,0,0,0-.64,0,2,2,0,0,0-1.41.58,2.38,2.38,0,0,0-.59,1.77v5.79Z"/><path class="cls-2" d="M173.41,54.31a5.39,5.39,0,0,1-2-.36,3.39,3.39,0,0,1-1.46-1.08,3.13,3.13,0,0,1-.61-1.77h1.93c.11,1.1.82,1.65,2.12,1.65a2.47,2.47,0,0,0,1.47-.38,1.13,1.13,0,0,0,.54-1,1,1,0,0,0-.38-.81,2.65,2.65,0,0,0-1-.44l-1.62-.36c-1.87-.41-2.81-1.34-2.81-2.8a2.54,2.54,0,0,1,1-2.11,4.82,4.82,0,0,1,5.44,0,2.93,2.93,0,0,1,1.11,2.34h-1.87a1.55,1.55,0,0,0-.54-1.18,2,2,0,0,0-1.4-.47A2.08,2.08,0,0,0,172,46a1.17,1.17,0,0,0-.49,1,1,1,0,0,0,.37.81,2.45,2.45,0,0,0,1,.46l1.67.37a4.29,4.29,0,0,1,2.1,1,2.28,2.28,0,0,1,.68,1.73,2.6,2.6,0,0,1-.51,1.61,3.34,3.34,0,0,1-1.41,1A5.18,5.18,0,0,1,173.41,54.31Z"/></g></g></svg>