<svg xmlns="http://www.w3.org/2000/svg" viewBox="0 0 226.36 65"><defs><style>.cls-1{fill:#5266a0;}.cls-2{fill:#fff;}</style></defs><g id="Warstwa_2" data-name="Warstwa 2"><g id="Warstwa_1-2" data-name="Warstwa 1"><rect class="cls-1" width="226.36" height="65"/><path class="cls-2" d="M151,35.15A2.9,2.9,0,0,0,153.83,33l4.46-11.52h-2.07l-1.93,5.38L153.9,28c-.12.36-.25.73-.36,1.09-.12-.36-.24-.73-.37-1.09s-.25-.74-.38-1.1l-1.95-5.38h-2.1l3.78,9.74-.44,1.16a2.08,2.08,0,0,1-.52.86,1,1,0,0,1-.75.27h-1.06v1.65ZM148.8,23.06V21.4l-5,2.89V26Zm-3.46-5.61V31.27h2V17.45Zm-8,12.05a1.15,1.15,0,0,1-.49-1,1.13,1.13,0,0,1,.61-1.08,4.31,4.31,0,0,1,1.42-.45l1.46-.24a2.33,2.33,0,0,0,.89-.28v1.15a2.26,2.26,0,0,1-.62,1.57,2.48,2.48,0,0,1-1.92.67A2.33,2.33,0,0,1,137.32,29.5ZM140.2,31a3.14,3.14,0,0,0,1-1.07h0v1.39h1.93V24.55a3,3,0,0,0-1-2.38,4.28,4.28,0,0,0-2.85-.89,4.59,4.59,0,0,0-2.95.89,3,3,0,0,0-1.18,2.29H137a1.54,1.54,0,0,1,.65-1.13,2.55,2.55,0,0,1,1.53-.45,2.16,2.16,0,0,1,1.46.46,1.53,1.53,0,0,1,.52,1.18v.08a.57.57,0,0,1-.23.51,2,2,0,0,1-.77.22l-1.45.19a12,12,0,0,0-1.88.38,3.08,3.08,0,0,0-1.44.86,2.43,2.43,0,0,0-.55,1.71,2.63,2.63,0,0,0,1,2.21,3.87,3.87,0,0,0,2.43.75A3.25,3.25,0,0,0,140.2,31ZM133,19.44a1.2,1.2,0,0,0,0-1.71,1.24,1.24,0,0,0-.88-.35,1.22,1.22,0,0,0-.88.35,1.2,1.2,0,0,0,0,1.71,1.22,1.22,0,0,0,.88.35A1.24,1.24,0,0,0,133,19.44Zm.1,11.83v-9.8h-2v9.8Zm-6.49,0V25.48a2.38,2.38,0,0,1,.59-1.77,2,2,0,0,1,1.42-.58,5.9,5.9,0,0,1,.63,0l.4.06V21.4l-.31,0-.41,0a2.38,2.38,0,0,0-1.51.45,2.55,2.55,0,0,0-.85,1.26h0V21.47h-1.87v9.8Zm-10-7.7a2.73,2.73,0,0,1,3.63,0,2.88,2.88,0,0,1,.83,1.85h-5.28A2.87,2.87,0,0,1,116.58,23.57Zm3.91,7.52A4.13,4.13,0,0,0,122,30a3.63,3.63,0,0,0,.78-1.67h-1.88a2.09,2.09,0,0,1-.83,1.14,2.68,2.68,0,0,1-1.58.43,2.49,2.49,0,0,1-2-.82,3.33,3.33,0,0,1-.77-2.14H123v-.53a6,6,0,0,0-.57-2.66,4.25,4.25,0,0,0-1.59-1.81,4.44,4.44,0,0,0-2.42-.65,4.28,4.28,0,0,0-2.36.66,4.48,4.48,0,0,0-1.61,1.83,5.81,5.81,0,0,0-.59,2.65,6,6,0,0,0,.56,2.63A4.38,4.38,0,0,0,116,30.84a4.65,4.65,0,0,0,2.5.65A4.88,4.88,0,0,0,120.49,31.09Zm-9.56-9.62V18.8h-2v2.67h-1.73v1.62H109v5.84c0,1.56.9,2.34,2.72,2.34h1.23V29.66h-1a1.12,1.12,0,0,1-.81-.22,1,1,0,0,1-.22-.76V23.09h2V21.47Zm-10.76,8a1.16,1.16,0,0,1-.5-1,1.15,1.15,0,0,1,.61-1.08A4.38,4.38,0,0,1,101.7,27l1.47-.24a2.26,2.26,0,0,0,.88-.28v1.15a2.21,2.21,0,0,1-.62,1.57,2.47,2.47,0,0,1-1.91.67A2.33,2.33,0,0,1,100.17,29.5ZM103,31a3,3,0,0,0,1-1.07h0v1.39H106V24.55a3,3,0,0,0-1-2.38,4.25,4.25,0,0,0-2.85-.89,4.63,4.63,0,0,0-3,.89A3,3,0,0,0,98,24.46h1.92a1.52,1.52,0,0,1,.64-1.13,2.55,2.55,0,0,1,1.53-.45,2.15,2.15,0,0,1,1.46.46,1.5,1.5,0,0,1,.52,1.18v.08a.55.55,0,0,1-.23.51,1.92,1.92,0,0,1-.76.22l-1.46.19a12,12,0,0,0-1.88.38,3,3,0,0,0-1.43.86,2.43,2.43,0,0,0-.56,1.71,2.63,2.63,0,0,0,1,2.21,3.83,3.83,0,0,0,2.43.75A3.24,3.24,0,0,0,103,31Zm-19.18.32V25.36a2.26,2.26,0,0,1,.66-1.76A2.15,2.15,0,0,1,86,23a1.93,1.93,0,0,1,1.38.51A1.74,1.74,0,0,1,88,24.86v6.41h1.93V25.15a2.17,2.17,0,0,1,.56-1.55A2,2,0,0,1,92,23a2.1,2.1,0,0,1,1.38.47A1.85,1.85,0,0,1,94,25v6.28h2V24.82a4,4,0,0,0-.43-2,2.85,2.85,0,0,0-1.18-1.18,3.39,3.39,0,0,0-1.65-.4,3.51,3.51,0,0,0-1.9.51,3.21,3.21,0,0,0-1.21,1.3,2.73,2.73,0,0,0-1.06-1.3,3.08,3.08,0,0,0-1.76-.51,3.23,3.23,0,0,0-1.69.46,3.2,3.2,0,0,0-1.23,1.38V21.47h-1.9v9.8Z"/><path class="cls-2" d="M174.28,54.07l1.26-4.27c.15-.49.29-1,.43-1.52s.26-1,.4-1.55l.39,1.55c.14.52.27,1,.42,1.52l1.24,4.27h2l3-9.8h-2.06l-1.14,4c-.16.59-.32,1.19-.47,1.8s-.31,1.22-.45,1.82c-.16-.6-.31-1.21-.47-1.82s-.31-1.21-.48-1.8l-1.12-4h-1.87l-1.14,4c-.16.6-.32,1.2-.48,1.82s-.31,1.23-.47,1.84l-.45-1.84c-.16-.62-.32-1.22-.48-1.82l-1.12-4h-2.06l3,9.8ZM164.7,43l2-2.81h-2.08L163.19,43ZM162,51.68a3.87,3.87,0,0,1-.73-2.49,4,4,0,0,1,.73-2.52,2.39,2.39,0,0,1,2-.93,2.35,2.35,0,0,1,2,.94,4.67,4.67,0,0,1,0,5,2.4,2.4,0,0,1-2,.93A2.37,2.37,0,0,1,162,51.68Zm4.44,2a4.47,4.47,0,0,0,1.64-1.8,5.75,5.75,0,0,0,.59-2.65,5.91,5.91,0,0,0-.59-2.68,4.73,4.73,0,0,0-6.56-1.8,4.46,4.46,0,0,0-1.64,1.8,5.78,5.78,0,0,0-.59,2.68,5.63,5.63,0,0,0,.59,2.65,4.4,4.4,0,0,0,1.64,1.8,5,5,0,0,0,4.92,0ZM156,53.83a4,4,0,0,0,1.5-1.29,3.82,3.82,0,0,0,.69-1.83h-2a2.57,2.57,0,0,1-.74,1.38,2.19,2.19,0,0,1-1.56.52,2.34,2.34,0,0,1-2-.93,4,4,0,0,1-.72-2.49,4,4,0,0,1,.72-2.51,2.38,2.38,0,0,1,4.31.94h1.95a3.83,3.83,0,0,0-.7-1.84,4,4,0,0,0-1.5-1.27,4.92,4.92,0,0,0-4.54.2,4.4,4.4,0,0,0-1.63,1.81,5.71,5.71,0,0,0-.59,2.67,5.77,5.77,0,0,0,.58,2.65,4.4,4.4,0,0,0,1.64,1.8,4.51,4.51,0,0,0,2.45.65A4.63,4.63,0,0,0,156,53.83Zm-10.63.24V48.28a2.34,2.34,0,0,1,.59-1.77,2,2,0,0,1,1.41-.58,5.9,5.9,0,0,1,.63,0l.4.06V44.2l-.31,0-.4,0a2.41,2.41,0,0,0-1.52.45,2.55,2.55,0,0,0-.85,1.26h0V44.27h-1.87v9.8Zm-7.69-11,2-2.81h-2.09L136.11,43ZM135,51.68a4.69,4.69,0,0,1,0-5,2.56,2.56,0,0,1,4,0,3.94,3.94,0,0,1,.73,2.51,3.9,3.9,0,0,1-.73,2.49,2.37,2.37,0,0,1-2,.93A2.4,2.4,0,0,1,135,51.68Zm4.44,2a4.42,4.42,0,0,0,1.65-1.8,5.75,5.75,0,0,0,.58-2.65,5.9,5.9,0,0,0-.58-2.68,4.46,4.46,0,0,0-4.1-2.46,4.46,4.46,0,0,0-4.11,2.46,5.91,5.91,0,0,0-.59,2.68,5.75,5.75,0,0,0,.59,2.65,4.49,4.49,0,0,0,1.65,1.8,4.57,4.57,0,0,0,2.46.65A4.51,4.51,0,0,0,139.39,53.64Zm-16.89.43,1.27-4.27c.14-.49.28-1,.42-1.52s.26-1,.4-1.55l.39,1.55c.14.52.28,1,.42,1.52l1.24,4.27h2l3-9.8h-2.07l-1.13,4q-.26.88-.48,1.8l-.45,1.82c-.16-.6-.31-1.21-.47-1.82s-.31-1.21-.48-1.8l-1.12-4h-1.87l-1.14,4c-.16.6-.32,1.2-.48,1.82s-.31,1.23-.47,1.84l-.45-1.84c-.15-.62-.31-1.22-.48-1.82l-1.12-4h-2.05l3,9.8Zm-8.16-9.8V41.6h-2v2.67h-1.72v1.62h1.72v5.84c0,1.56.91,2.34,2.72,2.34h1.23V52.46h-.95a1.14,1.14,0,0,1-.81-.22,1,1,0,0,1-.22-.76V45.89h2V44.27Zm-15.28,8a1.11,1.11,0,0,1-.5-1,1.13,1.13,0,0,1,.61-1.08,4.31,4.31,0,0,1,1.42-.45l1.47-.24a2.33,2.33,0,0,0,.88-.28v1.15a2.26,2.26,0,0,1-.62,1.57,2.48,2.48,0,0,1-1.92.67A2.24,2.24,0,0,1,99.06,52.29Zm2.87,1.46a3,3,0,0,0,1-1.07h0v1.39h1.93V47.35a3,3,0,0,0-1-2.38,4.25,4.25,0,0,0-2.85-.89A4.61,4.61,0,0,0,98,45a3,3,0,0,0-1.18,2.29h1.92a1.57,1.57,0,0,1,.65-1.13,2.48,2.48,0,0,1,1.53-.45,2.16,2.16,0,0,1,1.46.46,1.5,1.5,0,0,1,.52,1.18v.08a.57.57,0,0,1-.23.51,2,2,0,0,1-.76.22l-1.46.19a12,12,0,0,0-1.88.38,3.08,3.08,0,0,0-1.44.86,2.43,2.43,0,0,0-.55,1.71,2.63,2.63,0,0,0,1,2.21,3.88,3.88,0,0,0,2.44.75A3.24,3.24,0,0,0,101.93,53.75Zm-9.08-13.5V54.07h2V40.25Zm-8.7,11.46a3.81,3.81,0,0,1-.74-2.54,3.78,3.78,0,0,1,.74-2.53,2.37,2.37,0,0,1,1.92-.88,2.43,2.43,0,0,1,2,.93,4.48,4.48,0,0,1,0,5,2.43,2.43,0,0,1-2,.93A2.39,2.39,0,0,1,84.15,51.71Zm3.27,2.14a3.21,3.21,0,0,0,1.29-1.27h0v1.49h1.92V40.25h-2v5.44h0a3.05,3.05,0,0,0-1.26-1.21,3.79,3.79,0,0,0-1.75-.4,3.83,3.83,0,0,0-2.21.64A4.25,4.25,0,0,0,82,46.51a6.19,6.19,0,0,0-.54,2.66A6.31,6.31,0,0,0,82,51.83a4.32,4.32,0,0,0,1.49,1.79,3.88,3.88,0,0,0,2.23.65A3.68,3.68,0,0,0,87.42,53.85Z"/><polygon class="cls-2" points="56.88 39.95 56.88 39.95 52.67 44.15 52.67 32.5 46.17 32.5 46.17 44.15 41.97 39.95 37.38 44.55 49.42 56.6 61.47 44.55 56.88 39.95"/><polyline class="cls-2" points="39.67 65 59.17 65 59.17 58.5 39.67 58.5"/><polygon class="cls-2" points="39.67 52 6.5 52 6.5 13 18.15 13 24.65 19.5 46.17 19.5 46.17 26 52.67 26 52.67 13 27.35 13 20.85 6.5 0 6.5 0 58.5 39.67 58.5 39.67 52 39.67 52"/></g></g></svg>