<svg xmlns="http://www.w3.org/2000/svg" viewBox="0 0 175.64 65"><defs><style>.cls-1{fill:#5266a0;}.cls-2{fill:#fff;}</style></defs><g id="Warstwa_2" data-name="Warstwa 2"><g id="Warstwa_1-2" data-name="Warstwa 1"><rect class="cls-1" width="175.64" height="65"/><path class="cls-2" d="M0,12.94v37.7H0V65H58.56V12.94ZM36.78,57.58l.91.91H6.51V53.33l13-13Zm15.27.91H46.89L31.13,42.73,39,34.83l13,13Zm-45.54-39H52.05V38.64l-13-13L26.53,38.13l-7-7-13,13Z"/><path class="cls-2" d="M81.49,35.22V21.54h1.92V23h0a2.94,2.94,0,0,1,1.27-1.2,4.13,4.13,0,0,1,4,.24,4.39,4.39,0,0,1,1.49,1.79,6.94,6.94,0,0,1,0,5.32,4.3,4.3,0,0,1-1.48,1.79,3.93,3.93,0,0,1-2.24.65,3.51,3.51,0,0,1-1.72-.42,3.31,3.31,0,0,1-1.27-1.25h0v5.35Zm4.57-5.37A2.41,2.41,0,0,0,88,29a3.87,3.87,0,0,0,.73-2.54A3.82,3.82,0,0,0,88,23.91,2.39,2.39,0,0,0,86.06,23a2.44,2.44,0,0,0-2,.93,3.84,3.84,0,0,0-.74,2.48,3.81,3.81,0,0,0,.74,2.47A2.42,2.42,0,0,0,86.06,29.85Z"/><path class="cls-2" d="M96.65,31.56a4.52,4.52,0,0,1-2.46-.65,4.42,4.42,0,0,1-1.65-1.8A5.75,5.75,0,0,1,92,26.46a5.88,5.88,0,0,1,.59-2.68A4.42,4.42,0,0,1,94.19,22a4.9,4.9,0,0,1,4.91,0,4.4,4.4,0,0,1,1.64,1.8,5.75,5.75,0,0,1,.59,2.68,5.63,5.63,0,0,1-.59,2.65,4.4,4.4,0,0,1-1.64,1.8A4.51,4.51,0,0,1,96.65,31.56Zm0-1.69a2.36,2.36,0,0,0,2-.92,4,4,0,0,0,.73-2.49A4,4,0,0,0,98.63,24a2.56,2.56,0,0,0-4,0,4,4,0,0,0-.73,2.52A3.92,3.92,0,0,0,94.66,29,2.38,2.38,0,0,0,96.65,29.87Z"/><path class="cls-2" d="M106.69,31.57a5.42,5.42,0,0,1-2-.36,3.36,3.36,0,0,1-1.45-1.08,3.14,3.14,0,0,1-.62-1.77h1.93c.12,1.1.82,1.65,2.13,1.65a2.47,2.47,0,0,0,1.47-.38,1.13,1.13,0,0,0,.54-1,1,1,0,0,0-.39-.8,2.52,2.52,0,0,0-1-.44l-1.62-.37c-1.88-.4-2.81-1.34-2.81-2.8a2.56,2.56,0,0,1,1-2.11,4.21,4.21,0,0,1,2.71-.82,4.27,4.27,0,0,1,2.74.86,2.92,2.92,0,0,1,1.1,2.34h-1.87a1.52,1.52,0,0,0-.54-1.18,2.37,2.37,0,0,0-2.72-.08,1.19,1.19,0,0,0-.5,1,1,1,0,0,0,.38.8,2.4,2.4,0,0,0,1,.46l1.67.37a4.28,4.28,0,0,1,2.11,1,2.32,2.32,0,0,1,.68,1.73,2.55,2.55,0,0,1-.52,1.61,3.33,3.33,0,0,1-1.4,1A5.42,5.42,0,0,1,106.69,31.57Z"/><path class="cls-2" d="M117.28,21.54v1.62h-2v5.59a1,1,0,0,0,.23.76,1.11,1.11,0,0,0,.8.22h1v1.61h-1.23c-1.82,0-2.72-.78-2.72-2.34V23.16H111.6V21.54h1.73V18.87h2v2.67Z"/><path class="cls-2" d="M122.85,31.56a4.51,4.51,0,0,1-2.45-.65,4.4,4.4,0,0,1-1.64-1.8,5.77,5.77,0,0,1-.58-2.65,5.83,5.83,0,0,1,.59-2.67,4.42,4.42,0,0,1,4.08-2.47,4.63,4.63,0,0,1,2.1.46,4.11,4.11,0,0,1,1.5,1.27,3.88,3.88,0,0,1,.69,1.84h-2a2.27,2.27,0,0,0-.74-1.35,2.3,2.3,0,0,0-1.59-.53,2.35,2.35,0,0,0-2,.94,4,4,0,0,0-.71,2.51,4,4,0,0,0,.71,2.49,2.36,2.36,0,0,0,2,.92,2.19,2.19,0,0,0,1.56-.51,2.58,2.58,0,0,0,.75-1.38h2a3.72,3.72,0,0,1-.69,1.83,3.89,3.89,0,0,1-1.5,1.28A4.51,4.51,0,0,1,122.85,31.56Z"/><path class="cls-2" d="M131.9,31.5a3.83,3.83,0,0,1-2.43-.75,2.63,2.63,0,0,1-1-2.21,2.43,2.43,0,0,1,.55-1.71A3,3,0,0,1,130.5,26a11.9,11.9,0,0,1,1.87-.38l1.46-.19a2,2,0,0,0,.77-.22.56.56,0,0,0,.22-.51v-.08a1.5,1.5,0,0,0-.52-1.18,2.14,2.14,0,0,0-1.45-.46,2.44,2.44,0,0,0-1.53.45,1.51,1.51,0,0,0-.65,1.13h-1.92a3,3,0,0,1,1.18-2.29,4.59,4.59,0,0,1,2.95-.89,4.24,4.24,0,0,1,2.84.89,3,3,0,0,1,1,2.38v6.72h-1.93V30h0a3.23,3.23,0,0,1-1,1.07A3.29,3.29,0,0,1,131.9,31.5Zm.4-1.58a2.49,2.49,0,0,0,1.92-.67,2.25,2.25,0,0,0,.61-1.57V26.53a2.26,2.26,0,0,1-.88.28l-1.46.24a4.23,4.23,0,0,0-1.42.45,1.23,1.23,0,0,0-.12,2.06A2.25,2.25,0,0,0,132.3,29.92Z"/><path class="cls-2" d="M139,31.34v-9.8h1.88v1.59h0a2.55,2.55,0,0,1,.85-1.26,2.41,2.41,0,0,1,1.52-.45l.41,0,.3,0V23.3l-.4-.06a5.9,5.9,0,0,0-.63,0,2,2,0,0,0-1.41.58,2.34,2.34,0,0,0-.59,1.77v5.79Z"/><path class="cls-2" d="M149,31.54a3.91,3.91,0,0,1-2.24-.65,4.22,4.22,0,0,1-1.48-1.79,6.16,6.16,0,0,1-.53-2.66,6.19,6.19,0,0,1,.53-2.66A4.32,4.32,0,0,1,146.81,22a3.88,3.88,0,0,1,2.22-.64,3.74,3.74,0,0,1,1.74.4A2.94,2.94,0,0,1,152,23h0V17.52h2V31.34h-1.92V29.85h0a3.21,3.21,0,0,1-1.29,1.27A3.64,3.64,0,0,1,149,31.54Zm.4-1.69a2.39,2.39,0,0,0,2-.94,3.81,3.81,0,0,0,.75-2.47,3.84,3.84,0,0,0-.75-2.48,2.41,2.41,0,0,0-2-.93,2.38,2.38,0,0,0-1.93.88,3.82,3.82,0,0,0-.74,2.53,3.87,3.87,0,0,0,.74,2.54A2.4,2.4,0,0,0,149.44,29.85Z"/><path class="cls-2" d="M85.68,54.36a4.51,4.51,0,0,1-2.45-.65,4.4,4.4,0,0,1-1.64-1.8A5.77,5.77,0,0,1,81,49.26a5.71,5.71,0,0,1,.59-2.67,4.4,4.4,0,0,1,1.63-1.81,4.92,4.92,0,0,1,4.54-.2,4,4,0,0,1,1.5,1.27,3.79,3.79,0,0,1,.7,1.84H88a2.45,2.45,0,0,0-4.31-.94A4,4,0,0,0,83,49.26a4,4,0,0,0,.72,2.49,2.33,2.33,0,0,0,2,.92,2.22,2.22,0,0,0,1.56-.51A2.64,2.64,0,0,0,88,50.78h2a3.94,3.94,0,0,1-2.19,3.11A4.51,4.51,0,0,1,85.68,54.36Z"/><path class="cls-2" d="M95.84,54.36a4.57,4.57,0,0,1-2.46-.65,4.49,4.49,0,0,1-1.65-1.8,5.75,5.75,0,0,1-.58-2.65,5.87,5.87,0,0,1,.58-2.68,4.49,4.49,0,0,1,1.65-1.8,4.57,4.57,0,0,1,2.46-.66,4.51,4.51,0,0,1,2.45.66,4.42,4.42,0,0,1,1.65,1.8,5.87,5.87,0,0,1,.58,2.68,5.75,5.75,0,0,1-.58,2.65,4.42,4.42,0,0,1-1.65,1.8A4.51,4.51,0,0,1,95.84,54.36Zm0-1.69a2.36,2.36,0,0,0,2-.92,3.9,3.9,0,0,0,.73-2.49,3.94,3.94,0,0,0-.73-2.51,2.56,2.56,0,0,0-4,0,4.69,4.69,0,0,0,0,5A2.39,2.39,0,0,0,95.84,52.67Z"/><path class="cls-2" d="M104.22,40.32V54.14h-2V40.32Z"/><path class="cls-2" d="M108.38,40.32V54.14h-2V40.32Z"/><path class="cls-2" d="M114.77,54.36a4.59,4.59,0,0,1-2.5-.66,4.27,4.27,0,0,1-1.6-1.81,6,6,0,0,1-.56-2.63,5.77,5.77,0,0,1,.58-2.65,4.57,4.57,0,0,1,1.62-1.83,4.26,4.26,0,0,1,2.36-.66,4.44,4.44,0,0,1,2.42.65,4.32,4.32,0,0,1,1.59,1.81,5.89,5.89,0,0,1,.57,2.66v.53H112a3.32,3.32,0,0,0,.76,2.14,2.5,2.5,0,0,0,2,.82,2.69,2.69,0,0,0,1.59-.44,2.08,2.08,0,0,0,.83-1.13h1.88a3.55,3.55,0,0,1-.79,1.67A4.12,4.12,0,0,1,116.79,54,4.92,4.92,0,0,1,114.77,54.36Zm-2.71-6.07h5.28a2.88,2.88,0,0,0-.83-1.85,2.5,2.5,0,0,0-1.82-.69,2.46,2.46,0,0,0-1.81.69A2.87,2.87,0,0,0,112.06,48.29Z"/><path class="cls-2" d="M125.13,54.36a4.54,4.54,0,0,1-2.46-.65,4.38,4.38,0,0,1-1.63-1.8,6.29,6.29,0,0,1,0-5.32,4.43,4.43,0,0,1,1.64-1.81,4.49,4.49,0,0,1,2.45-.66,4.59,4.59,0,0,1,2.09.46,4,4,0,0,1,1.5,1.27,3.88,3.88,0,0,1,.69,1.84h-1.94a2.22,2.22,0,0,0-2.33-1.88,2.35,2.35,0,0,0-2,.94,4.07,4.07,0,0,0-.71,2.51,4,4,0,0,0,.71,2.49,2.36,2.36,0,0,0,2,.92,2.22,2.22,0,0,0,1.56-.51,2.64,2.64,0,0,0,.74-1.38h2a3.81,3.81,0,0,1-.68,1.83,4,4,0,0,1-1.5,1.28A4.51,4.51,0,0,1,125.13,54.36Z"/><path class="cls-2" d="M135.8,44.34V46h-2v5.59a1.06,1.06,0,0,0,.22.76,1.19,1.19,0,0,0,.81.22h1v1.61h-1.24c-1.81,0-2.71-.78-2.71-2.34V46h-1.73V44.34h1.73V41.67h2v2.67Z"/><path class="cls-2" d="M138.32,42.66a1.22,1.22,0,0,1-.88-.35,1.22,1.22,0,0,1,0-1.71,1.28,1.28,0,0,1,1.76,0,1.2,1.2,0,0,1,0,1.71A1.22,1.22,0,0,1,138.32,42.66Zm-1,11.48v-9.8h2v9.8Z"/><path class="cls-2" d="M145.73,54.36a4.52,4.52,0,0,1-2.46-.65,4.36,4.36,0,0,1-1.65-1.8,5.75,5.75,0,0,1-.59-2.65,5.88,5.88,0,0,1,.59-2.68,4.36,4.36,0,0,1,1.65-1.8,4.9,4.9,0,0,1,4.91,0,4.4,4.4,0,0,1,1.64,1.8,5.88,5.88,0,0,1,.59,2.68,5.75,5.75,0,0,1-.59,2.65,4.4,4.4,0,0,1-1.64,1.8A4.51,4.51,0,0,1,145.73,54.36Zm0-1.69a2.36,2.36,0,0,0,2-.92,4,4,0,0,0,.72-2.49,4,4,0,0,0-.72-2.51,2.37,2.37,0,0,0-2-.94,2.4,2.4,0,0,0-2,.93,4,4,0,0,0-.72,2.52,3.92,3.92,0,0,0,.72,2.49A2.36,2.36,0,0,0,145.73,52.67Z"/><path class="cls-2" d="M154.1,48.5v5.64h-2v-9.8h1.92v1.48a3.24,3.24,0,0,1,3-1.67,3.77,3.77,0,0,1,1.82.44,3.1,3.1,0,0,1,1.26,1.3,4.5,4.5,0,0,1,.47,2.15v6.1h-2V48.28A2.49,2.49,0,0,0,158,46.5a2,2,0,0,0-1.57-.6,2.45,2.45,0,0,0-1.69.62A2.56,2.56,0,0,0,154.1,48.5Z"/></g></g></svg>