<svg xmlns="http://www.w3.org/2000/svg" viewBox="0 0 175.64 65"><defs><style>.cls-1{fill:#5266a0;}.cls-2{fill:#fff;}</style></defs><g id="Warstwa_2" data-name="Warstwa 2"><g id="Warstwa_1-2" data-name="Warstwa 1"><g id="Warstwa_2-2" data-name="Warstwa 2"><g id="Warstwa_1-2-2" data-name="Warstwa 1-2"><rect class="cls-1" width="175.64" height="65"/><path class="cls-2" d="M141.92,29.5a1.26,1.26,0,0,1-.25-1.75,1.22,1.22,0,0,1,.36-.32,4.37,4.37,0,0,1,1.42-.45l1.47-.24a2.27,2.27,0,0,0,.88-.28v1.15a2.29,2.29,0,0,1-.62,1.57,2.47,2.47,0,0,1-1.92.67A2.34,2.34,0,0,1,141.92,29.5Zm2.87,1.5a3,3,0,0,0,1-1.07h0v1.39h1.93V24.55a3,3,0,0,0-1-2.38,4.24,4.24,0,0,0-2.85-.89,4.62,4.62,0,0,0-3,.89,3,3,0,0,0-1.18,2.29h1.92a1.56,1.56,0,0,1,.65-1.13,2.52,2.52,0,0,1,1.53-.45,2.13,2.13,0,0,1,1.46.46,1.51,1.51,0,0,1,.52,1.18v.08a.57.57,0,0,1-.23.51,2,2,0,0,1-.76.22l-1.46.19a12,12,0,0,0-1.88.38,3.13,3.13,0,0,0-1.44.86,2.42,2.42,0,0,0-.55,1.71,2.62,2.62,0,0,0,1,2.21,3.9,3.9,0,0,0,2.44.75A3.31,3.31,0,0,0,144.79,31Zm-7.22-11.51a1.2,1.2,0,0,0,0-1.7h0a1.26,1.26,0,0,0-.88-.35,1.21,1.21,0,0,0-.89,2.05h0a1.2,1.2,0,0,0,.88.35,1.23,1.23,0,0,0,.88-.4ZM135.71,32.2a1.54,1.54,0,0,1-.26,1,1,1,0,0,1-.85.31H134v1.65h.82A2.79,2.79,0,0,0,137,34.4a2.63,2.63,0,0,0,.73-1.94v-11h-2ZM131.86,31a4.12,4.12,0,0,0,1.5-1.28,3.73,3.73,0,0,0,.69-1.84h-2a2.54,2.54,0,0,1-.75,1.38,2.16,2.16,0,0,1-1.56.52,2.36,2.36,0,0,1-2-.93,4,4,0,0,1-.71-2.49,4,4,0,0,1,.71-2.51,2.34,2.34,0,0,1,2-.94,2.29,2.29,0,0,1,1.59.53,2.25,2.25,0,0,1,.74,1.35h2a3.93,3.93,0,0,0-.69-1.84,4.1,4.1,0,0,0-1.5-1.27,4.76,4.76,0,0,0-2.1-.46,4.42,4.42,0,0,0-4.08,2.47,6.34,6.34,0,0,0,0,5.32,4.38,4.38,0,0,0,1.64,1.8,4.51,4.51,0,0,0,2.45.65A4.68,4.68,0,0,0,131.86,31Zm-13.81.24V27.83l1-1,3.52,4.4H125l-4.43-5.58,4.15-4.22h-2.43l-4.17,4.19h0V17.45h-2V31.27Zm-10-7.7a2.75,2.75,0,0,1,3.64,0,2.86,2.86,0,0,1,.82,1.85h-5.28a2.93,2.93,0,0,1,.77-1.82Zm4,7.55A4.07,4.07,0,0,0,113.47,30a3.39,3.39,0,0,0,.78-1.67h-1.88a2.12,2.12,0,0,1-.83,1.14,2.68,2.68,0,0,1-1.58.43,2.49,2.49,0,0,1-2-.82,3.34,3.34,0,0,1-.77-2.14h7.21v-.53a6,6,0,0,0-.56-2.66,4.35,4.35,0,0,0-1.59-1.81,4.49,4.49,0,0,0-2.42-.65,4.31,4.31,0,0,0-2.37.66,4.66,4.66,0,0,0-1.61,1.83,6.3,6.3,0,0,0,0,5.28,4.27,4.27,0,0,0,1.6,1.82,4.68,4.68,0,0,0,2.5.65A4.79,4.79,0,0,0,112,31.09ZM101.58,17.45V31.27h2V17.45ZM93.17,28.88a3.88,3.88,0,0,1-.72-2.49,4,4,0,0,1,.73-2.52,2.4,2.4,0,0,1,2-.93,2.34,2.34,0,0,1,2,.94,3.94,3.94,0,0,1,.73,2.51,4,4,0,0,1-.72,2.49,2.6,2.6,0,0,1-3.65.35,2.89,2.89,0,0,1-.35-.35Zm4.44,2A4.42,4.42,0,0,0,99.26,29a5.65,5.65,0,0,0,.59-2.65,5.9,5.9,0,0,0-.59-2.68,4.45,4.45,0,0,0-4.1-2.46,4.43,4.43,0,0,0-4.1,2.46,5.77,5.77,0,0,0-.59,2.68A5.65,5.65,0,0,0,91.06,29a4.38,4.38,0,0,0,1.64,1.8,5.1,5.1,0,0,0,4.91,0Zm-14.19.43V27.83l1-1,3.51,4.4h2.41l-4.43-5.58,4.15-4.22H87.63l-4.18,4.19h0V17.45h-2V31.27Z"/><path class="cls-2" d="M165.34,54.07V50.63l1-1L169.85,54h2.4l-4.42-5.58L172,44.27h-2.43l-4.18,4.19h0V40.25h-2V54.07Zm-10-7.7a2.73,2.73,0,0,1,3.63,0,2.88,2.88,0,0,1,.83,1.85h-5.28a2.88,2.88,0,0,1,.81-1.85Zm3.91,7.52a4.16,4.16,0,0,0,1.53-1.13,3.62,3.62,0,0,0,.78-1.67h-1.88a2.16,2.16,0,0,1-.83,1.14,2.64,2.64,0,0,1-1.59.43,2.52,2.52,0,0,1-2-.82,3.39,3.39,0,0,1-.76-2.14h7.21v-.53a6,6,0,0,0-.57-2.66,4.35,4.35,0,0,0-1.59-1.81,4.49,4.49,0,0,0-2.42-.65,4.3,4.3,0,0,0-2.36.66,4.48,4.48,0,0,0-1.62,1.83,5.79,5.79,0,0,0-.58,2.65,6.1,6.1,0,0,0,.56,2.63,4.3,4.3,0,0,0,1.61,1.82,4.68,4.68,0,0,0,2.5.65,4.9,4.9,0,0,0,2-.4Zm-16.42.18,1.26-4.27c.15-.49.29-1,.42-1.52l.41-1.55.39,1.55c.13.52.27,1,.41,1.52L147,54.07h2l3-9.8h-2l-1.13,4q-.26.88-.48,1.8l-.45,1.82c-.15-.6-.31-1.21-.46-1.82s-.32-1.21-.48-1.8l-1.13-4H144l-1.14,4c-.16.6-.32,1.2-.48,1.82l-.48,1.84-.45-1.84c-.15-.62-.31-1.22-.47-1.82l-1.13-4h-2l3,9.8Zm-9.58-11,2-2.81h-2.09L131.72,43Zm-2.68,8.65a4.7,4.7,0,0,1,0-5,2.57,2.57,0,0,1,3.6-.4,2.52,2.52,0,0,1,.4.4,3.94,3.94,0,0,1,.73,2.51,3.88,3.88,0,0,1-.73,2.49,2.36,2.36,0,0,1-2,.93,2.4,2.4,0,0,1-2-1Zm4.44,2a4.41,4.41,0,0,0,1.65-1.8,5.76,5.76,0,0,0,.58-2.65,5.92,5.92,0,0,0-.58-2.68,4.66,4.66,0,0,0-8.21,0,5.9,5.9,0,0,0-.59,2.68,5.65,5.65,0,0,0,.59,2.65,4.47,4.47,0,0,0,1.65,1.8,4.7,4.7,0,0,0,4.9-.08Zm-10-9.37V41.6h-2v2.67h-1.72v1.62H123v5.84c0,1.56.91,2.34,2.72,2.34H127V52.46h-1a1.16,1.16,0,0,1-.81-.22,1,1,0,0,1-.22-.76V45.89h2V44.27Zm-4.71,9.8V52.41h-5.18l5.12-6.61V44.27h-7.56v1.66h5.19l-5.19,6.68V54Zm-10.92-.24a4,4,0,0,0,1.5-1.29,3.9,3.9,0,0,0,.69-1.83h-2a2.63,2.63,0,0,1-.74,1.38,2.21,2.21,0,0,1-1.56.52,2.36,2.36,0,0,1-2-.93,4,4,0,0,1-.71-2.49,4,4,0,0,1,.71-2.51,2.34,2.34,0,0,1,2-.94,2.22,2.22,0,0,1,2.33,1.88h2a3.93,3.93,0,0,0-2.2-3.11,4.92,4.92,0,0,0-4.54.2,4.54,4.54,0,0,0-1.64,1.81,6.27,6.27,0,0,0,0,5.32,4.32,4.32,0,0,0,1.64,1.8,4.51,4.51,0,0,0,2.45.65,4.65,4.65,0,0,0,2-.54Zm-14.7-2.15a4.7,4.7,0,0,1,0-5,2.57,2.57,0,0,1,3.6-.4,2.52,2.52,0,0,1,.4.4,4.65,4.65,0,0,1,0,5,2.58,2.58,0,0,1-3.63.37A2.16,2.16,0,0,1,94.68,51.76Zm4.44,2a4.38,4.38,0,0,0,1.64-1.8,5.65,5.65,0,0,0,.59-2.65,5.77,5.77,0,0,0-.59-2.68,4.52,4.52,0,0,0-1.64-1.8,4.9,4.9,0,0,0-4.91,0,4.41,4.41,0,0,0-1.65,1.8A5.9,5.9,0,0,0,92,49.31,5.65,5.65,0,0,0,92.56,52a4.41,4.41,0,0,0,1.65,1.8A5,5,0,0,0,99.12,53.76Zm-15-2a4.47,4.47,0,0,1,0-5,2.59,2.59,0,0,1,3.93,0,4.52,4.52,0,0,1,0,5,2.6,2.6,0,0,1-3.67.28,2.65,2.65,0,0,1-.33-.34ZM83.42,58V52.6h0a3.43,3.43,0,0,0,1.26,1.25,3.6,3.6,0,0,0,1.73.42,3.94,3.94,0,0,0,2.24-.65,4.3,4.3,0,0,0,1.48-1.79,6.91,6.91,0,0,0,0-5.32,4.4,4.4,0,0,0-1.49-1.79,3.89,3.89,0,0,0-2.22-.64,3.85,3.85,0,0,0-1.76.4,2.89,2.89,0,0,0-1.27,1.2h0V44.27H81.47V58Z"/><path class="cls-2" d="M0,12.94v37.7H0V65H58.56V12.94ZM36.78,57.58l.91.91H6.51V53.33l13-13Zm15.27.91H46.89L31.13,42.73,39,34.83l13,13Zm-45.54-39H52.05V38.64l-13-13L26.53,38.13l-7-7-13,13Z"/></g></g></g></g></svg>