<svg xmlns="http://www.w3.org/2000/svg" viewBox="0 0 212 65"><defs><style>.cls-1{fill:#5266a0;}.cls-2{fill:#fff;}</style></defs><g id="Warstwa_2" data-name="Warstwa 2"><g id="Warstwa_1-2" data-name="Warstwa 1"><rect class="cls-1" width="212" height="65"/><path class="cls-2" d="M182.58,23.65a2.42,2.42,0,0,1,1.68-.62,2.07,2.07,0,0,1,1.58.6,2.49,2.49,0,0,1,.57,1.78v5.86h2v-6.1A4.5,4.5,0,0,0,187.9,23a3.12,3.12,0,0,0-1.27-1.3,3.73,3.73,0,0,0-1.81-.44,3.26,3.26,0,0,0-3,1.67V21.47h-1.92v9.8h2V25.63A2.56,2.56,0,0,1,182.58,23.65Zm-5-4.21a1.2,1.2,0,0,0,0-1.71,1.28,1.28,0,0,0-1.76,0,1.2,1.2,0,0,0,0,1.71,1.28,1.28,0,0,0,1.76,0Zm.1,11.83v-9.8h-2v9.8Zm-16.22,0V25.36a2.26,2.26,0,0,1,.65-1.76,2.18,2.18,0,0,1,1.51-.6,1.92,1.92,0,0,1,1.37.51,1.74,1.74,0,0,1,.55,1.35v6.41h1.93V25.15a2.22,2.22,0,0,1,.56-1.55,2,2,0,0,1,1.55-.6,2.08,2.08,0,0,1,1.38.47A1.85,1.85,0,0,1,171.6,25v6.28h2V24.82a4,4,0,0,0-.44-2A2.85,2.85,0,0,0,172,21.68a3.36,3.36,0,0,0-1.65-.4,3.51,3.51,0,0,0-1.9.51,3.21,3.21,0,0,0-1.21,1.3,2.73,2.73,0,0,0-1.06-1.3,3.06,3.06,0,0,0-1.76-.51,3.25,3.25,0,0,0-1.69.46,3.2,3.2,0,0,0-1.23,1.38V21.47h-1.9v9.8Zm-10-1.77a1.16,1.16,0,0,1-.5-1,1.13,1.13,0,0,1,.61-1.08,4.31,4.31,0,0,1,1.42-.45l1.47-.24a2.26,2.26,0,0,0,.88-.28v1.15a2.26,2.26,0,0,1-.62,1.57,2.47,2.47,0,0,1-1.91.67A2.33,2.33,0,0,1,151.53,29.5ZM154.4,31a3,3,0,0,0,1-1.07h0v1.39h1.93V24.55a3,3,0,0,0-1-2.38,4.25,4.25,0,0,0-2.85-.89,4.61,4.61,0,0,0-2.95.89,3,3,0,0,0-1.18,2.29h1.92a1.57,1.57,0,0,1,.65-1.13,2.55,2.55,0,0,1,1.53-.45,2.16,2.16,0,0,1,1.46.46,1.5,1.5,0,0,1,.52,1.18v.08a.57.57,0,0,1-.23.51,1.92,1.92,0,0,1-.76.22l-1.46.19a12,12,0,0,0-1.88.38,3,3,0,0,0-1.43.86,2.43,2.43,0,0,0-.56,1.71,2.6,2.6,0,0,0,1,2.21,3.83,3.83,0,0,0,2.43.75A3.24,3.24,0,0,0,154.4,31Zm-9.07-13.5V31.27h1.95V17.45ZM141.2,29.8v1.47h1.92v-9.8h-2v5.65a2.59,2.59,0,0,1-.68,2,2.41,2.41,0,0,1-1.68.61,2.07,2.07,0,0,1-1.58-.6,2.46,2.46,0,0,1-.57-1.77V21.47h-2v6.11a4.46,4.46,0,0,0,.47,2.14A3.27,3.27,0,0,0,136.43,31a3.76,3.76,0,0,0,1.81.44A3.26,3.26,0,0,0,141.2,29.8ZM126,28.85a3.76,3.76,0,0,1-.74-2.51,3.81,3.81,0,0,1,.74-2.52,2.39,2.39,0,0,1,1.92-.87,2.45,2.45,0,0,1,2,.92,3.81,3.81,0,0,1,.75,2.47,3.8,3.8,0,0,1-.75,2.46,2.45,2.45,0,0,1-2,.92A2.39,2.39,0,0,1,126,28.85Zm4.28,6a3.53,3.53,0,0,0,1.61-1.32,4.23,4.23,0,0,0,.61-2.4V21.47h-1.93V23h0a3.11,3.11,0,0,0-1.29-1.28,3.83,3.83,0,0,0-1.76-.41,3.9,3.9,0,0,0-2.21.64,4.25,4.25,0,0,0-1.49,1.79,6.1,6.1,0,0,0-.54,2.64,6.24,6.24,0,0,0,.53,2.63,4.35,4.35,0,0,0,1.49,1.78,3.87,3.87,0,0,0,2.23.64,3.55,3.55,0,0,0,1.74-.41,3.24,3.24,0,0,0,1.29-1.26h0v1.49a2.41,2.41,0,0,1-.67,1.82,2.56,2.56,0,0,1-1.86.64,3,3,0,0,1-1.51-.36,1.73,1.73,0,0,1-.81-1.07h-2a3.11,3.11,0,0,0,1.33,2.23,5,5,0,0,0,2.94.8A5.78,5.78,0,0,0,130.27,34.86ZM115.69,23.57a2.73,2.73,0,0,1,3.63,0,2.88,2.88,0,0,1,.83,1.85h-5.28A2.87,2.87,0,0,1,115.69,23.57Zm3.91,7.52A4.13,4.13,0,0,0,121.13,30a3.63,3.63,0,0,0,.78-1.67H120a2.09,2.09,0,0,1-.83,1.14,2.68,2.68,0,0,1-1.58.43,2.49,2.49,0,0,1-2-.82,3.33,3.33,0,0,1-.77-2.14h7.21v-.53a6,6,0,0,0-.57-2.66,4.25,4.25,0,0,0-1.59-1.81,4.44,4.44,0,0,0-2.42-.65,4.28,4.28,0,0,0-2.36.66,4.55,4.55,0,0,0-1.61,1.83,5.81,5.81,0,0,0-.59,2.65,6,6,0,0,0,.56,2.63,4.38,4.38,0,0,0,1.61,1.82,4.65,4.65,0,0,0,2.5.65A4.88,4.88,0,0,0,119.6,31.09Zm-10.54.18V25.48a2.38,2.38,0,0,1,.59-1.77,2,2,0,0,1,1.42-.58,6.07,6.07,0,0,1,.63,0l.4.06V21.4l-.31,0-.41,0a2.43,2.43,0,0,0-1.52.45,2.54,2.54,0,0,0-.84,1.26h0V21.47H107.1v9.8Z"/><path class="cls-2" d="M38.5,6.5H58v13H71V26h6.5V11.65L65.85,0H32V58.5H64.5V52h-26Zm26,1.35L69.66,13H64.5Z"/><polygon class="cls-2" points="81.7 39.95 81.7 39.95 77.5 44.15 77.5 32.5 71 32.5 71 44.15 66.8 39.95 62.2 44.55 74.25 56.6 86.3 44.55 81.7 39.95"/><polyline class="cls-2" points="64.5 65 84 65 84 58.5 64.5 58.5"/></g></g></svg>