<svg xmlns="http://www.w3.org/2000/svg" viewBox="0 0 212 65"><defs><style>.cls-1{fill:#5266a0;}.cls-2{fill:#fff;}</style></defs><g id="Warstwa_2" data-name="Warstwa 2"><g id="Warstwa_1-2" data-name="Warstwa 1"><rect class="cls-1" width="212" height="65"/><path class="cls-2" d="M38.5,6.5H58v13H71V26h6.5V11.65L65.85,0H32V58.5H64.5V52h-26Zm26,1.35L69.66,13H64.5Z"/><polygon class="cls-2" points="81.7 39.95 81.7 39.95 77.5 44.15 77.5 32.5 71 32.5 71 44.15 66.8 39.95 62.2 44.55 74.25 56.6 86.3 44.55 81.7 39.95"/><polyline class="cls-2" points="64.5 65 84 65 84 58.5 64.5 58.5"/><path class="cls-2" d="M110.72,31.5a5.39,5.39,0,0,1-2-.36,3.42,3.42,0,0,1-1.45-1.07,3.12,3.12,0,0,1-.62-1.78h1.93c.11,1.1.82,1.66,2.13,1.66a2.51,2.51,0,0,0,1.47-.39,1.13,1.13,0,0,0,.54-1,1,1,0,0,0-.39-.8,2.52,2.52,0,0,0-1-.44L109.66,27c-1.87-.4-2.81-1.34-2.81-2.8a2.57,2.57,0,0,1,1-2.11,4.82,4.82,0,0,1,5.44,0,2.9,2.9,0,0,1,1.11,2.34h-1.87a1.56,1.56,0,0,0-.54-1.18,2,2,0,0,0-1.4-.47,2.08,2.08,0,0,0-1.33.39,1.18,1.18,0,0,0-.49,1,1,1,0,0,0,.38.8,2.4,2.4,0,0,0,1,.46l1.67.37a4.37,4.37,0,0,1,2.11,1,2.31,2.31,0,0,1,.67,1.73,2.6,2.6,0,0,1-.51,1.61,3.3,3.3,0,0,1-1.41,1A5.37,5.37,0,0,1,110.72,31.5Z"/><path class="cls-2" d="M121.31,21.47v1.62h-2v5.59a1.06,1.06,0,0,0,.22.76,1.14,1.14,0,0,0,.81.22h1v1.61h-1.24c-1.81,0-2.71-.78-2.71-2.34V23.09h-1.73V21.47h1.73V18.8h2v2.67Z"/><path class="cls-2" d="M126.09,31.43a3.88,3.88,0,0,1-2.44-.75,2.63,2.63,0,0,1-1-2.21,2.47,2.47,0,0,1,.55-1.71,3.08,3.08,0,0,1,1.44-.86,12,12,0,0,1,1.88-.38l1.46-.19a1.92,1.92,0,0,0,.76-.22.57.57,0,0,0,.23-.51v-.08a1.5,1.5,0,0,0-.52-1.18,2.16,2.16,0,0,0-1.46-.46,2.55,2.55,0,0,0-1.53.45,1.57,1.57,0,0,0-.65,1.13h-1.92a3,3,0,0,1,1.18-2.29,4.61,4.61,0,0,1,3-.89,4.27,4.27,0,0,1,2.85.89,3,3,0,0,1,1,2.38v6.72H129V29.88h0A3,3,0,0,1,128,31,3.24,3.24,0,0,1,126.09,31.43Zm.39-1.58a2.48,2.48,0,0,0,1.92-.67,2.26,2.26,0,0,0,.62-1.57V26.46a2.33,2.33,0,0,1-.88.28l-1.47.24a4.31,4.31,0,0,0-1.42.45,1.13,1.13,0,0,0-.61,1.08,1.15,1.15,0,0,0,.49,1A2.35,2.35,0,0,0,126.48,29.85Z"/><path class="cls-2" d="M137.88,21.47v1.62h-2v5.59a1,1,0,0,0,.23.76,1.09,1.09,0,0,0,.8.22h1v1.61h-1.24c-1.81,0-2.71-.78-2.71-2.34V23.09H132.2V21.47h1.73V18.8h2v2.67Z"/><path class="cls-2" d="M143,31.47a3.69,3.69,0,0,1-1.8-.44,3.23,3.23,0,0,1-1.28-1.31,4.46,4.46,0,0,1-.46-2.14V21.47h1.95v5.87a2.46,2.46,0,0,0,.57,1.77,2.09,2.09,0,0,0,1.59.6,2.39,2.39,0,0,0,1.67-.61,2.56,2.56,0,0,0,.68-2V21.47h2v9.8h-1.92V29.8A3.25,3.25,0,0,1,143,31.47Z"/><path class="cls-2" d="M154.78,21.47v1.62h-2v5.59a1,1,0,0,0,.23.76,1.14,1.14,0,0,0,.81.22h.95v1.61h-1.23c-1.82,0-2.72-.78-2.72-2.34V23.09H149.1V21.47h1.73V18.8h2v2.67Z"/><path class="cls-2" d="M160.35,31.49a4.65,4.65,0,0,1-2.5-.65A4.38,4.38,0,0,1,156.24,29a6,6,0,0,1-.56-2.63,5.81,5.81,0,0,1,.59-2.65,4.48,4.48,0,0,1,1.61-1.83,4.28,4.28,0,0,1,2.36-.66,4.44,4.44,0,0,1,2.42.65,4.25,4.25,0,0,1,1.59,1.81,6,6,0,0,1,.57,2.66v.53h-7.21a3.33,3.33,0,0,0,.77,2.14,2.49,2.49,0,0,0,2,.82,2.68,2.68,0,0,0,1.58-.43,2.09,2.09,0,0,0,.83-1.14h1.88a3.63,3.63,0,0,1-.78,1.67,4.18,4.18,0,0,1-1.52,1.13A5,5,0,0,1,160.35,31.49Zm-2.72-6.07h5.28a2.88,2.88,0,0,0-.83-1.85,2.73,2.73,0,0,0-3.63,0A2.87,2.87,0,0,0,157.63,25.42Z"/></g></g></svg>