<svg xmlns="http://www.w3.org/2000/svg" viewBox="0 0 175.64 59.02"><defs><style>.cls-1{fill:#5266a0;}.cls-2{fill:#fff;}</style></defs><g id="Warstwa_2" data-name="Warstwa 2"><g id="Warstwa_1-2" data-name="Warstwa 1"><rect class="cls-1" width="175.64" height="59.02"/><path class="cls-2" d="M128.24,23.53a1.25,1.25,0,0,1,.11-2.07,4.31,4.31,0,0,1,1.42-.45c.52-.08,1-.15,1.47-.24a2.33,2.33,0,0,0,.88-.28v1.15a2.26,2.26,0,0,1-.62,1.57,2.48,2.48,0,0,1-1.92.67A2.24,2.24,0,0,1,128.24,23.53ZM131.11,25a3,3,0,0,0,1-1.07h0V25.3h1.93V18.59a3,3,0,0,0-1-2.39,4.25,4.25,0,0,0-2.85-.89,4.61,4.61,0,0,0-3,.89A3,3,0,0,0,126,18.49H128a1.55,1.55,0,0,1,.65-1.12,2.48,2.48,0,0,1,1.53-.45,2.11,2.11,0,0,1,1.46.46,1.46,1.46,0,0,1,.52,1.17v.08a.57.57,0,0,1-.23.51,2,2,0,0,1-.76.23l-1.46.18a12,12,0,0,0-1.88.38,3.16,3.16,0,0,0-1.44.86,2.43,2.43,0,0,0-.55,1.71,2.61,2.61,0,0,0,1,2.21,3.88,3.88,0,0,0,2.44.75A3.24,3.24,0,0,0,131.11,25Zm-7.22-11.51a1.13,1.13,0,0,0,.36-.85,1.16,1.16,0,0,0-.36-.86,1.23,1.23,0,0,0-.88-.34,1.21,1.21,0,0,0-.88.34,1.16,1.16,0,0,0-.36.86,1.13,1.13,0,0,0,.36.85,1.22,1.22,0,0,0,.88.35A1.24,1.24,0,0,0,123.89,13.47ZM122,26.23a1.53,1.53,0,0,1-.26,1,1.05,1.05,0,0,1-.85.31h-.56v1.65h.82a2.77,2.77,0,0,0,2.09-.75,2.62,2.62,0,0,0,.73-1.94v-11h-2Zm-3.64-1.06a3.33,3.33,0,0,0,1.4-1,2.53,2.53,0,0,0,.52-1.61,2.32,2.32,0,0,0-.68-1.73,4.37,4.37,0,0,0-2.11-1l-1.67-.37a2.59,2.59,0,0,1-1-.45,1,1,0,0,1-.38-.81,1.19,1.19,0,0,1,.5-1,2.37,2.37,0,0,1,2.72.08,1.5,1.5,0,0,1,.54,1.18h1.88A3,3,0,0,0,119,16.15a4.84,4.84,0,0,0-5.45,0,2.56,2.56,0,0,0-1,2.12c0,1.45.93,2.39,2.81,2.8l1.62.36a2.52,2.52,0,0,1,1,.44,1,1,0,0,1,.39.8,1.16,1.16,0,0,1-.54,1,2.54,2.54,0,0,1-1.47.38c-1.31,0-2-.55-2.13-1.65h-1.93a3.19,3.19,0,0,0,.62,1.77,3.42,3.42,0,0,0,1.45,1.07,5.25,5.25,0,0,0,2,.37A5.4,5.4,0,0,0,118.39,25.17Zm-10.15.13V19.51a2.37,2.37,0,0,1,.59-1.77,2,2,0,0,1,1.41-.57,6.05,6.05,0,0,1,.63,0l.4.06V15.43l-.3,0a2.68,2.68,0,0,0-.41,0,2.41,2.41,0,0,0-1.52.45,2.57,2.57,0,0,0-.85,1.25h0V15.51h-1.88V25.3Zm-10-7.7a2.78,2.78,0,0,1,3.64,0,2.87,2.87,0,0,1,.82,1.85H97.4A2.92,2.92,0,0,1,98.22,17.6Zm3.92,7.52A4.18,4.18,0,0,0,103.66,24a3.48,3.48,0,0,0,.78-1.67h-1.88a2.1,2.1,0,0,1-.82,1.13,2.73,2.73,0,0,1-1.59.43,2.51,2.51,0,0,1-2-.81,3.43,3.43,0,0,1-.77-2.15h7.21v-.52a6.1,6.1,0,0,0-.56-2.67,4.24,4.24,0,0,0-4-2.46,4.32,4.32,0,0,0-2.37.67A4.6,4.6,0,0,0,96,17.77a5.81,5.81,0,0,0-.59,2.65A5.85,5.85,0,0,0,96,23.05a4.29,4.29,0,0,0,1.6,1.82,4.59,4.59,0,0,0,2.5.66A4.93,4.93,0,0,0,102.14,25.12Zm-16.43.18L87,21q.21-.75.42-1.53L87.8,18c.13.51.26,1,.4,1.54s.27,1,.41,1.53l1.24,4.26h2l3-9.79H92.86l-1.13,4q-.26.89-.48,1.8c-.15.62-.3,1.22-.45,1.82-.16-.6-.31-1.2-.47-1.82s-.31-1.21-.48-1.8l-1.12-4H86.86l-1.14,4c-.16.6-.32,1.2-.47,1.82l-.48,1.84-.45-1.84c-.15-.62-.31-1.22-.48-1.82l-1.12-4h-2l3,9.79Z"/><path class="cls-2" d="M128.54,46.33a1.15,1.15,0,0,1-.49-1,1.14,1.14,0,0,1,.61-1.08,4.31,4.31,0,0,1,1.42-.45c.52-.08,1-.15,1.46-.24a2.4,2.4,0,0,0,.89-.28v1.15a2.26,2.26,0,0,1-.62,1.57,2.48,2.48,0,0,1-1.92.67A2.25,2.25,0,0,1,128.54,46.33Zm2.88,1.45a3.14,3.14,0,0,0,1-1.07h0V48.1h1.93V41.39a3,3,0,0,0-1-2.39,4.28,4.28,0,0,0-2.85-.89,4.59,4.59,0,0,0-3,.89,3,3,0,0,0-1.18,2.29h1.92a1.52,1.52,0,0,1,.65-1.12,2.46,2.46,0,0,1,1.53-.45,2.13,2.13,0,0,1,1.46.46,1.5,1.5,0,0,1,.52,1.17v.08a.57.57,0,0,1-.23.51,2,2,0,0,1-.77.23l-1.45.18a11.8,11.8,0,0,0-1.88.38,3.16,3.16,0,0,0-1.44.86,2.43,2.43,0,0,0-.55,1.71,2.61,2.61,0,0,0,1,2.21,3.87,3.87,0,0,0,2.43.75A3.27,3.27,0,0,0,131.42,47.78Zm-12.86.32V44.66l1-1,3.51,4.4h2.41L121,42.52l4.15-4.21h-2.43l-4.18,4.18h0V34.28h-2V48.1ZM113,48a3.36,3.36,0,0,0,1.41-1,2.58,2.58,0,0,0,.51-1.61,2.31,2.31,0,0,0-.67-1.73,4.46,4.46,0,0,0-2.11-1l-1.67-.37a2.4,2.4,0,0,1-1-.46A1,1,0,0,1,109,41a1.18,1.18,0,0,1,.49-1,2.08,2.08,0,0,1,1.33-.39,2,2,0,0,1,1.4.47,1.56,1.56,0,0,1,.54,1.18h1.87A2.9,2.9,0,0,0,113.53,39a4.82,4.82,0,0,0-5.44,0,2.57,2.57,0,0,0-1,2.12c0,1.45.94,2.39,2.81,2.8l1.63.36a2.52,2.52,0,0,1,1,.44,1,1,0,0,1,.39.8,1.14,1.14,0,0,1-.55,1,2.54,2.54,0,0,1-1.47.38c-1.3,0-2-.55-2.12-1.65h-1.93a3.12,3.12,0,0,0,.62,1.77A3.36,3.36,0,0,0,108.9,48a5.73,5.73,0,0,0,4,0Zm-9.82-13.69V48.1h2V34.28ZM94.72,45.71a4.67,4.67,0,0,1,0-5,2.35,2.35,0,0,1,2-.94,2.4,2.4,0,0,1,2,.94,4,4,0,0,1,.73,2.51,4,4,0,0,1-.73,2.49,2.58,2.58,0,0,1-4,0Zm4.44,2a4.53,4.53,0,0,0,1.64-1.8,6.31,6.31,0,0,0,0-5.33,4.43,4.43,0,0,0-1.64-1.81,4.9,4.9,0,0,0-4.91,0,4.45,4.45,0,0,0-1.65,1.81,6.31,6.31,0,0,0,0,5.33,4.55,4.55,0,0,0,1.65,1.8,5,5,0,0,0,4.91,0Zm-15-2a4.53,4.53,0,0,1,0-5,2.44,2.44,0,0,1,2-.93,2.39,2.39,0,0,1,1.93.88,3.85,3.85,0,0,1,.73,2.54,3.84,3.84,0,0,1-.73,2.53,2.41,2.41,0,0,1-1.93.87A2.44,2.44,0,0,1,84.12,45.68ZM83.51,52V46.63h0a3.24,3.24,0,0,0,1.27,1.25,3.51,3.51,0,0,0,1.72.42,3.93,3.93,0,0,0,2.24-.65,4.24,4.24,0,0,0,1.48-1.79,6.92,6.92,0,0,0,0-5.31,4.33,4.33,0,0,0-1.49-1.79,3.89,3.89,0,0,0-2.22-.65,4,4,0,0,0-1.76.4,3,3,0,0,0-1.27,1.21h0V38.31H81.55V52Z"/><path class="cls-2" d="M0,.46V52.51H44.81L58.56,59V.46ZM52.05,48.74,46.28,46H6.51V7H52.05Z"/><polygon class="cls-2" points="39.04 32.99 39.04 13.47 32.53 13.47 32.53 39.5 45.55 39.5 45.55 32.99 39.04 32.99"/><path class="cls-2" d="M25.74,15.59a10.43,10.43,0,0,0-4-1.79,14.54,14.54,0,0,0-2.21-.32h-.14c-.4,0-.77,0-1.12,0s-.84,0-1.19,0H13v26h6.51V33c.4,0,.82-.09,1.26-.17a11.21,11.21,0,0,0,5.5-2.48,8.55,8.55,0,0,0,2.2-3,10.26,10.26,0,0,0,.8-4.09A10.11,10.11,0,0,0,28,18.18,8.53,8.53,0,0,0,25.74,15.59ZM22.36,25a2.19,2.19,0,0,1-.64.65,5.18,5.18,0,0,1-1.83.71l-.37.05V20a5,5,0,0,1,.54.08,5.16,5.16,0,0,1,1.2.36,2.45,2.45,0,0,1,1.06.83,3.38,3.38,0,0,1,.45,1.94A3.1,3.1,0,0,1,22.36,25Z"/></g></g></svg>